<?xml version="1.0" encoding="utf-8"?>
<svg version="1.1" xmlns:xlink="http://www.w3.org/1999/xlink" width="35px" height="20px" xmlns="http://www.w3.org/2000/svg">
  <g transform="matrix(1 0 0 1 -259 -410 )">
    <path d="M 35 18.9080432737535  L 35 19.008231420508  L 35 10.8929915333961  C 35 7.98753527751646  33.6975540921919 5.58301975540923  30.9924741298213 3.87982126058326  C 27.8866415804327 1.97624647224835  23.1777986829727 0.974365004703671  17.1665098777046 0.974365004703671  C 11.5559736594544 0.974365004703671  6.84713076199434 2.17662276575729  3.64111006585136 4.28057384760112  C 1.33678269049858 5.78339604891815  0.234713076199426 7.68697083725306  0.234713076199426 9.79092191909689  C 0.234713076199426 12.1954374412041  1.53715898400753 14.299388523048  3.94167450611476 15.802210724365  C 8.5503292568203 18.6074788334901  15.5634995296331 18.9080432737535  18.4689557855127 18.9080432737535  L 27.2855126999059 18.9080432737535  L 35 18.9080432737535  Z M 27.1853245531515 15.1008936970837  C 27.1853245531515 15.1008936970837  18.3687676387583 15.1008936970837  18.3687676387583 15.1008936970837  L 18.2685794920038 15.1008936970837  C 15.0625587958608 15.1008936970837  12.0569143932267 14.4997648165569  10.1533396048918 13.3976952022578  C 8.45014111006588 12.4960018814675  7.64863593603013 11.093367826905  7.64863593603013 9.69073377234241  C 7.64863593603013 8.7890404515522  8.24976481655693 7.88734713076198  9.25164628410163 7.08584195672624  C 11.0550329256821 5.78339604891815  13.6599247412982 5.18226716839133  17.3668861712136 5.18226716839133  C 25.6825023518345 5.18226716839133  27.4858889934149 8.28809971777984  27.5860771401693 10.892991533396  L 27.5860771401693 15.1008936970837  L 27.1853245531515 15.1008936970837  Z " fill-rule="nonzero" fill="#f7f8f8" stroke="none" transform="matrix(1 0 0 1 259 410 )" />
  </g>
</svg>