<?xml version="1.0" encoding="utf-8"?>
<svg version="1.1" xmlns:xlink="http://www.w3.org/1999/xlink" width="34px" height="23px" xmlns="http://www.w3.org/2000/svg">
  <g transform="matrix(1 0 0 1 -156 -406 )">
    <path d="M 16.6721542803387 8.88170272812793  C 19.8781749764817 8.88170272812793  22.4830667920978 9.48283160865475  24.0860771401694 10.5849012229539  C 25.288334901223 11.3864063969896  25.8894637817498 12.3882878645343  25.7892756349953 13.6907337723424  L 25.7892756349953 22.7076669802446  L 33.203198494826 22.7076669802446  L 33.203198494826 13.4903574788335  C 33.3033866415805 11.3864063969896  32.3015051740358 9.78339604891814  30.1975540921919 8.2805738476011  C 27.2920978363124 6.17662276575727  22.6834430856068 5.07455315145812  16.7723424270932 5.07455315145812  C 13.5663217309502 5.07455315145812  10.6608654750706 5.37511759172152  8.25634995296333 6.0764346190028  L 7.75540921919099 6.17662276575726  L 7.75540921919099 0.365710253998088  L 1 0.365710253998088  L 1 22.6074788334901  L 7.75540921919099 22.6074788334901  L 7.75540921919099 13.5905456255879  C 7.75540921919099 12.2880997177798  8.25634995296333 11.2862182502352  9.45860771401695 10.4847130761994  C 10.961429915334 9.48283160865473  13.4661335841957 8.88170272812793  16.6721542803387 8.88170272812793  Z " fill-rule="nonzero" fill="#f7f8f8" stroke="none" transform="matrix(1 0 0 1 156 406 )" />
  </g>
</svg>