<?xml version="1.0" encoding="utf-8"?>
<svg version="1.1" xmlns:xlink="http://www.w3.org/1999/xlink" width="32px" height="31px" xmlns="http://www.w3.org/2000/svg">
  <g transform="matrix(1 0 0 1 -116 -435 )">
    <path d="M 31 4.62817497648165  C 30.9238005644403 2.12347130761994  28.8198494825964 0.119708372530567  26.2149576669803 0.119708372530567  L 5.27563499529634 0.119708372530567  C 2.67074317968016 0.119708372530567  0.466603951081858 2.12347130761994  1 4.62817497648165  L 1 25.9682502351835  C 0.466603951081858 28.3727657572907  2.5705550329257 30.3765286923801  5.27563499529634 30  L 26.2149576669803 30  C 28.8198494825964 30.3765286923801  31.0239887111947 28.3727657572907  31 25.9682502351835  L 31 4.62817497648165  Z M 25.4134524929445 3  C 26.3151458137347 3.02516462841017  27.016462841016 3.72648165569144  27 4.52798682972718  L 27 25.868062088429  C 27.016462841016 26.6695672624647  26.3151458137347 27.370884289746  25.4134524929445 27  L 6.07714016933208 27  C 5.17544684854187 27.370884289746  4.47412982126059 26.6695672624647  5 25.868062088429  L 5 4.52798682972718  C 4.47412982126059 3.72648165569144  5.17544684854187 3.02516462841017  6.07714016933208 3  L 25.4134524929445 3  Z " fill-rule="nonzero" fill="#f7f8f8" stroke="none" transform="matrix(1 0 0 1 116 435 )" />
  </g>
</svg>