<?xml version="1.0" encoding="utf-8"?>
<svg version="1.1" xmlns:xlink="http://www.w3.org/1999/xlink" width="31px" height="31px" xmlns="http://www.w3.org/2000/svg">
  <g transform="matrix(1 0 0 1 -227 -434 )">
    <path d="M 5.18391345249296 7.43156161806208  C 5.18391345249296 6.4296801505174  5.88523047977424 5.62817497648165  6.98730009407339 6  L 29.1288805268109 6  C 29.7300094073377 5.62817497648165  30.3311382878645 5.12723424270931  30.3311382878645 4.42591721542803  L 30.3311382878645 3  L 20.2121354656632 3  L 20.2121354656632 0.318203198494828  L 17.5070555032926 0.318203198494828  C 16.9059266227658 0.318203198494828  16.304797742239 0.819143932267167  16.304797742239 1.52046095954844  L 16.304797742239 2.6225305738476  L 6.38617121354659 2.6225305738476  C 4.08184383819381 2.6225305738476  1.57714016933207 4.12535277516463  1.57714016933207 7.03080903104421  C 1.57714016933207 7.23118532455315  1.47695202257762 22.3595954844779  0.0743179680150661 30.5750235183443  L 1.8777046095955 30.8755879586077  C 1.97789275634997 30.8755879586077  2.17826904985893 30.8755879586077  2.27845719661337 30.8755879586077  C 3.07996237064913 30.8755879586077  3.7812793979304 30.2744590780809  3.88146754468488 29.4729539040452  C 4.78316086547508 22.8605362182502  5.08372530573848 7.53174976481654  5.18391345249296 7.43156161806208  Z " fill-rule="nonzero" fill="#f7f8f8" stroke="none" transform="matrix(1 0 0 1 227 434 )" />
  </g>
</svg>