<?xml version="1.0" encoding="utf-8"?>
<svg version="1.1" xmlns:xlink="http://www.w3.org/1999/xlink" width="12px" height="10px" xmlns="http://www.w3.org/2000/svg">
  <g transform="matrix(1 0 0 1 -231 -454 )">
    <path d="M 11.8038570084666 4.16298212605835  L 11.0023518344309 2.55997177798683  C 10.8019755409219 2.25940733772343  10.4012229539041 2.05903104421449  10.0004703668862 2.05903104421449  C 9.80009407337727 2.05903104421449  9.49952963311384 2.15921919096895  9.29915333960491 2.25940733772343  L 7.99670743179681 3.16110065851365  L 4.59031044214487 0.155456255879599  L 3.68861712135467 1.05714957666981  C 3.38805268109124 1.35771401693322  3.18767638758231 1.75846660395111  3.18767638758231 2.25940733772345  C 3.18767638758231 2.66015992474132  3.38805268109124 3.16110065851366  3.68861712135467 3.46166509877708  L 5.29162746942615 4.96448730009411  L 0.88334901222953 7.86994355597369  L 1.78504233301976 9.07220131702732  C 2.08560677328316 9.4729539040452  2.48635936030101 9.67333019755412  2.98730009407336 9.67333019755412  C 3.28786453433676 9.67333019755412  3.58842897460016 9.57314205079965  3.78880526810912 9.4729539040452  L 11.8038570084666 4.16298212605835  Z " fill-rule="nonzero" fill="#f7f8f8" stroke="none" transform="matrix(1 0 0 1 231 454 )" />
  </g>
</svg>