<?xml version="1.0" encoding="utf-8"?>
<svg version="1.1" xmlns:xlink="http://www.w3.org/1999/xlink" width="27px" height="27px" xmlns="http://www.w3.org/2000/svg">
  <g transform="matrix(1 0 0 1 -232 -439 )">
    <path d="M 20.5221072436501 14.7547036688617  L 20.5221072436501 14.8548918156162  C 22.8264346190028 14.8548918156162  24.6298212605833 13.1516933207902  24.6298212605833 10.9475540921919  L 24.6298212605833 10.3464252116651  L 25.1307619943556 10.3464252116651  C 25.7318908748824 10.3464252116651  26.3330197554092 9.84548447789275  26.3330197554092 9.14416745061148  L 26.3330197554092 7.44096895578551  L 24.6298212605833 7.44096895578551  L 24.6298212605833 6.63946378174975  C 24.6298212605833 4.53551269990592  22.7262464722484 2.73212605832548  20.5221072436501 2.73212605832548  L 15.2121354656632 2.73212605832548  L 15.2121354656632 0.828551269990569  L 12.5070555032926 0.828551269990569  C 11.9059266227658 0.828551269990569  11.304797742239 1.32949200376292  11.304797742239 2.0308090310442  L 11.304797742239 2.83231420507994  L 3.08936970837257 2.83231420507994  C 2.48824082784574 2.83231420507994  1.88711194731894 3.33325493885229  1.88711194731894 4.03457196613357  L 1.88711194731894 5.73777046095954  L 11.304797742239 5.73777046095954  L 11.304797742239 7.54115710253997  L 1.58654750705557 7.54115710253997  C 0.985418626528769 7.54115710253997  0.38428974600194 8.04209783631231  0.38428974600194 8.7434148635936  L 0.38428974600194 10.4466133584196  L 11.2046095954846 10.4466133584196  L 11.2046095954846 12.049623706491  L 2.98918156161815 12.049623706491  C 2.38805268109135 12.049623706491  1.78692380056455 12.5505644402634  1.78692380056455 13.2518814675447  L 1.78692380056455 14.9550799623706  L 11.2046095954846 14.9550799623706  L 11.2046095954846 21.9682502351835  C 11.2046095954846 22.8699435559737  10.4031044214488 23.5712605832549  9.50141110065863 23.5712605832549  L 8.3993414863595 23.5712605832549  C 7.79821260583268 23.5712605832549  7.19708372530587 24.0722013170273  7.19708372530587 24.7735183443085  L 7.19708372530587 26.4767168391345  L 10.2027281279399 26.4767168391345  C 12.7074317968016 26.4767168391345  14.8113828786455 24.5731420507996  14.9115710253999 22.2688146754468  L 14.9115710253999 22.0684383819379  C 14.9115710253999 22.0684383819379  14.9115710253999 21.9682502351835  14.9115710253999 21.9682502351835  L 14.9115710253999 19.3633584195673  L 23.3273753527753 25.3746472248354  C 23.5277516462842 25.5750235183443  23.8283160865476 25.6752116650988  24.1288805268111 25.6752116650988  C 24.5296331138289 25.6752116650988  24.9303857008468 25.4748353715899  25.1307619943557 25.1742709313264  L 26.1326434619004 23.8718250235184  L 20.4219190968957 19.7641110065852  L 24.9303857008468 17.2594073377234  L 24.2290686735656 16.1573377234243  C 23.9285042333021 15.6563969896519  23.3273753527753 15.3558325493885  22.7262464722485 15.3558325493885  C 22.4256820319851 15.3558325493885  22.1251175917217 15.456020696143  21.8245531514583 15.5562088428975  L 17.7168391345251 17.8605362182502  L 14.8113828786455 15.7565851364064  L 14.8113828786455 14.7547036688617  L 20.5221072436501 14.7547036688617  Z M 15.2121354656632 10.4466133584196  L 20.8226716839135 10.4466133584196  L 20.8226716839135 11.0477422389464  C 20.8226716839135 11.6488711194732  20.3217309501411 12.049623706491  19.7206020696143 12.049623706491  L 15.2121354656632 12.049623706491  L 15.2121354656632 10.4466133584196  Z M 15.2121354656632 7.54115710253998  L 15.2121354656632 5.73777046095955  L 19.7206020696143 5.73777046095955  C 20.3217309501411 5.73777046095955  20.8226716839135 6.13852304797743  20.8226716839135 6.73965192850424  L 20.8226716839135 7.54115710253998  L 15.2121354656632 7.54115710253998  Z " fill-rule="nonzero" fill="#f7f8f8" stroke="none" transform="matrix(1 0 0 1 232 439 )" />
  </g>
</svg>