<?xml version="1.0" encoding="utf-8"?>
<svg version="1.1" xmlns:xlink="http://www.w3.org/1999/xlink" width="25px" height="30px" xmlns="http://www.w3.org/2000/svg">
  <g transform="matrix(1 0 0 1 -197 -436 )">
    <path d="M 12.2408278457197 26  C 9.83631232361243 26.4710724365005  7.7323612417686 25.6695672624647  5.92897460018817 23.9663687676388  C 6.83066792097839 21.0609125117592  7.63217309501414 15.049623706491  7.83254938852308 12.9456726246472  C 7.83254938852308 12.6451081843838  7.73236124176861 12.3445437441204  7.53198494825968 12.043979303857  C 7.33160865475072 11.7434148635936  7.03104421448732 11.6432267168391  6.63029162746945 11.6432267168391  L 5.82878645343371 11.6432267168391  C 6.73047977422392 9.1385230479774  7.33160865475072 4.63005644402632  7.53198494825968 2.12535277516461  C 7.53198494825968 1.62441204139226  7.43179680150521 1.22365945437438  7.13123236124178 0.822906867356522  C 6.83066792097839 0.522342427093122  6.32972718720605 0.321966133584183  5.92897460018817 0.321966133584183  L 2.12182502351837 0.321966133584183  C 1.52069614299155 0.321966133584183  0.919567262464739 0.822906867356522  0.919567262464739 1.5242238946378  L 0.919567262464739 3.22742238946377  L 3.9252116650988 3.22742238946377  C 3.6246472248354 6.23306679209783  2.92333019755411 9.03833490122294  2.02163687676389 11.6432267168391  C 1.42050799623708 11.6432267168391  0.919567262464739 12.1441674506115  0.919567262464739 12.8454844778928  L 0.919567262464739 14.5486829727187  L 4.2257761053622 14.5486829727187  C 3.9252116650988 16.8530103480715  3.6246472248354 18.8567732831609  3.22389463781751 20.6601599247413  C 3.02351834430857 20.2594073377234  2.82314205079963 19.95884289746  2.62276575729071 19.5580903104422  L 1.11994355597368 20.2594073377234  C 0.819379115710277 20.4597836312324  0.518814675446876 20.6601599247413  0.4186265286924 21.0609125117592  C 0.318438381937938 21.4616650987771  0.318438381937938 21.7622295390405  0.518814675446862 22.1629821260583  C 1.0197554092192 23.0646754468486  1.52069614299154 23.8661806208843  2.12182502351835 24.5674976481656  C 1.82126058325495 25.5693791157103  1.62088428974602 26.1705079962371  1.3203198494826 26.7716368767639  C 1.0197554092192 27.3727657572907  1.42050799623706 28.1742709313264  2.02163687676389 28.3746472248354  L 3.82502351834432 29.0759642521166  C 4.2257761053622 28.0740827845719  4.32596425211666 27.873706491063  4.62652869238006 27.0722013170273  C 6.73047977422389 28.6752116650987  9.13499529633114 29.4767168391345  12.1406396989652 29  L 23.6622765757291 29  C 24.2634054562559 29.4767168391345  24.8645343367827 28.9757761053622  24.8645343367827 28.2744590780809  L 24.8645343367827 26  L 12.2408278457197 26  Z " fill-rule="nonzero" fill="#f7f8f8" stroke="none" transform="matrix(1 0 0 1 197 436 )" />
  </g>
</svg>