<?xml version="1.0" encoding="utf-8"?>
<svg version="1.1" xmlns:xlink="http://www.w3.org/1999/xlink" width="30px" height="36px" xmlns="http://www.w3.org/2000/svg">
  <g transform="matrix(1 0 0 1 -159 -330 )">
    <path d="M 13.1712135465663 14.8501881467545  C 21.0860771401694 18.1563969896519  25.0936030103481 25.870884289746  25.0936030103481 25.870884289746  C 26.6966133584196 28.6761523988711  28.8005644402634 34.9880056444026  28.8005644402634 34.9880056444026  L 28.9007525870179 35.3887582314205  C 30.203198494826 22.4644873000941  28.0992474129822 12.2452963311383  24.7930385700847 6.4343838193791  C 22.8894637817498 3.12817497648164  20.785512699906 0.723659454374397  18.881937911571 0.523283160865459  C 8.4623706491063 -0.378410159924754  0.246942615239888 7.03551269990592  0.246942615239888 7.03551269990592  C 1.54938852304798 9.33984007525869  2.65145813734715 10.8426622765757  3.35277516462841 11.9447318908749  C 8.06161806208843 12.6460489181562  10.3659454374412 13.7481185324553  13.1712135465663 14.8501881467545  Z " fill-rule="nonzero" fill="#ffffff" stroke="none" transform="matrix(1 0 0 1 159 330 )" />
  </g>
</svg>