<?xml version="1.0" encoding="utf-8"?>
<svg version="1.1" xmlns:xlink="http://www.w3.org/1999/xlink" width="28px" height="36px" xmlns="http://www.w3.org/2000/svg">
  <g transform="matrix(1 0 0 1 -184 -330 )">
    <path d="M 4.00094073377234 35.1883819379116  L 4.40169332079023 35.1883819379116  C 4.40169332079023 35.1883819379116  10.2126058325494 33.0844308560677  13.0178739416745 31.4814205079962  C 13.0178739416745 31.4814205079962  20.7323612417686 27.4738946378175  23.9383819379116 19.6592191909689  C 25.0404515522107 16.8539510818438  26.1425211665099 14.5496237064911  26.8438381937912 9.84078080903103  C 27.0442144873001 8.13758231420507  27.2445907808091 6.1338193791157  27.444967074318 3.62911571025399  C 27.444967074318 3.62911571025399  23.5376293508937 1.12441204139227  15.0216368767639 0.322906867356525  C 12.6171213546566 0.122530573847589  2.69849482596425 -0.278222013170286  1.09548447789275 1.82572906867355  C -0.106773283160877 3.42873941674505  3.19943555973659 6.33419567262463  5.40357478833489 11.6441674506115  C 6.80620884289746 15.0505644402634  8.20884289746 19.2584666039511  7.3071495766698 25.870884289746  C 6.80620884289746 28.9767168391345  5.90451552210723 31.9823612417686  4.20131702728128 34.7876293508937  L 4.00094073377234 35.1883819379116  Z " fill-rule="nonzero" fill="#ffffff" stroke="none" transform="matrix(1 0 0 1 184 330 )" />
  </g>
</svg>