<?xml version="1.0" encoding="utf-8"?>
<svg version="1.1" xmlns:xlink="http://www.w3.org/1999/xlink" width="30px" height="36px" xmlns="http://www.w3.org/2000/svg">
  <g transform="matrix(1 0 0 1 -187 -365 )">
    <path d="M 16.530103480715 21.4282690498589  C 8.61523988711197 18.1220602069614  4.60771401693323 10.4075729068674  4.60771401693323 10.4075729068674  C 3.00470366886174 7.60230479774224  0.900752587017891 1.29045155221072  0.900752587017891 1.29045155221072  L 0.800564440263429 0.889698965192849  C -0.501881467544663 13.8139698965193  1.60206961429917 24.0331608654751  4.90827845719663 29.8440733772342  C 6.81185324553154 33.1502822201317  8.91580432737537 35.5547977422389  10.8193791157103 35.7551740357479  C 21.3391345249295 36.6568673565381  29.4543744120414 29.2429444967074  29.4543744120414 29.2429444967074  C 28.1519285042333 26.9386171213547  27.0498588899342 25.4357949200376  26.3485418626529 24.3337253057385  C 21.6396989651929 23.6324082784572  19.3353715898401 22.530338664158  16.530103480715 21.4282690498589  Z " fill-rule="nonzero" fill="#ffffff" stroke="none" transform="matrix(1 0 0 1 187 365 )" />
  </g>
</svg>