<?xml version="1.0" encoding="utf-8"?>
<svg version="1.1" xmlns:xlink="http://www.w3.org/1999/xlink" width="36px" height="28px" xmlns="http://www.w3.org/2000/svg">
  <g transform="matrix(1 0 0 1 -188 -362 )">
    <path d="M 0.301505174035739 3.58913452492943  L 0.301505174035754 3.98988711194731  C 0.301505174035754 3.98988711194731  2.40545625587959 9.80079962370648  4.00846660395109 12.6060677328316  C 4.00846660395109 12.6060677328316  8.01599247412983 20.3205550329257  15.8306679209784 23.5265757290687  C 18.6359360301035 24.6286453433678  20.9402634054563 25.730714957667  25.6491063029163 26.4320319849483  C 27.3523047977422 26.7325964252117  29.3560677328316 26.8327845719661  31.8607714016933 27.0331608654751  C 31.8607714016933 27.0331608654751  34.3654750705551 23.1258231420508  35.1669802445908 14.609830667921  C 35.3673565380997 12.2053151458137  35.7681091251176 2.38687676387582  33.6641580432738 0.683678269049857  C 32.0611476952023 -0.51857949200377  29.1556914393227 2.7876293508937  23.8457196613359 4.991768579492  C 20.4393226716839 6.39440263405455  16.2314205079962 7.89722483537158  9.61900282220132 6.8953433678269  C 6.5131702728128 6.39440263405455  3.50752587017875 5.49270931326434  0.702257761053616 3.78951081843837  L 0.301505174035739 3.58913452492943  Z " fill-rule="nonzero" fill="#ffffff" stroke="none" transform="matrix(1 0 0 1 188 362 )" />
  </g>
</svg>