<?xml version="1.0" encoding="utf-8"?>
<svg version="1.1" xmlns:xlink="http://www.w3.org/1999/xlink" width="27px" height="36px" xmlns="http://www.w3.org/2000/svg">
  <g transform="matrix(1 0 0 1 -164 -366 )">
    <path d="M 23.8005644402634 0.190263405456257  L 23.3998118532456 0.0900752587017806  C 23.3998118532456 0.0900752587017806  17.5888993414864 2.19402634054562  14.7836312323613 3.79703668861712  C 14.7836312323613 3.79703668861712  7.06914393226718 7.80456255879586  3.8631232361242 15.6192380056444  C 2.76105362182504 18.4245061147695  1.65898400752589 20.7288334901223  0.957666980244596 25.4376763875823  C 0.657102539981196 27.1408748824083  0.55691439322672 29.1446378174976  0.356538099717795 31.6493414863594  C 0.356538099717795 31.6493414863594  4.26387582314207 34.1540451552211  12.7798682972719 34.9555503292568  C 15.1843838193792 35.1559266227658  25.1030103480715 35.5566792097836  26.706020696143 33.4527281279398  C 27.9082784571966 31.8497177798683  24.6020696142992 28.9442615239887  22.3979303857009 23.6342897460019  C 20.9952963311383 20.22789275635  19.5926622765758 16.0199905926623  20.494355597366 9.40757290686736  C 20.9952963311383 6.30174035747883  21.8969896519285 3.29609595484477  23.6001881467545 0.591015992474134  L 23.8005644402634 0.190263405456257  Z " fill-rule="nonzero" fill="#ffffff" stroke="none" transform="matrix(1 0 0 1 164 366 )" />
  </g>
</svg>