<?xml version="1.0" encoding="utf-8"?>
<svg version="1.1" xmlns:xlink="http://www.w3.org/1999/xlink" width="639px" height="10px" xmlns="http://www.w3.org/2000/svg">
  <g transform="matrix(1 0 0 1 -7 -5 )">
    <path d="M 0 6  C 0 5.7  0.2 5.5  0.5 5.5  L 2.5 5.5  C 2.8 5.5  3 5.7  3 6  L 3 9.5  C 3 9.8  2.8 10  2.5 10  L 0.5 10  C 0.2 10  0 9.8  0 9.5  L 0 6  Z M 4.5 4.5  C 4.5 4.2  4.7 4  5 4  L 7 4  C 7.3 4  7.5 4.2  7.5 4.5  L 7.5 9.5  C 7.5 9.8  7.3 10  7 10  L 5 10  C 4.7 10  4.5 9.8  4.5 9.5  L 4.5 4.5  Z M 9 2.5  C 9 2.2  9.2 2  9.5 2  L 11.5 2  C 11.8 2  12 2.2  12 2.5  L 12 9.5  C 12 9.8  11.8 10  11.5 10  L 9.5 10  C 9.2 10  9 9.8  9 9.5  L 9 2.5  Z M 13.5 0.5  C 13.5 0.2  13.7 0  14 0  L 16 0  C 16.3 0  16.5 0.2  16.5 0.5  L 16.5 9.5  C 16.5 9.8  16.3 10  16 10  L 14 10  C 13.7 10  13.5 9.8  13.5 9.5  L 13.5 0.5  Z M 33.1 3.9  C 31.7 2.7  29.9 2  28 2  C 26.1 2  24.3 2.7  22.9 3.9  L 22 2.9  C 23.6 1.5  25.7 0.5  28 0.5  C 30.3 0.5  32.4 1.5  34 2.9  L 33.1 3.9  Z M 31 6.1  C 30.3 5.4  29.2 5  28 5  C 26.8 5  25.8 5.4  25 6.1  L 24 5  C 25.1 4.1  26.5 3.5  28 3.5  C 29.5 3.5  31 4.1  32 5  L 31 6.1  Z M 28.1 6.5  C 28.8 6.5  29.5 6.8  30.1 7.3  L 28.1 9.5  L 26.1 7.3  C 26.7 6.8  27.4 6.5  28.1 6.5  Z M 628 2  C 628 1.7  628.2 1.5  628.5 1.5  L 639 1.5  L 639 9  L 628.5 9  C 628.2 9  628 8.8  628 8.5  L 628 2  Z M 337.6 9.6  L 337.6 0.9  L 339.3 0.9  L 341.8 8.2  L 344.3 0.899999999999999  L 346 0.899999999999999  L 346 9.5  L 344.9 9.5  L 344.9 4.4  C 344.9 4.2  344.9 3.9  344.9 3.5  C 344.9 3.1  344.9 2.7  344.9 2.2  L 342.4 9.5  L 341.2 9.5  L 338.7 2.2  L 338.7 2.5  C 338.7 2.7  338.7 3  338.7 3.5  C 338.7 3.9  338.7 4.2  338.7 4.5  L 338.7 9.6  L 337.6 9.6  Z M 328.9 9.5  L 332.1 0.9  L 333.4 0.9  L 336.5 9.5  L 335.2 9.5  L 334.3 6.9  L 331 6.9  L 330.1 9.5  L 328.9 9.5  Z M 331.3 6  L 334 6  L 332.7 2.2  L 331.3 6  Z M 321.8 3.6  L 319.8 3.6  L 319.8 2.8  C 320.6 2.7  321.1 2.6  321.4 2.4  C 321.7 2.2  321.9 1.8  322.1 1.2  L 322.9 1.2  L 322.9 9.6  L 321.8 9.6  L 321.8 3.6  Z M 317 9.5  L 316 9.5  L 316 7.4  L 312.3 7.4  L 312.3 6.4  L 316.1 1.1  L 317 1.1  L 317 6.5  L 318.2 6.5  L 318.2 7.4  L 317 7.4  L 317 9.5  Z M 313.3 6.5  L 316 6.5  L 316 2.7  L 313.3 6.5  Z M 310 9.5  L 310 8.2  L 311.2 8.2  L 311.2 9.5  L 310 9.5  Z M 310 4.6  L 310 3.3  L 311.2 3.3  L 311.2 4.6  L 310 4.6  Z M 303.8 5.3  C 304.2 5.6  304.6 5.8  305.2 5.8  C 305.6 5.8  306 5.7  306.3 5.4  C 306.6 5.1  306.8 4.6  306.8 4  C 306.8 3.4  306.6 2.9  306.3 2.6  C 306 2.3  305.6 2.1  305.1 2.1  C 304.6 2.1  304.2 2.3  303.9 2.6  C 303.6 2.9  303.4 3.4  303.4 4  C 303.4 4.5  303.5 5  303.8 5.3  Z M 303.6 7.6  L 303.6 7.5  C 303.6 8.1  303.9 8.5  304.3 8.7  C 304.5 8.8  304.8 8.9  305 8.9  C 305.5 8.9  305.9 8.7  306.3 8.3  C 306.7 7.9  306.9 7  307.1 5.7  C 306.9 6.1  306.6 6.3  306.2 6.5  C 305.9 6.7  305.5 6.7  305.1 6.7  C 304.3 6.7  303.7 6.4  303.2 5.9  C 302.7 5.4  302.5 4.7  302.5 4  C 302.5 3.2  302.7 2.6  303.2 2  C 303.7 1.4  304.4 1.1  305.3 1.1  C 306.5 1.1  307.4 1.7  307.8 2.8  C 308.1 3.4  308.2 4.2  308.2 5.1  C 308.2 6.1  308 7  307.7 7.8  C 307.2 9.1  306.3 9.8  305.1 9.8  C 304.3 9.8  303.7 9.6  303.2 9.2  C 302.7 8.8  302.6 8.2  302.6 7.6  L 303.6 7.6  Z M 615.6 8.3  C 615.9 8.5  616.2 8.7  616.5 8.7  C 616.8 8.7  617.1 8.6  617.4 8.3  C 617.6 8.1  617.8 7.8  617.8 7.4  C 617.8 7  617.7 6.8  617.4 6.5  C 617.2 6.3  616.9 6.1  616.5 6.1  C 616.2 6.1  615.9 6.2  615.6 6.5  C 615.4 6.7  615.2 7  615.2 7.4  C 615.2 7.8  615.3 8  615.6 8.3  Z M 609.4 2  C 609.7 1.6  610.2 1.4  610.8 1.4  C 611.4 1.4  611.8 1.6  612.2 2  C 612.6 2.4  612.8 2.9  612.8 3.4  C 612.8 3.9  612.6 4.4  612.2 4.8  C 611.8 5.2  611.3 5.4  610.8 5.4  C 610.2 5.4  609.8 5.2  609.4 4.8  C 609 4.4  608.8 3.9  608.8 3.4  C 608.8 2.9  609 2.4  609.4 2  Z M 609.9 4.2  C 610.2 4.5  610.4 4.6  610.8 4.6  C 611.1 4.6  611.4 4.5  611.7 4.2  C 611.9 4  612.1 3.7  612.1 3.3  C 612.1 2.9  612 2.7  611.7 2.4  C 611.5 2.2  611.2 2  610.8 2  C 610.5 2  610.2 2.1  609.9 2.4  C 609.7 2.6  609.5 2.9  609.5 3.3  C 609.5 3.6  609.6 3.9  609.9 4.2  Z M 611 9.7  L 615.7 1.1  L 616.4 1.1  L 611.7 9.7  L 611 9.7  Z M 615.1 6  C 615.5 5.6  616 5.4  616.5 5.4  C 617.1 5.4  617.5 5.6  617.9 6  C 618.3 6.4  618.5 6.9  618.5 7.4  C 618.5 8  618.3 8.4  617.9 8.8  C 617.5 9.2  617 9.4  616.5 9.4  C 615.9 9.4  615.5 9.2  615.1 8.8  C 614.7 8.4  614.5 7.9  614.5 7.4  C 614.5 6.8  614.7 6.4  615.1 6  Z M 602.5 5.9  C 602.7 5.5  603 5.2  603.5 5  C 603.2 4.9  603 4.7  602.8 4.6  C 602.5 4.3  602.3 3.9  602.3 3.4  C 602.3 2.8  602.5 2.2  603 1.8  C 603.5 1.4  604.1 1.1  604.9 1.1  C 605.7 1.1  606.3 1.3  606.8 1.7  C 607.3 2.1  607.5 2.6  607.5 3.2  C 607.5 3.7  607.4 4.1  607.1 4.5  C 607 4.7  606.7 4.9  606.4 5  C 606.7 5.2  607 5.3  607.2 5.6  C 607.6 6  607.8 6.5  607.8 7.1  C 607.8 7.8  607.6 8.5  607.1 9  C 606.6 9.5  605.9 9.8  605 9.8  C 604.2 9.8  603.5 9.6  602.9 9.1  C 602.3 8.7  602.1 8  602.1 7.2  C 602.1 6.7  602.2 6.3  602.5 5.9  Z M 603.6 8.3  C 603.9 8.6  604.4 8.8  605 8.8  C 605.5 8.8  605.9 8.7  606.2 8.4  C 606.5 8.1  606.7 7.7  606.7 7.2  C 606.7 6.7  606.5 6.2  606.2 6  C 605.9 5.7  605.4 5.6  604.9 5.6  C 604.4 5.6  604 5.7  603.7 6  C 603.4 6.3  603.2 6.7  603.2 7.2  C 603.2 7.6  603.3 8  603.6 8.3  Z M 603.9 4.2  C 604.2 4.5  604.5 4.6  604.9 4.6  C 605.4 4.6  605.7 4.5  606 4.2  C 606.3 3.9  606.4 3.6  606.4 3.3  C 606.4 3  606.3 2.7  606 2.4  C 605.8 2.1  605.4 2  604.9 2  C 604.4 2  604 2.1  603.8 2.4  C 603.6 2.7  603.5 3  603.5 3.3  C 603.5 3.7  603.6 4  603.9 4.2  Z M 596.5 7.2  L 596.5 7.4  C 596.6 8  596.8 8.4  597.3 8.6  C 597.5 8.7  597.8 8.8  598.2 8.8  C 598.8 8.8  599.3 8.6  599.6 8.2  C 599.9 7.8  600.1 7.4  600.1 6.9  C 600.1 6.3  599.9 5.9  599.6 5.5  C 599.2 5.2  598.8 5  598.3 5  C 597.9 5  597.6 5.1  597.4 5.2  C 597.2 5.3  596.9 5.5  596.7 5.8  L 595.8 5.7  L 596.4 1.2  L 600.8 1.2  L 600.8 2.2  L 597.2 2.2  L 596.8 4.5  C 597 4.4  597.2 4.2  597.4 4.2  C 597.7 4.1  598.1 4  598.5 4  C 599.3 4  599.9 4.2  600.5 4.7  C 601 5.2  601.3 5.8  601.3 6.6  C 601.3 7.4  601.1 8.1  600.6 8.7  C 600.1 9.3  599.3 9.6  598.3 9.6  C 597.6 9.6  597 9.4  596.5 9  C 596 8.6  595.7 8  595.6 7.2  L 596.5 7.2  Z " fill-rule="nonzero" fill="#ffffff" stroke="none" transform="matrix(1 0 0 1 7 5 )" />
  </g>
</svg>