<?xml version="1.0" encoding="utf-8"?>
<svg version="1.1" xmlns:xlink="http://www.w3.org/1999/xlink" width="20px" height="20px" xmlns="http://www.w3.org/2000/svg">
  <g transform="matrix(1 0 0 1 -82 -114 )">
    <path d="M 92 115  C 97.04 115  101 118.96  101 124  C 101 129.04  97.04 133  92 133  C 86.96 133  83 129.04  83 124  C 83 118.96  86.96 115  92 115  Z " fill-rule="nonzero" fill="#e5b304" stroke="none" />
    <path d="M 92 115  C 97.04 115  101 118.96  101 124  C 101 129.04  97.04 133  92 133  C 86.96 133  83 129.04  83 124  C 83 118.96  86.96 115  92 115  Z " stroke-width="2" stroke="#ffc100" fill="none" />
  </g>
</svg>