<?xml version="1.0" encoding="utf-8"?>
<svg version="1.1" xmlns:xlink="http://www.w3.org/1999/xlink" width="154px" height="152px" xmlns="http://www.w3.org/2000/svg">
  <g transform="matrix(1 0 0 1 0 94 )">
    <path d="M 97.1783916963724 67.8247011952191  C 91.1236632417698 71.2563081009296  77.803260641644 75.6972111553785  77.803260641644 75.6972111553785  L 76.9959635143636 75.8990703851262  C 104.645890123716 78.5232403718459  126.442912560285 74.2841965471448  138.754193751311 67.2191235059761  C 145.818043615014 63.1819389110226  151.065474942336 58.7410358565737  151.267299224156 54.7038512616202  C 153.285542042357 32.2974767596282  137.54324806039 14.7357237715804  137.54324806039 14.7357237715804  C 132.699465296708 17.3598937583001  129.268452505766 19.9840637450199  127.048385405745 21.3970783532537  C 125.635615433005 31.4900398406375  123.213724051164 36.5365205843294  120.791832669323 42.390438247012  C 113.72798280562 59.3466135458167  97.1783916963724 67.8247011952191  97.1783916963724 67.8247011952191  Z M 126.241088278465 7.46879150066402  C 126.241088278465 7.46879150066402  117.966292723842 2.01859229747678  99.6002830782134 0.403718459495334  C 94.5546760327113 0  73.363126441602 -0.807436918990725  69.7302893688405 3.63346613545817  C 67.1065737051793 7.06507304116868  74.1704235688825 13.3227091633466  79.0142063325645 24.6268260292165  C 82.0415705598659 31.8937583001328  85.0689347871672 40.9774236387782  83.0506919689663 55.1075697211156  C 82.0415705598659 61.7689243027889  80.023327741665 68.2284196547145  76.3904906689034 74.082337317397  L 76.011698086721 75.0294827523258  L 76.9959635143636 75.0916334661355  C 76.9959635143636 75.0916334661355  89.3072447053889 70.6507304116866  95.3619731599916 67.2191235059761  C 95.3619731599916 67.2191235059761  111.911564269239 58.7410358565737  118.773589851122 41.7848605577689  C 121.195481232963 35.9309428950863  123.617372614804 30.6826029216467  125.030142587545 20.7915006640106  C 125.635615433005 17.1580345285525  126.039263996645 12.7171314741036  126.241088278465 7.46879150066402  Z M 67.9138708324597 55.1075697211156  C 71.143059341581 61.1633466135458  75.7850178234431 74.4860557768924  75.7850178234431 74.4860557768924  L 75.9868421052632 75.2934926958831  C 75.9932291344694 75.2261715789304  75.9995754990666 75.1588851525031  76.0058812572851 75.0916334661057  C 78.5777196195315 47.5621797065867  74.3497539702491 25.7981282053927  67.3083979869994 13.3227091633466  C 63.2719123505976 6.25763612217796  58.8317781505556 1.21115537848606  54.795292514154 0.807436918990725  C 32.3927972321242 -1.00929614873839  14.8340847137765 14.7357237715804  14.8340847137765 14.7357237715804  C 17.6596246592577 19.5803452855245  20.0815160410988 23.0119521912351  21.4942860138393 25.2324037184595  C 31.5855001048437 26.6454183266932  36.6311071503459 29.0677290836653  42.4840113231286 31.4900398406375  C 59.4372509960159 38.5551128818061  67.9138708324597 55.1075697211156  67.9138708324597 55.1075697211156  Z M 76.1886663870832 77.5139442231076  L 76.0644668166588 77.0170599962259  L 76.1886663870832 76.7065073041168  L 75.9829425113275 76.7476592039044  L 75.1795449779828 76.9083665338646  C 75.1795449779828 76.9083665338646  62.8682637869575 81.3492695883134  56.8135353323547 84.780876494024  C 56.8135353323547 84.780876494024  40.2639442231076 93.2589641434263  33.4019186412246 110.215139442231  C 30.9800272593835 116.069057104914  28.5581358775424 121.317397078353  27.1453659048019 131.208499335989  C 26.5398930593415 134.841965471448  26.1362444957014 139.282868525896  25.9344202138813 144.531208499336  C 25.9344202138813 144.531208499336  34.2092157685049 149.981407702523  52.575225414133 151.596281540505  C 57.6208324596352 152  78.8123820507444 152.807436918991  82.4452191235059 148.366533864542  C 85.0689347871671 144.934926958831  78.0050849234641 138.677290836653  73.1613021597819 127.171314741036  C 70.1339379324806 119.904382470119  67.1065737051792 110.820717131474  69.1248165233801 96.6905710491368  C 70.1339379324806 90.0292164674635  72.1521807506814 83.5697211155378  75.7850178234431 77.7158034528552  L 75.9256349670424 77.3641997206611  C 73.4306157468396 104.70685504595  77.6575289741238 126.259796934175  84.6652862235269 138.475431606906  C 88.7017718599287 145.540504648074  93.1419060599707 150.586985391766  97.1783916963724 150.990703851262  C 119.782711260222 153.009296148738  137.13959949675 137.26427622842  137.13959949675 137.26427622842  C 134.314059551269 132.419654714475  131.892168169428 128.988047808765  130.479398196687 126.76759628154  C 120.388184105683 125.354581673307  115.34257706018 122.932270916335  109.489672887398 120.509960159362  C 92.7382574963304 113.444887118194  84.0598133780667 96.8924302788844  84.0598133780667 96.8924302788844  C 80.8306248689453 90.8366533864542  76.1886663870832 77.5139442231076  76.1886663870832 77.5139442231076  Z M 148.441759278675 69.6414342629482  C 145.010746487733 67.0172642762284  138.754193751311 74.082337317397  127.250209687566 78.9269588313413  C 119.984535542042 81.9548472775564  110.902442860138 84.9827357237716  96.7747431327322 82.9641434262949  C 90.1145418326694 81.9548472775564  83.6561648144265 79.9362549800797  77.803260641644 76.3027888446215  L 76.7941392325435 75.8990703851262  L 76.9959635143636 76.7065073041168  C 76.9959635143636 76.7065073041168  81.4360977144055 89.0199203187251  84.8671105053471 95.0756972111554  C 84.8671105053471 95.0756972111554  93.5455546236108 111.628154050465  110.296970014678 118.491367861886  C 116.149874187461 121.115537848606  121.195481232963 123.33598937583  131.286695323967 124.950863213811  C 134.919532396729 125.556440903055  139.359666596771 125.96015936255  144.607097924093 126.162018592298  C 144.607097924093 126.162018592298  150.056353533235 117.885790172643  151.670947787796 99.5166002656042  C 152.074596351436 94.4701195219123  152.881893478717 73.2749003984064  148.441759278675 69.6414342629482  Z M 54.997116795974 84.1752988047809  C 61.0518452505766 80.7436918990704  74.3722478507024 76.3027888446215  74.3722478507024 76.3027888446215  L 74.9932455910406 76.1475124940919  L 75.3813692598029 76.3027888446215  L 75.1795449779828 75.2934926958831  C 75.1795449779828 75.2934926958831  70.7394107779409 62.9800796812749  67.3083979869994 56.9243027888446  C 67.3083979869994 56.9243027888446  58.6299538687356 40.3718459495352  41.8785384776683 33.5086321381142  C 36.0256343048857 31.0863213811421  30.7782029775634 28.6640106241699  20.8888131683791 27.2509960159362  C 17.2559760956176 26.6454183266932  12.8158418955756 26.2416998671979  7.5684105682533 26.0398406374502  C 7.5684105682533 26.0398406374502  2.11915495911094 34.3160690571049  0.504560704550197 52.6852589641434  C 0.100912140910039 57.7317397078353  -0.706384986370276 78.9269588313413  3.73374921367157 82.5604249667994  C 7.16476200461315 85.1845949535192  13.4213147410358 78.1195219123506  24.9252988047809 73.2749003984064  C 32.1909729503041 70.2470119521912  41.273065632208 67.2191235059761  55.4007653596142 69.2377158034528  C 62.060966659677 70.2470119521912  68.5193436779199 72.265604249668  74.3722478507024 75.8990703851262  L 74.7745309893867 76.0600115118815  C 47.3167702375619 73.3183747188611  25.672422046585 77.7503354312467  13.4213147410358 84.780876494024  C 6.35746487733272 88.8180610889774  1.11003355001043 93.2589641434263  0.908209268190355 97.2961487383798  C -1.11003355001043 119.702523240372  14.6322604319564 137.26427622842  14.6322604319564 137.26427622842  C 19.4760431956385 134.6401062417  22.90705598658 132.01593625498  25.127123086601 130.602921646746  C 26.5398930593415 120.509960159363  28.9617844411826 115.463479415671  31.3836758230237 109.609561752988  C 38.4475256867268 92.6533864541832  54.997116795974 84.1752988047809  54.997116795974 84.1752988047809  Z " fill-rule="nonzero" fill="#ffffff" stroke="none" transform="matrix(1 0 0 1 0 -94 )" />
  </g>
</svg>