<?xml version="1.0" encoding="utf-8"?>
<svg version="1.1" xmlns:xlink="http://www.w3.org/1999/xlink" width="73px" height="60px" xmlns="http://www.w3.org/2000/svg">
  <defs>
    <linearGradient gradientUnits="userSpaceOnUse" x1="57" y1="0.4" x2="0" y2="44" id="LinearGradient482">
      <stop id="Stop483" stop-color="#c7eab2" offset="0" />
      <stop id="Stop484" stop-color="#21e572" offset="1" />
    </linearGradient>
    <filter x="166px" y="61px" width="73px" height="60px" filterUnits="userSpaceOnUse" id="filter485">
      <feOffset dx="0" dy="2" in="SourceAlpha" result="shadowOffsetInner" />
      <feGaussianBlur stdDeviation="4" in="shadowOffsetInner" result="shadowGaussian" />
      <feComposite in2="shadowGaussian" operator="atop" in="SourceAlpha" result="shadowComposite" />
      <feColorMatrix type="matrix" values="0 0 0 0 0.215686274509804  0 0 0 0 0.709803921568627  0 0 0 0 0.305882352941176  0 0 0 0.27843137254902 0  " in="shadowComposite" />
    </filter>
    <g id="widget486">
      <path d="M 0 43.375  L 0 35  L 0 33.1107598295447  L 0 3  C 0 1.31999999999999  1.32000000000005 0  3 0  L 54 0  C 55.68 0  57 1.31999999999999  57 3  L 57 35  C 57 36.68  55.68 38  54 38  L 5.39999999999998 38  C 2.38773005323276 37.9999963923361  0 43.375  0 43.375  Z " fill-rule="nonzero" fill="url(#LinearGradient482)" stroke="none" transform="matrix(1 0 0 1 174 67 )" />
    </g>
  </defs>
  <g transform="matrix(1 0 0 1 -166 -61 )">
    <use xlink:href="#widget486" filter="url(#filter485)" />
    <use xlink:href="#widget486" />
  </g>
</svg>