<?xml version="1.0" encoding="utf-8"?>
<svg version="1.1" xmlns:xlink="http://www.w3.org/1999/xlink" width="14px" height="14px" xmlns="http://www.w3.org/2000/svg">
  <g transform="matrix(1 0 0 1 -119 -114 )">
    <path d="M 126 115  C 129.36 115  132 117.64  132 121  C 132 124.36  129.36 127  126 127  C 122.64 127  120 124.36  120 121  C 120 117.64  122.64 115  126 115  Z " fill-rule="nonzero" fill="#ffffff" stroke="none" />
    <path d="M 126 115  C 129.36 115  132 117.64  132 121  C 132 124.36  129.36 127  126 127  C 122.64 127  120 124.36  120 121  C 120 117.64  122.64 115  126 115  Z " stroke-width="2" stroke="#01c374" fill="none" />
  </g>
</svg>