<?xml version="1.0" encoding="utf-8"?>
<svg version="1.1" xmlns:xlink="http://www.w3.org/1999/xlink" width="14px" height="14px" xmlns="http://www.w3.org/2000/svg">
  <g transform="matrix(1 0 0 1 -167 -114 )">
    <path d="M 174 115  C 177.36 115  180 117.64  180 121  C 180 124.36  177.36 127  174 127  C 170.64 127  168 124.36  168 121  C 168 117.64  170.64 115  174 115  Z " fill-rule="nonzero" fill="#ffffff" stroke="none" />
    <path d="M 174 115  C 177.36 115  180 117.64  180 121  C 180 124.36  177.36 127  174 127  C 170.64 127  168 124.36  168 121  C 168 117.64  170.64 115  174 115  Z " stroke-width="2" stroke="#ffc100" fill="none" />
  </g>
</svg>