<?xml version="1.0" encoding="utf-8"?>
<svg version="1.1" xmlns:xlink="http://www.w3.org/1999/xlink" width="65px" height="104px" xmlns="http://www.w3.org/2000/svg">
  <defs>
    <mask fill="white" id="clip1945">
      <path d="M 10 0  C 10 0  55 0  55 0  C 60.5228474983078 0  65 4.49878125773881  65 10.048309178744  C 65 10.048309178744  65 47.1025210587267  65 47.1025210587267  C 65 49.0698622042713  64.0447341318095 50.9134623691233  62.44077406618 52.0416584346097  C 62.44077406618 52.0416584346097  52.55922593382 58.9921579905111  52.55922593382 58.9921579905111  C 50.9552658681905 60.1203540559975  50 61.9639542208495  50 63.9312953663941  C 50 63.9312953663941  50 98.975845410628  50 98.975845410628  C 50 101.75060937113  47.7614237491539 104  45 104  C 45 104  20 104  20 104  C 17.2385762508461 104  15 101.75060937113  15 98.975845410628  C 15 98.975845410628  15 63.9312953663941  15 63.9312953663941  C 15 61.9639542208495  14.0447341318095 60.1203540559975  12.44077406618 58.9921579905111  C 12.44077406618 58.9921579905111  2.55922593382002 52.0416584346097  2.55922593382002 52.0416584346097  C 0.955265868190509 50.9134623691233  0 49.0698622042713  0 47.1025210587267  C 0 47.1025210587267  0 10.048309178744  0 10.048309178744  C 0 4.49878125773881  4.47715250169222 0  10 0  Z " fill-rule="evenodd" />
    </mask>
  </defs>
  <g transform="matrix(1 0 0 1 111 -63 )">
    <path d="M 10 0  C 10 0  55 0  55 0  C 60.5228474983078 0  65 4.49878125773881  65 10.048309178744  C 65 10.048309178744  65 47.1025210587267  65 47.1025210587267  C 65 49.0698622042713  64.0447341318095 50.9134623691233  62.44077406618 52.0416584346097  C 62.44077406618 52.0416584346097  52.55922593382 58.9921579905111  52.55922593382 58.9921579905111  C 50.9552658681905 60.1203540559975  50 61.9639542208495  50 63.9312953663941  C 50 63.9312953663941  50 98.975845410628  50 98.975845410628  C 50 101.75060937113  47.7614237491539 104  45 104  C 45 104  20 104  20 104  C 17.2385762508461 104  15 101.75060937113  15 98.975845410628  C 15 98.975845410628  15 63.9312953663941  15 63.9312953663941  C 15 61.9639542208495  14.0447341318095 60.1203540559975  12.44077406618 58.9921579905111  C 12.44077406618 58.9921579905111  2.55922593382002 52.0416584346097  2.55922593382002 52.0416584346097  C 0.955265868190509 50.9134623691233  0 49.0698622042713  0 47.1025210587267  C 0 47.1025210587267  0 10.048309178744  0 10.048309178744  C 0 4.49878125773881  4.47715250169222 0  10 0  Z " fill-rule="nonzero" fill="#ffffff" stroke="none" transform="matrix(1 0 0 1 -111 63 )" />
    <path d="M 10 0  C 10 0  55 0  55 0  C 60.5228474983078 0  65 4.49878125773881  65 10.048309178744  C 65 10.048309178744  65 47.1025210587267  65 47.1025210587267  C 65 49.0698622042713  64.0447341318095 50.9134623691233  62.44077406618 52.0416584346097  C 62.44077406618 52.0416584346097  52.55922593382 58.9921579905111  52.55922593382 58.9921579905111  C 50.9552658681905 60.1203540559975  50 61.9639542208495  50 63.9312953663941  C 50 63.9312953663941  50 98.975845410628  50 98.975845410628  C 50 101.75060937113  47.7614237491539 104  45 104  C 45 104  20 104  20 104  C 17.2385762508461 104  15 101.75060937113  15 98.975845410628  C 15 98.975845410628  15 63.9312953663941  15 63.9312953663941  C 15 61.9639542208495  14.0447341318095 60.1203540559975  12.44077406618 58.9921579905111  C 12.44077406618 58.9921579905111  2.55922593382002 52.0416584346097  2.55922593382002 52.0416584346097  C 0.955265868190509 50.9134623691233  0 49.0698622042713  0 47.1025210587267  C 0 47.1025210587267  0 10.048309178744  0 10.048309178744  C 0 4.49878125773881  4.47715250169222 0  10 0  Z " stroke-width="2" stroke="#b3b3b3" fill="none" transform="matrix(1 0 0 1 -111 63 )" mask="url(#clip1945)" />
  </g>
</svg>