<?xml version="1.0" encoding="utf-8"?>
<svg version="1.1" xmlns:xlink="http://www.w3.org/1999/xlink" width="70px" height="169px" xmlns="http://www.w3.org/2000/svg">
  <defs>
    <mask fill="white" id="clip154">
      <path d="M 70 93.5  C 70 106.392949917911  63.2397599325524 117.442197999244  53 123.366756608649  L 53 151.5  C 53 161.3  45.3 169  35.5 169  L 34.5 169  C 24.7 169  17 161.3  17 151.5  L 17 123.366756605279  C 6.76024006744763 117.442197999244  0 106.392949917911  0 93.5  L 0 34.5  C 0 15.18  15.18 0  34.5 0  L 35.5 0  C 54.82 0  70 15.18  70 34.5  L 70 93.5  Z " fill-rule="evenodd" />
    </mask>
  </defs>
  <g transform="matrix(1 0 0 1 -68 -241 )">
    <path d="M 70 93.5  C 70 106.392949917911  63.2397599325524 117.442197999244  53 123.366756608649  L 53 151.5  C 53 161.3  45.3 169  35.5 169  L 34.5 169  C 24.7 169  17 161.3  17 151.5  L 17 123.366756605279  C 6.76024006744763 117.442197999244  0 106.392949917911  0 93.5  L 0 34.5  C 0 15.18  15.18 0  34.5 0  L 35.5 0  C 54.82 0  70 15.18  70 34.5  L 70 93.5  Z " fill-rule="nonzero" fill="#ffffff" stroke="none" fill-opacity="0" transform="matrix(1 0 0 1 68 241 )" />
    <path d="M 70 93.5  C 70 106.392949917911  63.2397599325524 117.442197999244  53 123.366756608649  L 53 151.5  C 53 161.3  45.3 169  35.5 169  L 34.5 169  C 24.7 169  17 161.3  17 151.5  L 17 123.366756605279  C 6.76024006744763 117.442197999244  0 106.392949917911  0 93.5  L 0 34.5  C 0 15.18  15.18 0  34.5 0  L 35.5 0  C 54.82 0  70 15.18  70 34.5  L 70 93.5  Z " stroke-width="16" stroke="#ffffff" fill="none" transform="matrix(1 0 0 1 68 241 )" mask="url(#clip154)" />
  </g>
</svg>