<?xml version="1.0" encoding="utf-8"?>
<svg version="1.1" xmlns:xlink="http://www.w3.org/1999/xlink" width="20px" height="18px" xmlns="http://www.w3.org/2000/svg">
  <g transform="matrix(1 0 0 1 -12 -10 )">
    <path d="M 5.18003570507778 15.8302040848214  C 5.18003570507778 17.0930612276786  5.87067856835972 17.8775510267858  7.15964286328165 17.8775510267858  C 7.15964286328165 17.8775510267858  12.8403571367184 17.8775510267858  12.8403571367184 17.8775510267858  C 14.1297142734371 17.8775510267858  14.8203571367191 17.0930612276786  14.8203571367191 15.8302040848214  C 14.8203571367191 15.8302040848214  14.8203571367191 11.5444897991071  14.8203571367191 11.5444897991071  C 14.8203571367191 11.5444897991071  18.5678214316404 11.5444897991071  18.5678214316404 11.5444897991071  C 19.3134642949223 11.5444897991071  19.9027500000003 11.0661224553571  19.9027500000003 10.3391836830358  C 19.9027500000003 9.88979593750017  19.6906071367196 9.55469388392859  19.3503928632816 9.21061225446439  C 19.3503928632816 9.21061225446439  11.137321431641 0.706122455357217  11.137321431641 0.706122455357217  C 10.7872857265629 0.333061227678627  10.4097499999997 0.122448995535835  10.0047142949217 0.122448973214237  C 9.59025000000031 0.122448973214237  9.22214286328165 0.333061227678627  8.862678568359 0.706122455357217  C 8.862678568359 0.706122455357217  0.64999999999975 9.21061225446439  0.64999999999975 9.21061225446439  C 0.300357136718503 9.57387756696439  0.0976428632810666 9.88979593750017  0.0976428632810666 10.3391836830358  C 0.0976428632810666 11.0665306250001  0.686928568359122 11.5444897991071  1.44199999999978 11.5444897991071  C 1.44199999999978 11.5444897991071  5.18003570507778 11.5444897991071  5.18003570507778 11.5444897991071  C 5.18003570507778 11.5444897991071  5.18003570507778 15.8302040848214  5.18003570507778 15.8302040848214  Z " fill-rule="nonzero" fill="#000000" stroke="none" transform="matrix(1 0 0 1 12 10 )" />
  </g>
</svg>