<?xml version="1.0" encoding="utf-8"?>
<svg version="1.1" xmlns:xlink="http://www.w3.org/1999/xlink" width="28px" height="16px" xmlns="http://www.w3.org/2000/svg">
  <g transform="matrix(1 0 0 1 -334 -193 )">
    <path d="M 0.203285046690326 7.50666666728256  C 0.203285046690326 7.50666666728256  6.65063206175364 0.395555571993578  6.65063206175364 0.395555571993578  C 6.87492258938255 0.148382483965922  7.25235398899167 -4.44546539610907E-05  7.65648107258494 0  C 7.65648107258494 0  26.7910468638902 0  26.7910468638902 0  C 27.4587332442243 0  28 0.397969123861197  28 0.888888904711014  C 28 0.888888904711014  28 15.1111110952876  28 15.1111110952876  C 28 15.6020308761374  27.4587332442243 15.9999999900115  26.7910468638902 15.9999999900115  C 26.7910468638902 15.9999999900115  7.65648107258494 15.9999999900124  7.65648107258494 15.9999999900124  C 7.25235398899167 16.000044454654  6.87492258938255 15.8516175160341  6.65063206175364 15.604444428006  C 6.65063206175364 15.604444428006  0.203285046690326 8.49333333271744  0.203285046690326 8.49333333271744  C -0.0677616822304117 8.19463389256528  -0.0677616822304117 7.80536610743427  0.203285046690326 7.50666666728256  Z M 20 5.33396183875369  L 18.6660381866695 4.00000000499335  L 16.0000000110476 6.6669809138528  L 13.3339618133305 4.00000000499335  L 12 5.33396183875369  L 14.6669809121886 8.00000001104718  L 12 10.6660381833407  L 13.3339618133305 12.000000017101  L 16.0000000110476 9.33301910824155  L 18.6660381866695 12.000000017101  L 20 10.6660381833407  L 17.3330190878114 8.00000001104718  L 20 5.33396183875369  Z " fill-rule="nonzero" fill="#000000" stroke="none" transform="matrix(1 0 0 1 334 193 )" />
  </g>
</svg>