<?xml version="1.0" encoding="utf-8"?>
<svg version="1.1" xmlns:xlink="http://www.w3.org/1999/xlink" width="144px" height="89px" xmlns="http://www.w3.org/2000/svg">
  <g transform="matrix(1 0 0 1 -32 -263 )">
    <path d="M 97.1006599168356 80  C 122.01704031821 62.5862932473732  135 41.3526754018804  135 41.3526754018804  C 106.524136684144 9.21656289387345  93.9784849032725 2.65487629143438  93.9784849032725 2.65487629143438  C 83.133248960405 -2.89732006447561  77.368920629181 1.982555787246  77.368920629181 1.982555787246  C 74.3179352739107 4.50628140356872  69.1943138672935 5.34819626917398  67.5 5.34819626917398  C 65.8056861327066 5.34819626917398  60.6820647260893 4.50628140356872  57.631079370819 1.982555787246  C 57.631079370819 1.982555787246  51.8687850298319 -2.89732006447561  41.0194811064907 2.65487629143438  C 41.0194811064907 2.65487629143438  28.4758633158561 9.21656289387345  0 41.3526754018804  C 0 41.3526754018804  12.2181793527396 63.3676386981868  27.1232598083534 77.6721154915039  " stroke-width="8" stroke="#ffffff" fill="none" transform="matrix(1 0 0 1 36 267 )" />
  </g>
</svg>