<?xml version="1.0" encoding="utf-8"?>
<svg version="1.1" xmlns:xlink="http://www.w3.org/1999/xlink" width="60px" height="75px" xmlns="http://www.w3.org/2000/svg">
  <defs>
    <mask fill="white" id="clip172">
      <path d="M 29.9990341979672 75  C 62.2606706574841 75  59.9643395159448 15.5242289762399  59.9643395159448 15.5242289762399  C 58.4186544066134 -9.25819111295486  29.9990341979672 3.06273586603816  29.9990341979672 3.06273586603816  C 29.9990341979672 3.06273586603816  1.57941398932104 -9.25615392264748  0.0357467456676481 15.5242289762399  C 0.0357467456676481 15.5242289762399  -2.26260226154962 75  29.9990341979672 75  Z " fill-rule="evenodd" />
    </mask>
  </defs>
  <g transform="matrix(1 0 0 1 -74 -309 )">
    <path d="M 29.9990341979672 75  C 62.2606706574841 75  59.9643395159448 15.5242289762399  59.9643395159448 15.5242289762399  C 58.4186544066134 -9.25819111295486  29.9990341979672 3.06273586603816  29.9990341979672 3.06273586603816  C 29.9990341979672 3.06273586603816  1.57941398932104 -9.25615392264748  0.0357467456676481 15.5242289762399  C 0.0357467456676481 15.5242289762399  -2.26260226154962 75  29.9990341979672 75  Z " fill-rule="nonzero" fill="#ffffff" stroke="none" fill-opacity="0" transform="matrix(1 0 0 1 74 309 )" />
    <path d="M 29.9990341979672 75  C 62.2606706574841 75  59.9643395159448 15.5242289762399  59.9643395159448 15.5242289762399  C 58.4186544066134 -9.25819111295486  29.9990341979672 3.06273586603816  29.9990341979672 3.06273586603816  C 29.9990341979672 3.06273586603816  1.57941398932104 -9.25615392264748  0.0357467456676481 15.5242289762399  C 0.0357467456676481 15.5242289762399  -2.26260226154962 75  29.9990341979672 75  Z " stroke-width="16" stroke="#ffffff" fill="none" transform="matrix(1 0 0 1 74 309 )" mask="url(#clip172)" />
  </g>
</svg>