<?xml version="1.0" encoding="utf-8"?>
<svg version="1.1" xmlns:xlink="http://www.w3.org/1999/xlink" width="108px" height="28px" xmlns="http://www.w3.org/2000/svg">
  <g transform="matrix(1 0 0 1 -10 -151 )">
    <path d="M 10.5 153  A 1.5 1.5 0 0 1 12 151.5 L 116 151.5  A 1.5 1.5 0 0 1 117.5 153 L 117.5 177  A 1.5 1.5 0 0 1 116 178.5 L 12 178.5  A 1.5 1.5 0 0 1 10.5 177 L 10.5 153  Z " fill-rule="nonzero" fill="#333333" stroke="none" />
    <path d="M 10.5 153  A 1.5 1.5 0 0 1 12 151.5 L 116 151.5  A 1.5 1.5 0 0 1 117.5 153 L 117.5 177  A 1.5 1.5 0 0 1 116 178.5 L 12 178.5  A 1.5 1.5 0 0 1 10.5 177 L 10.5 153  Z " stroke-width="1" stroke="#333333" fill="none" />
  </g>
</svg>