<?xml version="1.0" encoding="utf-8"?>
<svg version="1.1" xmlns:xlink="http://www.w3.org/1999/xlink" width="108px" height="28px" xmlns="http://www.w3.org/2000/svg">
  <g transform="matrix(1 0 0 1 -128 -151 )">
    <path d="M 129 153  A 1 1 0 0 1 130 152 L 234 152  A 1 1 0 0 1 235 153 L 235 177  A 1 1 0 0 1 234 178 L 130 178  A 1 1 0 0 1 129 177 L 129 153  Z " fill-rule="nonzero" fill="#333333" stroke="none" />
    <path d="M 128.5 153  A 1.5 1.5 0 0 1 130 151.5 L 234 151.5  A 1.5 1.5 0 0 1 235.5 153 L 235.5 177  A 1.5 1.5 0 0 1 234 178.5 L 130 178.5  A 1.5 1.5 0 0 1 128.5 177 L 128.5 153  Z " stroke-width="1" stroke="#dddddd" fill="none" stroke-opacity="0.349019607843137" />
  </g>
</svg>