<?xml version="1.0" encoding="utf-8"?>
<svg version="1.1" xmlns:xlink="http://www.w3.org/1999/xlink" width="63px" height="63px" xmlns="http://www.w3.org/2000/svg">
  <g transform="matrix(1 0 0 1 -233 -19 )">
    <path d="M 34.8 22.8  L 35.3 24  L 36.2 23.5  L 40.4 30.7  L 39.5 31.4  L 40.4 32.4  C 41.6 31.5  42.7 30.5  43.8 29.6  L 44.9 31.5  L 46 30.9  L 44.8 28.8  L 45.7 28  L 45 26.8  C 44.7 27.1  44.4 27.4  44.1 27.6  L 40.4 21.1  L 41.1 20.7  L 41.5 21.4  L 42 21.1  C 43.3 23  44.9 24.5  46.7 25.7  C 46.7 27.1  46.4 28.4  45.9 29.7  L 47.2 30.1  C 47.7 28.9  47.9 27.7  48 26.4  C 49 26.9  50.1 27.4  51.3 27.7  L 51.6 26.4  C 50.3 26.1  49.1 25.6  48 25  C 47.9 23  47.3 20.8  46.4 18.5  L 45.8 17.4  L 41 20.1  L 40.6 19.4  L 34.8 22.8  Z M 43 20.5  L 45.3 19.2  C 46 20.9  46.5 22.6  46.6 24.2  C 45.3 23.2  44.1 22  43 20.5  Z M 42.3 26.9  L 43.1 28.4  C 42.6 28.9  42 29.4  41.4 29.8  L 40.4 28  L 42.3 26.9  Z M 38.9 25.5  L 40.8 24.4  L 41.7 26  L 39.8 27.1  L 38.9 25.5  Z M 37.3 22.8  L 39.2 21.7  L 40.1 23.3  L 38.2 24.4  L 37.3 22.8  Z M 29.2 30.7  L 29.5 29.5  C 28.1 28.9  26.8 28.3  25.4 27.9  L 24.5 28.4  C 24.5 30.1  24.4 31.8  24.1 33.2  L 25.3 33.7  C 25.6 32.2  25.7 30.6  25.7 29.1  C 26.6 29.4  27.7 30  29.2 30.7  Z M 29.5 36.4  C 29.1 36.4  28.6 36.3  28.1 36.2  L 27.8 37.4  C 29.7 37.7  31.2 38.1  32.4 38.6  L 32.7 37.3  C 32.1 37.1  31.5 36.9  30.8 36.7  C 31 35.5  31 34.2  30.9 32.9  L 30.3 31.9  L 25.8 34.5  L 26.4 35.6  L 29.6 33.7  C 29.6 34.7  29.6 35.6  29.5 36.4  Z M 39.1 34.8  L 39.4 33.5  C 38.4 33.1  37.4 32.9  36.2 32.6  L 35.9 33.8  C 37.2 34.1  38.3 34.4  39.1 34.8  Z M 26.1 31.7  C 26.9 32.1  27.7 32.5  28.3 32.9  L 28.8 31.8  C 28.2 31.4  27.5 31.1  26.6 30.7  L 26.1 31.7  Z M 33.3 28.9  L 32.3 29.5  L 33.5 31.6  C 34 32.6  34.3 33.6  34.3 34.4  C 34.3 35.2  33.9 36.1  33.1 37  L 34.3 37.6  C 35.1 36.6  35.5 35.6  35.6 34.6  C 35.6 33.5  35.3 32.3  34.5 31  L 33.3 28.9  Z M 36.7 32.5  L 37.8 31.8  L 34.4 26  L 32.2 27.3  C 32.1 26.9  31.9 26.5  31.8 26.1  L 34.1 24.8  L 33.5 23.7  L 27.6 27  L 28.2 28.1  L 30.6 26.7  C 30.8 27.1  30.9 27.5  31 27.9  L 29.3 28.9  L 32.8 34.9  L 33.9 34.2  L 31.1 29.3  L 33.9 27.7  L 36.7 32.5  Z M 25.6 42  C 26.1 41.7  26.4 41.4  26.5 40.9  C 26.6 40.5  26.3 39.4  25.5 37.8  L 24.2 38.1  C 24.9 39.4  25.2 40.2  25.1 40.5  C 25 40.7  24.9 40.9  24.6 41.1  L 18.5 44.6  C 18 44.9  17.7 44.8  17.4 44.3  L 15.6 41  L 23.1 36.7  L 20.2 31.6  L 11 36.8  L 11.6 37.9  L 19.6 33.3  L 21.3 36.2  L 15 39.9  L 14 38.2  L 12.8 38.9  L 16.4 45.2  C 17 46.3  17.8 46.5  18.9 45.9  L 25.6 42  Z M 23 18.2  C 18.7 20.7  15.9 24.9  15.2 29.9  L 16.2 30  C 16.8 25.4  19.5 21.4  23.5 19.1  C 27.5 16.8  32.3 16.4  36.6 18.2  L 37 17.3  C 32.4 15.4  27.3 15.8  23 18.2  Z M 39 45.8  C 43.3 43.3  46.1 39  46.8 34.1  L 45.8 34  C 45.2 38.6  42.5 42.6  38.5 44.9  C 34.5 47.2  29.7 47.5  25.4 45.8  L 25 46.7  C 27 47.5  29 47.9  31.1 47.9  C 33.8 47.9  36.6 47.2  39 45.8  Z M 44.1 54.7  C 56.6 47.5  60.9 31.4  53.7 18.9  C 46.5 6.39999999999998  30.4 2.10000000000002  17.9 9.30000000000001  C 5.39999999999998 16.5  1.10000000000002 32.6  8.29999999999995 45.1  C 13.2 53.5  22 58.2  31 58.2  C 35.4 58.2  39.9 57.1  44.1 54.7  Z M 52.9 19.4  C 59.8 31.4  55.7 46.9  43.6 53.8  C 31.6 60.8  16.1 56.6  9.20000000000005 44.6  C 2.20000000000005 32.6  6.39999999999998 17.1  18.4 10.2  C 22.4 7.89999999999998  26.7 6.80000000000001  31 6.80000000000001  C 39.7 6.80000000000001  48.2 11.3  52.9 19.4  Z M 46.5 58.9  C 61.3 50.3  66.4 31.3  57.9 16.5  C 49.3 1.69999999999999  30.3 -3.39999999999998  15.5 5.10000000000002  C 8.29999999999995 9.30000000000001  3.20000000000005 16  1.10000000000002 24  C -1 32  0.100000000000023 40.4  4.20000000000005 47.5  C 9.89999999999998 57.4  20.3 63  31.1 63  C 36.4 63  41.7 61.7  46.5 58.9  Z M 56.2 17.5  C 64.1 31.3  59.4 49.1  45.5 57.1  C 31.7 65.1  13.9 60.3  5.89999999999998 46.5  C 2 39.8  1 32  3 24.5  C 5 17  9.79999999999995 10.8  16.5 6.89999999999998  C 21.1 4.19999999999999  26 3  31 3  C 41 3  50.8 8.19999999999999  56.2 17.5  Z M 53 37.5  L 51.4 36.9  L 50.9 35.3  L 49.9 36.7  L 48.2 36.6  L 49.2 38  L 48.6 39.6  L 50.2 39.1  L 51.6 40.1  L 51.6 38.4  L 53 37.5  Z M 34.6 12.8  L 34 14.4  L 35.6 13.9  L 37 14.9  L 37 13.2  L 38.4 12.2  L 36.8 11.7  L 36.3 10.1  L 35.3 11.4  L 33.6 11.4  L 34.6 12.8  Z M 49.2 43.2  L 47.5 43.3  L 46.5 41.9  L 46 43.5  L 44.4 44.1  L 45.8 45  L 45.8 46.7  L 47.2 45.7  L 48.8 46.2  L 48.2 44.6  L 49.2 43.2  Z M 27.4 13.1  L 27.4 14.8  L 28.7 13.8  L 30.4 14.3  L 29.8 12.7  L 30.8 11.3  L 29.1 11.3  L 28.1 10  L 27.6 11.6  L 26 12.1  L 27.4 13.1  Z M 10.5 28.3  L 12.1 27.6  L 13.6 28.4  L 13.3 26.7  L 14.6 25.6  L 12.9 25.3  L 12.2 23.7  L 11.4 25.2  L 9.70000000000005 25.4  L 10.9 26.7  L 10.5 28.3  Z M 35.4 51  L 35.3 49.3  L 34 50.5  L 32.4 50.1  L 33 51.6  L 32.1 53.1  L 33.8 52.9  L 34.9 54.2  L 35.3 52.5  L 36.9 51.9  L 35.4 51  Z M 13.7 21.1  L 15.4 21  L 16.5 22.3  L 16.9 20.6  L 18.5 20  L 17 19.1  L 16.9 17.4  L 15.6 18.5  L 13.9 18.1  L 14.6 19.7  L 13.7 21.1  Z M 42.6 49.5  L 43 47.9  L 41.4 48.5  L 40 47.6  L 40.1 49.3  L 38.8 50.3  L 40.4 50.8  L 41 52.4  L 41.9 50.9  L 43.6 50.9  L 42.6 49.5  Z M 18.6 15.5  L 20.3 15.9  L 20.9 17.5  L 21.8 16  L 23.5 16  L 22.4 14.7  L 22.9 13  L 21.3 13.6  L 19.9 12.7  L 20 14.4  L 18.6 15.5  Z " fill-rule="nonzero" fill="#bbbbbb" stroke="none" transform="matrix(1 0 0 1 233 19 )" />
  </g>
</svg>