<?xml version="1.0" encoding="utf-8"?>
<svg version="1.1" xmlns:xlink="http://www.w3.org/1999/xlink" width="105px" height="80px" xmlns="http://www.w3.org/2000/svg">
  <g transform="matrix(1 0 0 1 -10 -10 )">
    <path d="M 104 80  L 1.00000259221133 80  L 0.999991283198938 74.9037150104439  C 3.30644824414719 74.4514521257302  5 72.4566649386632  5 70  C 5 67.5433291055506  3.30644003265343 65.5485382021957  0.999974508269361 65.0962817005901  L 0.999965626768699 59.9037200412305  C 3.30643568504865 59.4514669187068  5 57.4566740477559  5 55  C 5 52.5433226300211  3.30643110454514 50.5485276860754  0.999948851898807 50.0963159538414  L 0.999939970345395 44.9037250718787  C 3.30642312593181 44.4514817116376  5 42.4566831568281  5 40  C 5 37.5433130912569  3.3064179529722 35.5485121953395  0.999923195449924 35.0963045145289  L 0.99991431392391 29.9037301023893  C 3.30641056679406 29.4514965045254  5 27.4566922658817  5 25  C 5 22.5432614084171  3.30634669435972 20.5484282638271  1.00000259221133 20.095128438146  L 1.00000281685493 14.9037127488467  C 3.3064538899888 14.4514454756447  5 12.4566608437329  5 10  C 5 7.54330852761854  3.30641166083694 5.54850478409969  1 5.09584471684576  L 1 0  L 104 0  L 104 80  Z " fill-rule="nonzero" fill="#ffffff" stroke="none" transform="matrix(1 0 0 1 10 10 )" />
  </g>
</svg>