<?xml version="1.0" encoding="utf-8"?>
<svg version="1.1" xmlns:xlink="http://www.w3.org/1999/xlink" width="24px" height="18px" xmlns="http://www.w3.org/2000/svg">
  <g transform="matrix(1 0 0 1 -301 -178 )">
    <path d="M 19.6575395343017 6.12309020204381  C 19.7956486223144 6.0043372464425  19.7956486223144 5.81221628707451  19.6575395339355 5.69390713487022  L 18.7021396472168 4.87032130967495  C 18.6360828705638 4.81353339502729  18.5463480464123 4.78164915447536  18.4527911502685 4.78172373863003  C 18.3582294726561 4.78172373863003  18.2687365360107 4.81351420333425  18.2029521313476 4.87032130967495  L 14.853833935913 7.7074984373605  L 11.5042524364013 4.87032130998884  C 11.4381958367334 4.81351889596678  11.3484454229673 4.7816326004336  11.2548766918944 4.78172373863003  C 11.1611768287157 4.78172310922932  11.0713042808725 4.81358663898052  11.0049831771239 4.87032130967495  L 10.0496650338134 5.69390713487022  C 9.91158319372551 5.81221628707451  9.91158319372551 6.00433724675642  10.0496650334472 6.12311355740795  L 13.4121090769042 8.98906797541159  L 10.0585489321288 11.8552793021066  C 9.99172898657218 11.912109738072  9.95513063378894 11.9892617722516  9.95513060339363 12.0698708356934  C 9.95513060339363 12.1513207945731  9.99172895654294 12.2276319336286  10.0585489321288 12.2844623953334  L 11.0149571121824 13.1072073244629  C 11.0837118991698 13.1665838024204  11.1737226060791 13.1962486728516  11.2642510828857 13.1962486728516  C 11.3547795596924 13.1962486728516  11.4453353151854 13.1665838021066  11.5136813532714 13.1072073244629  L 14.853833935913 10.2352732169363  L 18.1935504620361 13.1072073244629  C 18.2618147270506 13.1665838024204  18.3523704818115 13.1962486728516  18.4433894813232 13.1962486728516  C 18.5339179881591 13.1962486728516  18.623492668579 13.1665838021066  18.6922747335204 13.1072073244629  L 19.6486829135742 12.2844623953334  C 19.715477204535 12.2277638389825  19.7529056656668 12.1504466436772  19.752564486328 12.0698708356934  C 19.752564486328 11.9892851276158  19.7159661331787 11.9121097377581  19.6486829135742 11.8552793021066  L 16.2955860135497 8.98904459399415  L 19.6575395343017 6.12309020204381  Z M 24 2.42289865942385  C 23.930046003296 1.77064503693495  23.6831228708496 1.17396050756832  23.1542587807618 0.720578364571651  C 22.6253674434815 0.267242932617222  21.9519357608642 0.0301808505510905  21.190455401001 0  L 10.0585761804199 0  C 8.61483476586909 0.0301808505510905  7.46197264233399 0.508976675746368  6.63130152941892 1.4784576400321  L 0.0810391102294261 8.98906797541159  L 6.63724229370121 16.4502290663714  L 6.64806100378428 16.4620716695382  L 6.65898873559581 16.4731200879952  C 7.06911931127934 16.9243766367187  7.51587551843261 17.2729506404506  8.02457372460924 17.5130259483817  C 8.62619852453622 17.797178127581  9.31044894689944 17.9532340786481  10.0585489321288 18  L 21.1983855029298 18  C 22.7534208522949 17.953234078962  23.9300187249755 16.8200590370047  24 15.4587447126814  L 24 2.42289865942385  Z M 22 2.42373955486192  L 22 15.4587213309501  C 22.0296289423827 15.9090902735072  21.7228621691894 16.3246788805455  21.1978949805908 16  L 10.0585761804199 16  C 9.15756969140614 16.3246789065988  8.61333595056158 15.9854481490304  8.15815911950676 15.4850460007324  L 2.45641738476559 8.99240820242744  L 8.15815911950676 2.45214310818918  C 8.72217724328618 1.79017247680665  9.41536606018065 1.65992729997907  10.0585761804199 2  L 21.1686817111815 2  C 21.693185595337 1.65992729966516  22.029628942749 1.97379105970981  22 2.42373955486192  Z " fill-rule="nonzero" fill="#cccccc" stroke="none" transform="matrix(1 0 0 1 301 178 )" />
  </g>
</svg>