<?xml version="1.0" encoding="utf-8"?>
<svg version="1.1" xmlns:xlink="http://www.w3.org/1999/xlink" width="16px" height="12px" xmlns="http://www.w3.org/2000/svg">
  <defs>
    <mask fill="white" id="clip329">
      <path d="M 14 6  C 14 7.32789975113707  14.8246809200582 8.43088652407641  16 8.83482480332208  L 16 12  L 0 12  L 2.37283591104642E-05 8.83489383028444  C 1.1753190799418 8.43088652407641  2 7.32789975113707  2 6  C 2 4.67210024886293  1.1753190799418 3.56911347592359  0 3.16517519667798  L 0 0  L 16 0  L 15.9999762716409 3.16510616971556  C 14.8246809200582 3.56911347592359  14 4.67210024886293  14 6  Z " fill-rule="evenodd" />
    </mask>
  </defs>
  <g transform="matrix(1 0 0 1 -261 -16 )">
    <path d="M 14 6  C 14 7.32789975113707  14.8246809200582 8.43088652407641  16 8.83482480332208  L 16 12  L 0 12  L 2.37283591104642E-05 8.83489383028444  C 1.1753190799418 8.43088652407641  2 7.32789975113707  2 6  C 2 4.67210024886293  1.1753190799418 3.56911347592359  0 3.16517519667798  L 0 0  L 16 0  L 15.9999762716409 3.16510616971556  C 14.8246809200582 3.56911347592359  14 4.67210024886293  14 6  Z " fill-rule="nonzero" fill="#ffffff" stroke="none" fill-opacity="0" transform="matrix(1 0 0 1 261 16 )" />
    <path d="M 14 6  C 14 7.32789975113707  14.8246809200582 8.43088652407641  16 8.83482480332208  L 16 12  L 0 12  L 2.37283591104642E-05 8.83489383028444  C 1.1753190799418 8.43088652407641  2 7.32789975113707  2 6  C 2 4.67210024886293  1.1753190799418 3.56911347592359  0 3.16517519667798  L 0 0  L 16 0  L 15.9999762716409 3.16510616971556  C 14.8246809200582 3.56911347592359  14 4.67210024886293  14 6  Z " stroke-width="2" stroke="#ffffff" fill="none" transform="matrix(1 0 0 1 261 16 )" mask="url(#clip329)" />
  </g>
</svg>