<?xml version="1.0" encoding="utf-8"?>
<svg version="1.1" xmlns:xlink="http://www.w3.org/1999/xlink" width="20px" height="6px" xmlns="http://www.w3.org/2000/svg">
  <g transform="matrix(1 0 0 1 -236 -39 )">
    <path d="M 2 1  C 3.12 1  4 1.88  4 3  C 4 4.12  3.12 5  2 5  C 0.879999999999995 5  0 4.12  0 3  C 0 1.88  0.879999999999995 1  2 1  Z M 10 0  C 11.68 0  13 1.31999999999999  13 3  C 13 4.68000000000001  11.68 6  10 6  C 8.31999999999999 6  7 4.68000000000001  7 3  C 7 1.31999999999999  8.31999999999999 0  10 0  Z M 20 3  C 20 4.12  19.12 5  18 5  C 16.88 5  16 4.12  16 3  C 16 1.88  16.88 1  18 1  C 19.12 1  20 1.88  20 3  Z " fill-rule="nonzero" fill="#cccccc" stroke="none" transform="matrix(1 0 0 1 236 39 )" />
  </g>
</svg>