<?xml version="1.0" encoding="utf-8"?>
<svg version="1.1" xmlns:xlink="http://www.w3.org/1999/xlink" width="32px" height="20px" xmlns="http://www.w3.org/2000/svg">
  <g transform="matrix(1 0 0 1 -311 -40 )">
    <path d="M 24.0916125445312 6.91319104527065  C 24.2389289050782 6.78124331682477  24.2389289050782 6.56777558419367  24.0916125441406 6.43632097063335  L 23.0725193316407 5.52122560930525  C 23.0020587698775 5.45812792636343  22.9063416241158 5.42270099241682  22.8065476015624 5.42278386369981  C 22.7056818121093 5.42278386369981  22.6102226796875 5.45810660226005  22.5400526480469 5.52122560930525  L 18.96765990625 8.67364464006698  L 15.3947729734375 5.52122560965404  C 15.3243126004584 5.4581118162962  15.2285788257745 5.4226825990371  15.1287721792969 5.42278386369981  C 15.0288256585729 5.42278316436568  14.9329616075402 5.45818708631145  14.8622190968749 5.52122560930525  L 13.8432130773438 6.43632097063335  C 13.69592578125 6.56777558419367  13.69592578125 6.78124331717356  13.8432130769531 6.91321699567527  L 17.4298200566407 10.0976107934571  L 13.8526892355469 13.2822900453405  C 13.7814146269532 13.3454349741909  13.7423763839843 13.4311594566127  13.7423763515626 13.5207250826591  C 13.7423763515626 13.6112250369698  13.7814145949219 13.696015191476  13.8526892355469 13.7591601489257  L 14.8728579609374 14.6733211812918  C 14.9461964003906 14.7392950456891  15.0422078210938 14.7722560128349  15.1387715296876 14.7722560128349  C 15.2353352382813 14.7722560128349  15.3319280441406 14.7392950453404  15.4048304847656 14.6733211812918  L 18.96765990625 11.4822832840401  L 22.5300242007813 14.6733211812918  C 22.6028394167968 14.7392950456891  22.699432221875 14.7722560128349  22.7965191546875 14.7722560128349  C 22.8930828953125 14.7722560128349  22.9886292210938 14.7392950453404  23.0619967570312 14.6733211812918  L 24.0821654824219 13.7591601489257  C 24.1534127261134 13.6961617529803  24.1933364179874 13.6102537581967  24.1929724933593 13.5207250826591  C 24.1929724933593 13.4311854070173  24.15393425 13.3454349738421  24.0821654824219 13.2822900453405  L 20.5055287890625 10.0975848141044  L 24.0916125445312 6.91319104527065  Z M 32 2.69210962158206  C 31.9253824035156 1.96738337437216  31.6619977289063 1.3044005639648  31.0978760328126 0.800642627301841  C 30.5337252730469 0.296936591796907  29.8153981449218 0.0335342783901069  29.0031524277344 0  L 10.7291479257813 0  C 9.18915708359373 0.0335342783901069  7.95943748515629 0.565529639718193  7.07338829804689 1.64273071114678  L 0.0864417175780545 9.98785330601288  L 7.07972511328126 18.2780322959682  L 7.09126507070323 18.2911907439313  L 7.10292131796882 18.3034667644391  C 7.54039393203129 18.8048629296875  8.01693388632816 19.1921673782784  8.5595453062499 19.4589177204241  C 9.20127842617194 19.7746423639788  9.93114554335943 19.9480378651646  10.7291188609374 20  L 29.0116112031251 20  C 30.6703155757812 19.9480378655134  31.9253533066405 18.6889544855608  32 17.1763830140904  L 32 2.69210962158206  Z M 29.898270871875 2.69304394984658  L 29.898270871875 17.176357034389  C 29.898270871875 17.6767669705636  29.5710529804687 18.138532089495  29.0110879792969 18  L 10.7291479257813 18  C 9.76807433749991 18.1385321184431  9.18755834726562 17.7616090544782  8.70203639414058 17.2056066674804  L 2.62017854374994 9.99156466936381  L 8.70203639414058 2.72460345354352  C 9.30365572617188 1.98908052978516  10.0430571308593 1.8443636666434  10.7291479257813 2  L 28.9799271585937 2  C 29.5393979683595 1.84436366629461  29.8982708722656 2.19310117745533  29.898270871875 2.69304394984658  Z " fill-rule="nonzero" fill="#333333" stroke="none" transform="matrix(1 0 0 1 311 40 )" />
  </g>
</svg>