<?xml version="1.0" encoding="utf-8"?>
<svg version="1.1" xmlns:xlink="http://www.w3.org/1999/xlink" width="20px" height="20px" xmlns="http://www.w3.org/2000/svg">
  <g transform="matrix(1 0 0 1 -340 -32 )">
    <path d="M 2.10480586366951 0  L 5.78947369140626 0  L 5.78947369140626 2.1052631640625  L 2.1052631640625 2.10526316406329  L 2.1052631640625 5.78947369140625  L 0 5.78947369140625  L 0 2.1052631640625  L 0 0  L 2.10480586366951 0  Z M 5.78947369140626 20  L 5.78947369140626 17.8947368359375  L 2.1052631640625 17.8947368359367  L 2.1052631640625 14.2105263085937  L 0 14.2105263085937  L 0 17.8947368359375  L 0 20  L 2.10480586366951 20  L 5.78947369140626 20  Z M 14.2105263085937 17.8947368359375  L 17.8947368359375 17.8947368359367  L 17.8947368359375 14.2105263085937  L 20 14.2105263085937  L 20 17.8947368359375  L 20 20  L 17.8951941363305 20  L 14.2105263085937 20  L 14.2105263085937 17.8947368359375  Z M 17.8947368359375 5.78947369140625  L 20 5.78947369140625  L 20 2.1052631640625  L 20 0  L 17.8951941363305 0  L 14.2105263085937 0  L 14.2105263085937 2.1052631640625  L 17.8947368359375 2.10526316406329  L 17.8947368359375 5.78947369140625  Z M 20 9  L 20 11  L 0 11  L 0 9  L 20 9  Z " fill-rule="nonzero" fill="#424851" stroke="none" transform="matrix(1 0 0 1 340 32 )" />
  </g>
</svg>