<?xml version="1.0" encoding="utf-8"?>
<svg version="1.1" xmlns:xlink="http://www.w3.org/1999/xlink" width="85px" height="170px" xmlns="http://www.w3.org/2000/svg">
  <defs>
    <mask fill="white" id="clip1753">
      <path d="M 0.142769464861807 169.999887827055  C 0.0951898613877304 169.999962599952  0.0476000307004441 170  0.142769464861807 169.999887827055  Z M 75 85  C 75 43  42 10  0 10.0002786440558  L 0 0  C 47.6 0  85 37.4  85 85  C 85 132.5523999693  47.6747626481953 169.925189751743  0 169.999887749281  L 0 160  C 42 160  75 127  75 85  Z " fill-rule="evenodd" />
    </mask>
  </defs>
  <g>
    <path d="M 0.142769464861807 169.999887827055  C 0.0951898613877304 169.999962599952  0.0476000307004441 170  0.142769464861807 169.999887827055  Z M 75 85  C 75 43  42 10  0 10.0002786440558  L 0 0  C 47.6 0  85 37.4  85 85  C 85 132.5523999693  47.6747626481953 169.925189751743  0 169.999887749281  L 0 160  C 42 160  75 127  75 85  Z " fill-rule="nonzero" fill="#7bcfa4" stroke="none" />
    <path d="M 0.142769464861807 169.999887827055  C 0.0951898613877304 169.999962599952  0.0476000307004441 170  0.142769464861807 169.999887827055  Z " stroke-width="2" stroke="#7bcfa4" fill="none" mask="url(#clip1753)" />
    <path d="M 75 85  C 75 43  42 10  0 10.0002786440558  L 0 0  C 47.6 0  85 37.4  85 85  C 85 132.5523999693  47.6747626481953 169.925189751743  0 169.999887749281  L 0 160  C 42 160  75 127  75 85  Z " stroke-width="2" stroke="#7bcfa4" fill="none" mask="url(#clip1753)" />
  </g>
</svg>