<?xml version="1.0" encoding="utf-8"?>
<svg version="1.1" xmlns:xlink="http://www.w3.org/1999/xlink" width="80px" height="80px" xmlns="http://www.w3.org/2000/svg">
  <g transform="matrix(1 0 0 1 -216 0 )">
    <path d="M 256 1  C 277.84 1  295 18.16  295 40  C 295 61.84  277.84 79  256 79  C 234.16 79  217 61.84  217 40  C 217 18.16  234.16 1  256 1  Z " fill-rule="nonzero" fill="#ffffff" stroke="none" />
    <path d="M 256 1  C 277.84 1  295 18.16  295 40  C 295 61.84  277.84 79  256 79  C 234.16 79  217 61.84  217 40  C 217 18.16  234.16 1  256 1  Z " stroke-width="2" stroke="#cccccc" fill="none" />
  </g>
</svg>