<?xml version="1.0" encoding="utf-8"?>
<svg version="1.1" xmlns:xlink="http://www.w3.org/1999/xlink" width="349px" height="10px" xmlns="http://www.w3.org/2000/svg">
  <g transform="matrix(1 0 0 1 -7 -5 )">
    <path d="M 0 6  C 0 5.7  0.2 5.5  0.5 5.5  L 2.5 5.5  C 2.8 5.5  3 5.7  3 6  L 3 9.5  C 3 9.8  2.8 10  2.5 10  L 0.5 10  C 0.2 10  0 9.8  0 9.5  L 0 6  Z M 4.5 4.5  C 4.5 4.2  4.7 4  5 4  L 7 4  C 7.3 4  7.5 4.2  7.5 4.5  L 7.5 9.5  C 7.5 9.8  7.3 10  7 10  L 5 10  C 4.7 10  4.5 9.8  4.5 9.5  L 4.5 4.5  Z M 9 2.5  C 9 2.2  9.2 2  9.5 2  L 11.5 2  C 11.8 2  12 2.2  12 2.5  L 12 9.5  C 12 9.8  11.8 10  11.5 10  L 9.5 10  C 9.2 10  9 9.8  9 9.5  L 9 2.5  Z M 13.5 0.5  C 13.5 0.2  13.7 0  14 0  L 16 0  C 16.3 0  16.5 0.2  16.5 0.5  L 16.5 9.5  C 16.5 9.8  16.3 10  16 10  L 14 10  C 13.7 10  13.5 9.8  13.5 9.5  L 13.5 0.5  Z M 33.1 3.9  C 31.7 2.7  29.9 2  28 2  C 26.1 2  24.3 2.7  22.9 3.9  L 22 2.9  C 23.6 1.5  25.7 0.5  28 0.5  C 30.3 0.5  32.4 1.5  34 2.9  L 33.1 3.9  Z M 31 6.1  C 30.3 5.4  29.2 5  28 5  C 26.8 5  25.8 5.4  25 6.1  L 24 5  C 25.1 4.1  26.5 3.5  28 3.5  C 29.5 3.5  31 4.1  32 5  L 31 6.1  Z M 28.1 6.5  C 28.8 6.5  29.5 6.8  30.1 7.3  L 28.1 9.5  L 26.1 7.3  C 26.7 6.8  27.4 6.5  28.1 6.5  Z M 338 2  C 338 1.7  338.2 1.5  338.5 1.5  L 349 1.5  L 349 9  L 338.5 9  C 338.2 9  338 8.8  338 8.5  L 338 2  Z M 193.6 9.6  L 193.6 0.9  L 195.3 0.9  L 197.8 8.2  L 200.3 0.899999999999999  L 202 0.899999999999999  L 202 9.5  L 200.9 9.5  L 200.9 4.4  C 200.9 4.2  200.9 3.9  200.9 3.5  C 200.9 3.1  200.9 2.7  200.9 2.2  L 198.4 9.5  L 197.2 9.5  L 194.7 2.2  L 194.7 2.5  C 194.7 2.7  194.7 3  194.7 3.5  C 194.7 3.9  194.7 4.2  194.7 4.5  L 194.7 9.6  L 193.6 9.6  Z M 184.9 9.5  L 188.1 0.9  L 189.4 0.9  L 192.5 9.5  L 191.2 9.5  L 190.3 6.9  L 187 6.9  L 186.1 9.5  L 184.9 9.5  Z M 187.3 6  L 190 6  L 188.7 2.2  L 187.3 6  Z M 177.8 3.6  L 175.8 3.6  L 175.8 2.8  C 176.6 2.7  177.1 2.6  177.4 2.4  C 177.7 2.2  177.9 1.8  178.1 1.2  L 178.9 1.2  L 178.9 9.6  L 177.8 9.6  L 177.8 3.6  Z M 173 9.5  L 172 9.5  L 172 7.4  L 168.3 7.4  L 168.3 6.4  L 172.1 1.1  L 173 1.1  L 173 6.5  L 174.2 6.5  L 174.2 7.4  L 173 7.4  L 173 9.5  Z M 169.3 6.5  L 172 6.5  L 172 2.7  L 169.3 6.5  Z M 166 9.5  L 166 8.2  L 167.2 8.2  L 167.2 9.5  L 166 9.5  Z M 166 4.6  L 166 3.3  L 167.2 3.3  L 167.2 4.6  L 166 4.6  Z M 159.8 5.3  C 160.2 5.6  160.6 5.8  161.2 5.8  C 161.6 5.8  162 5.7  162.3 5.4  C 162.6 5.1  162.8 4.6  162.8 4  C 162.8 3.4  162.6 2.9  162.3 2.6  C 162 2.3  161.6 2.1  161.1 2.1  C 160.6 2.1  160.2 2.3  159.9 2.6  C 159.6 2.9  159.4 3.4  159.4 4  C 159.4 4.5  159.5 5  159.8 5.3  Z M 159.6 7.6  L 159.6 7.5  C 159.6 8.1  159.9 8.5  160.3 8.7  C 160.5 8.8  160.8 8.9  161 8.9  C 161.5 8.9  161.9 8.7  162.3 8.3  C 162.7 7.9  162.9 7  163.1 5.7  C 162.9 6.1  162.6 6.3  162.2 6.5  C 161.9 6.7  161.5 6.7  161.1 6.7  C 160.3 6.7  159.7 6.4  159.2 5.9  C 158.7 5.4  158.5 4.7  158.5 4  C 158.5 3.2  158.7 2.6  159.2 2  C 159.7 1.4  160.4 1.1  161.3 1.1  C 162.5 1.1  163.4 1.7  163.8 2.8  C 164.1 3.4  164.2 4.2  164.2 5.1  C 164.2 6.1  164 7  163.7 7.8  C 163.2 9.1  162.3 9.8  161.1 9.8  C 160.3 9.8  159.7 9.6  159.2 9.2  C 158.7 8.8  158.6 8.2  158.6 7.6  L 159.6 7.6  Z M 325.6 8.3  C 325.9 8.5  326.2 8.7  326.5 8.7  C 326.8 8.7  327.1 8.6  327.4 8.3  C 327.6 8.1  327.8 7.8  327.8 7.4  C 327.8 7  327.7 6.8  327.4 6.5  C 327.2 6.3  326.9 6.1  326.5 6.1  C 326.2 6.1  325.9 6.2  325.6 6.5  C 325.4 6.7  325.2 7  325.2 7.4  C 325.2 7.8  325.3 8  325.6 8.3  Z M 319.4 2  C 319.7 1.6  320.2 1.4  320.8 1.4  C 321.4 1.4  321.8 1.6  322.2 2  C 322.6 2.4  322.8 2.9  322.8 3.4  C 322.8 3.9  322.6 4.4  322.2 4.8  C 321.8 5.2  321.3 5.4  320.8 5.4  C 320.2 5.4  319.8 5.2  319.4 4.8  C 319 4.4  318.8 3.9  318.8 3.4  C 318.8 2.9  319 2.4  319.4 2  Z M 319.9 4.2  C 320.2 4.5  320.4 4.6  320.8 4.6  C 321.1 4.6  321.4 4.5  321.7 4.2  C 321.9 4  322.1 3.7  322.1 3.3  C 322.1 2.9  322 2.7  321.7 2.4  C 321.5 2.2  321.2 2  320.8 2  C 320.5 2  320.2 2.1  319.9 2.4  C 319.7 2.6  319.5 2.9  319.5 3.3  C 319.5 3.6  319.6 3.9  319.9 4.2  Z M 321 9.7  L 325.7 1.1  L 326.4 1.1  L 321.7 9.7  L 321 9.7  Z M 325.1 6  C 325.5 5.6  326 5.4  326.5 5.4  C 327.1 5.4  327.5 5.6  327.9 6  C 328.3 6.4  328.5 6.9  328.5 7.4  C 328.5 8  328.3 8.4  327.9 8.8  C 327.5 9.2  327 9.4  326.5 9.4  C 325.9 9.4  325.5 9.2  325.1 8.8  C 324.7 8.4  324.5 7.9  324.5 7.4  C 324.5 6.8  324.7 6.4  325.1 6  Z M 312.5 5.9  C 312.7 5.5  313 5.2  313.5 5  C 313.2 4.9  313 4.7  312.8 4.6  C 312.5 4.3  312.3 3.9  312.3 3.4  C 312.3 2.8  312.5 2.2  313 1.8  C 313.5 1.4  314.1 1.1  314.9 1.1  C 315.7 1.1  316.3 1.3  316.8 1.7  C 317.3 2.1  317.5 2.6  317.5 3.2  C 317.5 3.7  317.4 4.1  317.1 4.5  C 317 4.7  316.7 4.9  316.4 5  C 316.7 5.2  317 5.3  317.2 5.6  C 317.6 6  317.8 6.5  317.8 7.1  C 317.8 7.8  317.6 8.5  317.1 9  C 316.6 9.5  315.9 9.8  315 9.8  C 314.2 9.8  313.5 9.6  312.9 9.1  C 312.3 8.7  312.1 8  312.1 7.2  C 312.1 6.7  312.2 6.3  312.5 5.9  Z M 313.6 8.3  C 313.9 8.6  314.4 8.8  315 8.8  C 315.5 8.8  315.9 8.7  316.2 8.4  C 316.5 8.1  316.7 7.7  316.7 7.2  C 316.7 6.7  316.5 6.2  316.2 6  C 315.9 5.7  315.4 5.6  314.9 5.6  C 314.4 5.6  314 5.7  313.7 6  C 313.4 6.3  313.2 6.7  313.2 7.2  C 313.2 7.6  313.3 8  313.6 8.3  Z M 313.9 4.2  C 314.2 4.5  314.5 4.6  314.9 4.6  C 315.4 4.6  315.7 4.5  316 4.2  C 316.3 3.9  316.4 3.6  316.4 3.3  C 316.4 3  316.3 2.7  316 2.4  C 315.8 2.1  315.4 2  314.9 2  C 314.4 2  314 2.1  313.8 2.4  C 313.6 2.7  313.5 3  313.5 3.3  C 313.5 3.7  313.6 4  313.9 4.2  Z M 306.5 7.2  L 306.5 7.4  C 306.6 8  306.8 8.4  307.3 8.6  C 307.5 8.7  307.8 8.8  308.2 8.8  C 308.8 8.8  309.3 8.6  309.6 8.2  C 309.9 7.8  310.1 7.4  310.1 6.9  C 310.1 6.3  309.9 5.9  309.6 5.5  C 309.2 5.2  308.8 5  308.3 5  C 307.9 5  307.6 5.1  307.4 5.2  C 307.2 5.3  306.9 5.5  306.7 5.8  L 305.8 5.7  L 306.4 1.2  L 310.8 1.2  L 310.8 2.2  L 307.2 2.2  L 306.8 4.5  C 307 4.4  307.2 4.2  307.4 4.2  C 307.7 4.1  308.1 4  308.5 4  C 309.3 4  309.9 4.2  310.5 4.7  C 311 5.2  311.3 5.8  311.3 6.6  C 311.3 7.4  311.1 8.1  310.6 8.7  C 310.1 9.3  309.3 9.6  308.3 9.6  C 307.6 9.6  307 9.4  306.5 9  C 306 8.6  305.7 8  305.6 7.2  L 306.5 7.2  Z " fill-rule="nonzero" fill="#000000" stroke="none" transform="matrix(1 0 0 1 7 5 )" />
  </g>
</svg>