<?xml version="1.0" encoding="utf-8"?>
<svg version="1.1" xmlns:xlink="http://www.w3.org/1999/xlink" width="170px" height="170px" xmlns="http://www.w3.org/2000/svg">
  <g transform="matrix(1 0 0 1 -102 -100 )">
    <path d="M 170 85  C 170 132.6  132.6 170  85 170  C 37.4 170  0 132.6  0 85  C 0 37.4  37.4 0  85 0  C 132.6 0  170 37.4  170 85  Z M 10 85  C 10 127  43 160  85 160  C 127 160  160 127  160 85  C 160 43  127 10  85 10  C 43 10  10 43  10 85  Z " fill-rule="nonzero" fill="#ffffff" stroke="none" transform="matrix(1 0 0 1 102 100 )" />
  </g>
</svg>