<?xml version="1.0" encoding="utf-8"?>
<svg version="1.1" xmlns:xlink="http://www.w3.org/1999/xlink" width="184px" height="120px" xmlns="http://www.w3.org/2000/svg">
  <g transform="matrix(1 0 0 1 -103 -145 )">
    <path d="M 18.6010145703125 79.53058125  L 18.6010145703125 82.0028858203125  L 21.073319140625 82.0028858203125  C 21.7397259118178 82.0161604260497  22.2729824732352 82.5602529952446  22.2728502734375 83.226791953125  C 22.2728502734375 83.902377890625  21.7465612109375 84.4506980859375  21.073319140625 84.450698203125  L 18.6010145703125 84.450698203125  L 18.6010145703125 86.9231199609375  C 18.5876770377138 87.5894808346082  18.0436026457985 88.1226674352572  17.3771083203125 88.12253390625  C 17.3705822828184 88.1226400186311  17.3640554905303 88.1226930774513  17.3575285904076 88.1226930774513  C 16.6942514787843 88.1226930774513  16.1558252037433 87.5863918860098  16.1532021875 86.9231199609375  L 16.1532021875 84.450698203125  L 13.6808976171875 84.450698203125  C 13.0145367435168 84.4373606705262  12.4813501428678 83.893286278611  12.481483671875 83.226791953125  C 12.481483671875 82.551206015625  13.007655546875 82.0028858203125  13.6808976171875 82.0028858203125  L 16.1532021875 82.0028858203125  L 16.1532021875 79.53058125  C 16.1665397191993 78.8642204219078  16.7106140404012 78.3310338395051  17.3771083203125 78.3311673046875  C 18.0526942578125 78.3311673046875  18.601014453125 78.8573391796875  18.6010145703125 79.53058125  Z M 182.631395585938 72.21151921875  L 180.158973828125 72.21151921875  L 180.158973828125 69.7392146484375  C 180.156350811882 69.0759427233652  179.617924536841 68.5396415319237  178.954647425217 68.5396415319237  C 178.948120525095 68.5396415319237  178.941593732806 68.5396945907439  178.935067695312 68.539800703125  C 178.268573369826 68.5396671741178  177.724498977911 69.0728537747668  177.711161445312 69.7392146484375  L 177.711161445312 72.21151921875  L 175.238856992187 72.21151921875  C 174.575585021136 72.2141421706383  174.039283758494 72.7525684647731  174.039283758494 73.415845622121  C 174.039283758494 73.4223725220903  174.039336817311 73.4288993142217  174.039442929688 73.4354253515625  C 174.039442929688 74.0914409765625  174.577919492188 74.659331484375  175.238856992187 74.6593316015625  L 177.711161445312 74.6593316015625  L 177.711161445312 77.1316360546875  C 177.711161445312 77.8048782421875  178.259481757812 78.3311671875  178.935067695312 78.3311673046875  C 179.601606697873 78.3312995032228  180.145699285318 77.798042871823  180.158973828125 77.1316360546875  L 180.158973828125 74.6593316015625  L 182.631395585938 74.6593316015625  C 183.304520585938 74.6593316015625  183.83080953125 74.1110112890625  183.83080953125 73.4354253515625  C 183.830942996432 72.7689310716512  183.29775641403 72.2248567504492  182.631395585938 72.21151921875  Z M 97.1940959375 118.561516523438  L 91.2335884765625 112  L 29.6090216796875 112  C 29.6081949375773 112.601009903532  29.6073681951028 112.601010324049  29.6065414525648 112.601010324049  C 28.2600238352275 112.601010324049  27.1684556322523 111.509442121074  27.1684556322523 110.162924503736  C 27.1684556322523 110.159681886041  27.1684621012019 110.156439271572  27.1684750390625 110.153196679688  C 27.1684750390625 108.802024921875  28.277420234375 107.705149921875  29.6090216796875 107  L 40.70995859375 107  C 39.8532442224768 106.220530969994  39.4040202614625 104.535900810549  40 102.821829960938  L 40 31.8097246875  C 39.4104800324358 26.4080964164562  43.79012470213 22.0306476057348  49.1917536524457 22.0306476057348  C 49.197496292469 22.0306476057348  49.2032389313792 22.0306526616377  49.2089815625 22.0306627734375  L 56.54269203125 22.0306627734375  L 56.54269203125 19.570545703125  C 56.5453362945876 14.1688716402729  60.924999937943 9.79135143416839  66.3266746480137 9.79135143416839  C 66.332417229619 9.79135143416839  66.3381598101096 9.79135648996838  66.3439023828125 10  L 125.072648984375 10  C 125.079992722738 9.79135005700954  125.087336477407 9.79134178472518  125.094680234407 9.79134178472518  C 130.495571718063 9.79134178472518  134.873859335969 14.1696294026307  134.873859335969 19.5705208862877  C 134.873859335969 19.5705291598992  134.873859335959 19.5705374295135  134 19.570545703125  L 134 90.5826509765625  C 134.873859335938 92.362143046875  134.398898398438 94.0291351171875  133.569093710937 95  L 147.110577382813 95  C 148.464327265625 95.466088125  149.560967890625 96.5528848828125  149.560967773438 97.9139005078125  C 149.560967773438 99.265072265625  148.471592890625 100.361712890625  147.112921132813 100  L 117.738704023438 100  L 117.738704023438 102.821829960938  C 117.738704023438 104.60143921875  117.263977460938 106.268314101563  116.434172890625 107.705267109375  L 117.746204023438 107.705267109375  C 119.09257109375 107.705267109375  120.18675078125 108.792181054688  120.18675078125 110.153196679688  C 120.18675078125 111.5043684375  119.077805585938 112.6010090625  117.746204023438 112  L 104.86811890625 112  C 106.014541073425 114.525008435676  105.70471656881 116.982298759823  104.11659546875 118.561516523438  C 103.200119756133 119.482327408479  101.954507131828 119.999999567704  100.655345703125 119.999999567704  C 99.3561842744221 119.999999567704  98.1105716501174 119.482327408479  97.1940959375 118.561516523438  Z M 100.182962890625 107.705267109375  L 107.967024921875 107.705267109375  C 110.659759179688 107.705267109375  112.8431965625 105.526751601562  112 102.797454960938  L 112 31.694529375  C 112.8431965625 29.0507794921875  110.728196679688 26.926170234375  108.118899921875 27  L 49.0278096875 27  C 46.4183957421875 26.9261703515625  44.303395859375 29.060623359375  45 31.694529375  L 45 102.797103398438  C 44.303395859375 105.50694703125  46.5065207421875 107.704915664063  49.17722375 107  L 86.3355027734375 107  L 85.077260703125 106.444446914063  C 83.8355966230319 105.209344593405  83.3499692241185 103.404135928825  83.804370078125 101.712767460938  L 81.4935498828125 99.399486328125  C 78.5357914442058 101.600948994847  74.9469707376287 102.789935060227  71.2598617272899 102.789935060227  C 61.7937879921701 102.789935060227  54.1200190319774 95.1161661000341  54.1200190319774 85.6500923649143  C 54.1200190319774 81.1176652020456  55.9152635675314 76.7697539185316  59.1129653515625 73.5576519140625  C 62.3281219911675 70.3310297036158  66.6956974829326 68.5173652702052  71.2507302057727 68.5173652702052  C 80.7140856643895 68.5173652702052  88.3856510260852 76.188930631901  88.3856510260852 85.6522860905177  C 88.3856510260852 89.361910223689  87.181773470503 92.9713490923695  84.954916953125 95.9382365625  L 87.26808078125 98.2515176953125  C 88.9589863811592 97.7948723357933  90.7649213271222 98.279711080078  91.999760234375 99.521830078125  L 100.182962890625 107.705032734375  Z M 117 95.466088125  L 117.738821210937 95.466088125  L 125.104406796875 95.466088125  C 127.799152572445 95.4527424376459  129.976978092329 93.2651248186614  130 90.5703462890625  L 130 19.582850390625  C 129.978234570313 16.8705458203125  127.79468 14.6871084375  125.104406796875 15  L 66.3095664453125 15  C 63.6159199138247 14.701931023845  61.4397465348387 16.8890462095989  61.4384338671875 19.582733203125  L 61.4384338671875 22  L 107.937728046875 22  C 107.945071785238 22.0306462288845  107.952415539907 22.0306379566002  107.959759296906 22.0306379566002  C 113.360650780563 22.0306379566002  117.738938398469 26.4089255745057  117.738938398469 31.8098170581627  C 117.738938398469 31.8098253317742  117.738938398458 31.8098336013885  117 31.809841875  L 117 95.466088125  Z M 31.4523809375 5.5076949609375  L 35.0996073828125 5.5076949609375  C 36.127810390625 5.5076949609375  36.960076015625 6.3227340234375  36.960076015625 7.34355421875  C 36.960076015625 8.3569916015625  36.127810390625 9.1794134765625  35.0996073828125 9.1794134765625  L 31.4523809375 9.1794134765625  L 31.4523809375 12.826757109375  C 31.4523809375 13.8548429296875  30.6372246875 14.6871085546875  29.6165216796875 14.6871085546875  C 28.6005896844604 14.6804956302294  27.780504009224 13.8550544639337  27.780504009224 12.8391009464459  C 27.780504009224 12.8349862996686  27.7805177510177 12.8308716643651  27.780545234375 12.826757109375  L 27.780545234375 9.1792962890625  L 24.13320171875 9.1792962890625  C 24.1274939248622 9.17934931714217  24.1217859154426 9.17937583161108  24.1160778752322 9.17937583161108  C 23.1009343325333 9.17937583161108  22.2768724620861 8.35857260558564  22.2728502734375 7.34343703125  C 22.2728502734375 6.3299996484375  23.1051158984375 5.5075777734375  24.13320171875 5.5075777734375  L 27.780428046875 5.5075777734375  L 27.780428046875 1.8603514453125  C 27.780428046875 0.832265625  28.595701484375 0  29.6164044921875 0  C 30.6297246875 0  31.45226375 0.832265625  31.45226375 1.8603514453125  L 31.45226375 5.5078121484375  Z M 2.68998047600186 110.162924503855  C 2.68998047600186 110.15968188612  2.68998694495162 110.156439271612  2.6899998828125 110.153196679688  C 2.6899998828125 108.802024921875  3.798945078125 107.705149921875  5.130546640625 107  L 19.832303515625 107  C 21.1786705859375 107.705149921875  22.2728502734375 108.792181054687  22.2728502734375 110.153196679688  C 22.2728502734375 111.5043684375  21.163905078125 112.6010090625  19.832303515625 112  L 5.130546640625 112  C 5.12971985945532 112.601009903612  5.12889307791189 112.601010324168  5.12806629631436 112.601010324168  C 3.78154867897707 112.601010324168  2.68998047600186 111.509442121193  2.68998047600186 110.162924503855  Z M 71.2298005273438 97.9155678421912  C 74.4762748063118 97.9155678421912  77.589781952124 96.6259109620235  79.8853859375 94.3303069921875  C 82.1809899431801 92.0347030020475  83.4706468460975 88.9211958311198  83.4706468460975 85.6747215234375  C 83.4706468460975 78.9142887765674  77.9902332742139 73.4338752046838  71.2298005273438 73.4338752046838  C 67.9833262483757 73.4338752046838  64.8698191025636 74.7235320848515  62.5742151171875 77.0191360546875  C 60.2786111115074 79.3147400448275  58.9889542085901 82.4282472157552  58.9889542085901 85.6747215234375  C 58.9889542085901 92.4351542703076  64.4693677804737 97.9155678421912  71.2298005273438 97.9155678421912  Z M 54.0947624609375 36.717771328125  C 54.0946971623769 35.3667508860078  55.1892112693494 34.2711353415546  56.54023109375 35  L 83.468979453125 35  C 83.468979453125 34.2698417578125  83.468979453125 34.2698417578125  83.468979453125 34.2698417578125  C 84.8209012306735 34.2698417578125  85.9168503710938 35.3657908982328  85.9168503710938 36.7177126757812  C 85.9168503710938 38.0696344533297  84.8209012306735 39.16558359375  83.468979453125 39.16558359375  C 83.468979453125 39.16558359375  83.468979453125 39.16558359375  83.468979453125 40  L 56.54269203125 40  C 56.5402665473055 39.1655908253445  56.5378410539255 39.1655944411478  56.5354155592005 39.1655944411478  C 55.1875388036117 39.1655944411478  54.094868801388 38.0729244389241  54.094868801388 36.7250476833353  C 54.094868801388 36.7226222275561  54.0948724170752 36.7201967731243  54.0948796484375 36.717771328125  Z M 54.0947624609375 48.9569503125  C 54.0947624609375 47.6057785546875  55.18413734375 46.5091379296875  56.52558265625 47  L 95.725385 47  C 97.0668301953125 46.5091379296875  98.1560880078125 47.5959346875  98.1560880078125 48.9569503125  C 98.1560880078125 50.3081220703125  97.0668303125 51.4047626953125  95.725385 52  L 56.52558265625 52  C 55.1827277142906 51.4034287336405  54.0948355473403 50.3144554375285  54.0948355473403 48.971599833122  C 54.0948355473403 48.9667166263907  54.0948502477726 48.9618334307231  54.0948796484375 48.9569503125  Z M 54.0947624609375 61.1962463671875  C 54.0947624609375 59.845074609375  55.18659828125 58.748316796875  56.53777015625 59  L 73.6825347265625 59  C 75.031362734375 58.7483169140625  76.125425234375 59.835230859375  76.125425234375 61.1962463671875  C 76.125425234375 62.547418125  75.0337066015625 63.64405875  73.6825347265625 63  L 56.53777015625 63  C 56.5361621221115 63.6440619317362  56.5345540852145 63.6440635226055  56.5329460479283 63.6440635226055  C 55.186428430591 63.6440635226055  54.0948602276158 62.5524953196304  54.0948602276158 61.2059777022931  C 54.0948602276158 61.2027339142356  54.0948667012359 61.1994901294062  54.0948796484375 61.1962463671875  Z M 7.58585890625 46.5091379296875  C 3.53012586931835 46.5091379296875  0.242304628906251 43.2213166892754  0.242304628906251 39.1655836523437  C 0.242304628906251 35.1098506154121  3.53012586931836 31.822029375  7.58585890625 31.822029375  C 11.6415919431817 31.822029375  14.9294131835937 35.1098506154121  14.9294131835937 39.1655836523437  C 14.9294131835937 43.2213166892754  11.6415919431816 46.5091379296875  7.58585890625 46.5091379296875  Z M 7.58585890625 42.8373022265625  C 9.61372544089604 42.8373022265625  11.2576360742188 41.1933915932398  11.2576360742188 39.1655250585938  C 11.2576360742188 37.1376585239477  9.61372544089604 35.493747890625  7.58585890625 35.493747890625  C 5.55799237160396 35.493747890625  3.91408173828125 37.1376585239477  3.91408173828125 39.1655250585938  C 3.91408173828125 41.1933915932398  5.55799237160396 42.8373022265625  7.58585890625 42.8373022265625  Z M 159.3524515625 31.822029375  C 155.296718525568 31.822029375  152.008897285156 28.5342081345879  152.008897285156 24.4784750976563  C 152.008897285156 20.4227420607246  155.296718525568 17.1349208203125  159.3524515625 17.1349208203125  C 163.408184599432 17.1349208203125  166.696005839844 20.4227420607246  166.696005839844 24.4784750976563  C 166.696005839844 28.5342081345879  163.408184599432 31.822029375  159.3524515625 31.822029375  Z M 159.3524515625 28.150193671875  C 161.380285704351 28.150193671875  163.024170078125 26.5063092981011  163.024170078125 24.47847515625  C 163.024170078125 22.450641014399  161.380285704351 20.806756640625  159.3524515625 20.806756640625  C 157.324617420649 20.806756640625  155.680733046875 22.450641014399  155.680733046875 24.47847515625  C 155.680733046875 26.5063092981011  157.324617420649 28.150193671875  159.3524515625 28.150193671875  Z " fill-rule="nonzero" fill="#d2d2d2" stroke="none" transform="matrix(1 0 0 1 103 145 )" />
  </g>
</svg>