<?xml version="1.0" encoding="utf-8"?>
<svg version="1.1" xmlns:xlink="http://www.w3.org/1999/xlink" width="8px" height="12px" xmlns="http://www.w3.org/2000/svg">
  <g transform="matrix(1 0 0 1 -508 -28 )">
    <path d="M 2.97600000000023 8.57599999999991  C 2.97600000000023 8.57599999999991  2.97600000000023 8.7999999999999  2.97600000000023 8.7999999999999  L 4.81600000000026 8.7999999999999  C 4.81600000000026 8.7999999999999  4.81600000000026 8.57599999999991  4.81600000000026 8.57599999999991  C 4.81600000000026 8.19199999999989  4.89600000000019 7.85599999999991  5.05600000000027 7.53599999999989  C 5.20000000000027 7.24799999999991  5.40800000000024 6.97599999999989  5.69600000000025 6.7359999999999  C 6.46400000000017 6.06399999999991  6.92800000000022 5.63199999999989  7.07200000000023 5.47199999999989  C 7.45600000000024 4.95999999999989  7.66400000000021 4.30399999999989  7.66400000000021 3.50399999999988  C 7.66400000000021 2.52799999999988  7.34400000000016 1.75999999999988  6.70400000000018 1.1999999999999  C 6.06400000000019 0.623999999999882  5.21600000000024 0.35199999999989  4.17600000000027 0.35199999999989  C 2.99200000000019 0.35199999999989  2.06400000000019 0.687999999999903  1.3760000000002 1.3599999999999  C 0.672000000000253 2.0319999999999  0.33600000000024 2.95999999999989  0.33600000000024 4.14399999999989  C 0.33600000000024 4.14399999999989  2.1600000000002 4.14399999999989  2.1600000000002 4.14399999999989  C 2.1600000000002 3.47199999999989  2.28800000000024 2.9439999999999  2.56000000000029 2.57599999999988  C 2.86400000000026 2.1279999999999  3.36000000000024 1.9199999999999  4.06400000000019 1.9199999999999  C 4.60800000000017 1.9199999999999  5.04000000000019 2.06399999999988  5.34400000000028 2.36799999999988  C 5.63200000000018 2.67199999999988  5.79200000000026 3.08799999999988  5.79200000000026 3.6159999999999  C 5.79200000000026 4.01599999999988  5.64800000000025 4.39999999999989  5.36000000000024 4.7519999999999  C 5.36000000000024 4.7519999999999  5.16800000000023 4.97599999999989  5.16800000000023 4.97599999999989  C 4.12800000000027 5.90399999999988  3.50400000000025 6.57599999999991  3.29600000000028 7.0079999999999  C 3.07200000000023 7.43999999999988  2.97600000000023 7.9679999999999  2.97600000000023 8.57599999999991  Z M 2.65600000000029 10.7839999999999  C 2.65600000000029 11.1359999999999  2.76800000000026 11.4239999999999  3.00800000000027 11.6479999999999  C 3.24800000000027 11.8719999999999  3.53600000000029 11.9999999999999  3.88800000000026 11.9999999999999  C 4.24000000000035 11.9999999999999  4.52800000000025 11.8879999999999  4.76800000000026 11.6639999999999  C 5.00800000000027 11.4399999999999  5.13600000000031 11.1359999999999  5.13600000000031 10.7839999999999  C 5.13600000000031 10.4319999999999  5.00800000000027 10.1439999999999  4.78400000000033 9.9199999999999  C 4.54400000000032 9.69599999999988  4.24000000000035 9.58399999999989  3.88800000000026 9.58399999999989  C 3.53600000000029 9.58399999999989  3.24800000000027 9.69599999999988  3.00800000000027 9.9199999999999  C 2.76800000000026 10.1439999999999  2.65600000000029 10.4319999999999  2.65600000000029 10.7839999999999  Z " fill-rule="nonzero" fill="#ffffff" stroke="none" transform="matrix(1 0 0 1 508 28 )" />
  </g>
</svg>