<?xml version="1.0" encoding="utf-8"?>
<svg version="1.1" xmlns:xlink="http://www.w3.org/1999/xlink" width="150px" height="150px" xmlns="http://www.w3.org/2000/svg">
  <g transform="matrix(1 0 0 1 -558 -348 )">
    <path d="M 633 348  C 675 348  708 381  708 423  C 708 465  675 498  633 498  C 591 498  558 465  558 423  C 558 381  591 348  633 348  Z " fill-rule="nonzero" fill="#ffffff" stroke="none" />
    <path d="M 633 348.5  C 674.72 348.5  707.5 381.28  707.5 423  C 707.5 464.72  674.72 497.5  633 497.5  C 591.28 497.5  558.5 464.72  558.5 423  C 558.5 381.28  591.28 348.5  633 348.5  Z " stroke-width="1" stroke="#797979" fill="none" />
  </g>
</svg>