<?xml version="1.0" encoding="utf-8"?>
<svg version="1.1" xmlns:xlink="http://www.w3.org/1999/xlink" width="656px" height="157px" xmlns="http://www.w3.org/2000/svg">
  <g transform="matrix(1 0 0 1 0 -12 )">
    <path d="M 5.61379522185513 134.852802359882  L 0 116  L 0 108.597300985636  L 3.04643962848297 113.125  L 8.88544891640867 131.5  L 16.205812867861 150.986529006883  L 20.2847264955155 147.241199606686  L 30.8767441415214 7.68446411012783  C 31.0741109299563 5.43726647000984  34.6267131217843 5.09154375614553  35.3503913460456 7.16588003933137  L 35.4161802755239 7.28112094395281  L 43.9029521782243 34.9389380530974  L 50.2186894081408 23.9334316617502  C 51.2055233503153 22.2624385447394  54.0344473178821 22.550540806293  54.4949698242301 24.394395280236  L 54.4949698242301 24.5096361848574  L 64.1659424575399 70.8364798426745  L 69.2974789568471 62.3086529006883  C 70.1527350400649 60.9257620452311  72.389558642327 60.8681415929204  73.3106036550232 62.1934119960669  L 73.3763925845015 62.3086529006883  L 91.6657149794682 91.6950835791544  L 118.310231418179 116.356637168142  C 118.441809277135 116.471878072763  118.573387136092 116.644739429695  118.704964995048 116.817600786627  L 118.770753924527 116.932841691249  L 126.731214391401 133.642772861357  L 129.165404782098 133.642772861357  L 139.691633498625 1.98003933136678  C 139.88900028706 -0.267158308751218  143.441602478888 -0.612881022615525  144.16528070315 1.51907571288103  L 144.231069632628 1.63431661750247  L 152.520474746893 29.8107177974435  L 153.902042265938 29.8107177974435  L 159.954623777941 21.9743362831858  C 161.073035579072 20.4762045231072  163.704592758204 20.9371681415929  164.099326335074 22.6657817109145  L 164.099326335074 22.7810226155359  L 173.309776462035 70.2026548672567  L 178.441312961343 64.5558505408063  C 179.428146903517 63.4610619469027  181.336025858388 63.5763028515241  182.191281941606 64.7287118977385  L 182.257070871084 64.8439528023599  L 219.756760673713 122.118682399213  L 230.875089755546 132.605604719764  C 231.072456543981 132.778466076696  231.204034402937 133.008947885939  231.335612261894 133.239429695182  L 231.401401191372 133.354670599803  L 237.914505209723 151.159390363815  L 241.993418837378 147.414060963618  L 252.519647553905 7.79970501474925  C 252.71701434234 5.55250737463126  256.269616534168 5.20678466076695  256.99329475843 7.28112094395279  L 257.059083687908 7.39636184857423  L 265.545855590608 35.0541789577188  L 271.861592820525 24.0486725663717  C 272.848426762699 22.3776794493609  275.677350730266 22.6657817109144  276.137873236614 24.5096361848574  L 276.137873236614 24.6248770894788  L 285.808845869924 70.951720747296  L 290.940382369231 62.4238938053097  C 291.795638452449 61.0410029498525  294.032462054711 60.9833824975418  294.953507067407 62.3086529006883  L 295.019295996886 62.4238938053097  L 313.308618391852 91.8103244837758  L 339.953134830563 116.471878072763  C 340.08471268952 116.587118977384  340.216290548476 116.759980334317  340.347868407433 116.932841691249  L 340.413657336911 117.04808259587  L 348.374117803785 133.758013765978  L 350.808308194482 133.758013765978  L 361.33453691101 2.09528023598821  C 361.531903699445 -0.151917404129789  365.084505891273 -0.497640117994096  365.808184115534 1.63431661750246  L 365.873973045012 1.7495575221239  L 374.163378159278 29.9259587020649  L 375.544945678322 29.9259587020649  L 381.597527190325 22.0895771878073  C 382.715938991456 20.5914454277286  385.347496170588 21.0524090462144  385.742229747458 22.7810226155359  L 385.742229747458 22.8962635201573  L 394.95267987442 70.3178957718781  L 400.084216373727 64.6710914454277  C 401.071050315901 63.5763028515241  402.978929270772 63.6915437561455  403.83418535399 64.8439528023599  L 403.899974283468 64.9591937069813  L 440.741774791315 122.233923303835  L 451.860103873147 132.720845624385  C 452.057470661582 132.893706981318  452.189048520539 133.12418879056  452.320626379495 133.354670599803  L 452.386415308973 133.469911504425  L 458.899519327325 151.274631268437  L 462.978432954979 147.52930186824  L 473.504661671507 7.91494591937068  C 473.702028459942 5.66774827925269  477.25463065177 5.32202556538838  477.978308876031 7.39636184857422  L 478.044097805509 7.51160275319566  L 486.53086970821 35.1694198623402  L 492.846606938126 24.1639134709931  C 493.833440880301 22.4929203539823  496.662364847868 22.7810226155359  497.122887354216 24.6248770894788  L 497.122887354216 24.7401179941003  L 506.793859987525 71.0669616519174  L 511.925396486833 62.5391347099312  C 512.780652570051 61.1562438544739  515.017476172313 61.0986234021632  515.938521185009 62.4238938053097  L 516.004310114487 62.5391347099312  L 534.293632509454 91.9255653883972  L 560.938148948164 116.587118977384  C 561.069726807121 116.702359882006  561.201304666078 116.875221238938  561.332882525034 117.04808259587  L 561.398671454513 117.163323500492  L 569.359131921386 133.8732546706  L 571.793322312083 133.8732546706  L 582.319551028611 2.21052114060963  C 582.516917817046 -0.0366764995083599  586.069520008874 -0.382399213372667  586.793198233135 1.74955752212389  L 586.858987162613 1.86479842674533  L 595.148392276879 30.0411996066863  L 596.529959795923 30.0411996066863  L 602.582541307927 22.2048180924287  C 603.700953109058 20.70668633235  606.33251028819 21.1676499508358  606.727243865059 22.8962635201573  L 606.727243865059 23.0115044247788  L 615.937693992021 70.4331366764995  L 621.069230491328 64.7863323500492  C 622.056064433503 63.6915437561455  623.963943388373 63.806784660767  624.819199471591 64.9591937069813  L 624.884988401069 65.0744346116028  L 655.999997330502 108.597300985636  L 656 116  L 622.582375869329 69.6264503441495  L 616.332427568891 76.4832841691249  C 615.148226838282 77.8085545722714  612.714036447584 77.2899705014749  612.319302870715 75.6765978367748  L 612.319302870715 75.5613569321534  L 603.437797391144 28.3125860373648  L 599.950984128795 32.9222222222222  C 599.556250551925 33.4408062930187  598.898361257142 33.786529006883  598.17468303288 33.786529006883  L 598.043105173924 33.786529006883  L 593.635246898878 33.786529006883  C 592.648412956703 33.786529006883  591.727367944007 33.2103244837758  591.464212226094 32.4036381514258  L 591.398423296616 32.2883972468043  L 586.135308938352 14.598918387414  L 576.464336305042 135.832350049164  C 576.398547375564 136.869518190757  575.477502362868 137.676204523107  574.293301632258 137.733824975418  L 574.161723773302 137.733824975418  L 568.04335333182 137.733824975418  C 567.188097248602 137.733824975418  566.332841165385 137.272861356932  566.003896517993 136.581415929204  L 565.938107588515 136.466175024582  L 557.517124615293 118.891937069813  L 530.938397106061 94.2880039331367  C 530.806819247104 94.1727630285152  530.741030317626 94.1151425762045  530.675241388147 93.9999016715831  L 530.609452458669 93.8846607669617  L 514.228009018573 67.4944936086529  L 507.978060718135 77.8085545722714  C 506.99122677596 79.4795476892822  504.162302808394 79.1338249754179  503.701780302045 77.3475909537856  L 503.701780302045 77.2323500491642  L 494.030807668736 31.13598820059  L 488.109804015689 41.5076696165192  C 487.188759002993 43.1210422812193  484.491412894383 42.9481809242871  483.8335235996 41.2195673549656  L 483.767734670121 41.1043264503442  L 477.320419581248 20.0728613569322  L 467.715235877417 148.278367748279  C 467.715235877417 148.681710914454  467.517869088982 149.085054080629  467.18892444159 149.430776794494  L 467.123135512112 149.546017699115  L 459.820564340021 156.287610619469  C 458.636363609412 157.382399213373  456.596906795584 156.979056047198  456.00480643028 155.59616519174  L 455.939017500802 155.480924287119  L 448.373290610797 134.852802359882  L 437.386539387921 124.538741396264  C 437.320750458443 124.481120943953  437.320750458443 124.423500491642  437.254961528965 124.423500491642  C 437.254961528965 124.365880039331  437.189172599487 124.308259587021  437.189172599487 124.25063913471  C 437.123383670008 124.193018682399  437.123383670008 124.135398230089  437.123383670008 124.135398230089  L 401.860517469641 69.2807276302852  L 395.610569169203 76.1375614552606  C 394.426368438593 77.4628318584071  391.992178047896 76.9442477876106  391.597444471026 75.3308751229105  L 391.597444471026 75.2156342182891  L 382.386994344065 28.3125860373648  L 378.900181081715 32.9222222222222  C 378.505447504845 33.4408062930187  377.847558210062 33.786529006883  377.123879985801 33.786529006883  L 376.992302126844 33.786529006883  L 372.584443851799 33.786529006883  C 371.597609909624 33.786529006883  370.676564896928 33.2103244837758  370.413409179015 32.4036381514258  L 370.347620249536 32.2883972468043  L 365.084505891273 14.598918387414  L 355.413533257963 135.832350049164  C 355.347744328484 136.869518190757  354.426699315788 137.676204523107  353.242498585179 137.733824975418  L 353.110920726222 137.733824975418  L 346.992550284741 137.733824975418  C 346.137294201523 137.733824975418  345.282038118305 137.272861356932  344.953093470914 136.581415929204  L 344.887304541435 136.466175024582  L 336.466321568213 118.891937069813  L 309.887594058981 94.2880039331367  C 309.756016200024 94.1727630285152  309.690227270546 94.1151425762045  309.624438341068 93.9999016715831  L 309.55864941159 93.8846607669617  L 293.177205971493 67.4944936086529  L 286.927257671055 77.8085545722714  C 285.940423728881 79.4795476892822  283.111499761314 79.1338249754179  282.650977254966 77.3475909537856  L 282.650977254966 77.2323500491642  L 272.980004621656 31.13598820059  L 267.059000968609 41.5076696165192  C 266.137955955913 43.1210422812193  263.440609847303 42.9481809242871  262.78272055252 41.2195673549656  L 262.716931623042 41.1043264503442  L 256.269616534169 20.0728613569322  L 246.664432830337 148.278367748279  C 246.664432830337 148.681710914454  246.467066041902 149.085054080629  246.138121394511 149.430776794494  L 246.072332465032 149.546017699115  L 238.769761292941 156.287610619469  C 237.585560562332 157.382399213373  235.546103748505 156.979056047198  234.9540033832 155.59616519174  L 234.888214453722 155.480924287119  L 227.322487563718 134.852802359882  L 216.335736340842 124.538741396264  C 216.269947411364 124.481120943953  216.204158481885 124.365880039331  216.072580622929 124.25063913471  C 216.072580622929 124.193018682399  216.00679169345 124.193018682399  216.00679169345 124.135398230089  L 180.0860361983 69.2807276302852  L 173.836087897862 76.1375614552606  C 172.651887167252 77.4628318584071  170.217696776555 76.9442477876106  169.822963199686 75.3308751229105  L 169.822963199686 75.2156342182891  L 160.678302002202 28.3125860373648  L 157.191488739852 32.9222222222222  C 156.796755162983 33.4408062930187  156.1388658682 33.786529006883  155.415187643939 33.786529006883  L 155.283609784982 33.786529006883  L 150.875751509936 33.786529006883  C 149.888917567762 33.786529006883  148.967872555065 33.2103244837758  148.704716837152 32.4036381514258  L 148.638927907674 32.2883972468043  L 143.37581354941 14.598918387414  L 133.7048409161 135.832350049164  C 133.639051986622 136.869518190757  132.718006973926 137.676204523107  131.533806243316 137.733824975418  L 131.40222838436 137.733824975418  L 125.283857942878 137.733824975418  C 124.42860185966 137.733824975418  123.573345776442 137.272861356932  123.244401129051 136.581415929204  L 123.178612199573 136.466175024582  L 114.757629226351 118.891937069813  L 88.1789017171185 94.2880039331367  C 88.0473238581619 94.1727630285152  87.9815349286835 94.1151425762045  87.9157459992053 93.9999016715831  L 87.849957069727 93.8846607669617  L 71.4685136296309 67.4944936086529  L 65.2185653291926 77.8085545722714  C 64.2317313870182 79.4795476892822  61.4028074194514 79.1338249754179  60.9422849131033 77.3475909537856  L 60.9422849131033 77.2323500491642  L 51.2713122797935 31.13598820059  L 45.3503086267468 41.5076696165192  C 44.4292636140506 43.1210422812193  41.7319175054404 42.9481809242871  41.0740282106575 41.2195673549656  L 41.0082392811792 41.1043264503442  L 34.560924192306 20.0728613569322  L 24.9557404884746 148.278367748279  C 24.9557404884746 148.681710914454  24.7583737000397 149.085054080629  24.4294290526482 149.430776794494  L 24.3636401231699 149.546017699115  L 17.0610689510789 156.287610619469  C 15.8768682204695 157.382399213373  13.8374114066423 156.979056047198  13.2453110413376 155.59616519174  L 13.1795221118593 155.480924287119  L 5.61379522185513 134.852802359882  Z " fill-rule="nonzero" fill="#288dff" stroke="none" transform="matrix(1 0 0 1 0 12 )" />
  </g>
</svg>