<?xml version="1.0" encoding="utf-8"?>
<svg version="1.1" xmlns:xlink="http://www.w3.org/1999/xlink" width="670px" height="157px" xmlns="http://www.w3.org/2000/svg">
  <g transform="matrix(1 0 0 1 -656 -9 )">
    <path d="M 631.383012274303 65.0744346116028  L 669.872913505311 111.6  L 669.872921307535 118.73538645594  L 629.056688188304 69.6264503441495  L 622.742379954876 76.4832841691249  C 621.545984710648 77.8085545722714  619.086727819734 77.2899705014749  618.687929404991 75.6765978367748  L 618.687929404991 75.5613569321534  L 609.714965073278 28.3125860373648  L 606.19224574305 32.9222222222222  C 605.793447328307 33.4408062930187  605.128783303736 33.786529006883  604.397652876708 33.786529006883  L 604.264720071793 33.786529006883  L 599.811471107166 33.786529006883  C 598.814475070309 33.786529006883  597.883945435909 33.2103244837758  597.61807982608 32.4036381514258  L 597.551613423623 32.2883972468043  L 592.234301227053 14.598918387414  L 582.463740065854 135.832350049164  C 582.397273663397 136.869518190757  581.466744028997 137.676204523107  580.270348784769 137.733824975418  L 580.137415979855 137.733824975418  L 573.956040551341 137.733824975418  C 573.091977319399 137.733824975418  572.227914087456 137.272861356932  571.895582075171 136.581415929204  L 571.829115672713 136.466175024582  L 563.3214161582 118.891937069813  L 536.468989565519 94.2880039331367  C 536.336056760605 94.1727630285152  536.269590358148 94.1151425762045  536.203123955691 93.9999016715831  L 536.136657553233 93.8846607669617  L 519.586523341408 67.4944936086529  L 513.27221510798 77.8085545722714  C 512.275219071123 79.4795476892822  509.417163765467 79.1338249754179  508.951898948267 77.3475909537856  L 508.951898948267 77.2323500491642  L 499.181337787069 31.13598820059  L 493.199361565927 41.5076696165192  C 492.268831931527 43.1210422812193  489.543709430785 42.9481809242871  488.879045406213 41.2195673549656  L 488.812579003756 41.1043264503442  L 482.298871562957 20.0728613569322  L 472.594776804216 148.278367748279  C 472.594776804216 148.681710914454  472.395377596845 149.085054080629  472.063045584559 149.430776794494  L 471.996579182102 149.546017699115  L 464.61880850936 156.287610619469  C 463.422413265132 157.382399213373  461.36195478896 156.979056047198  460.763757166846 155.59616519174  L 460.697290764389 155.480924287119  L 453.053654481819 134.852802359882  L 441.953765271478 124.538741396264  C 441.887298869021 124.481120943953  441.887298869021 124.423500491642  441.820832466564 124.423500491642  C 441.820832466564 124.365880039331  441.754366064107 124.308259587021  441.754366064107 124.25063913471  C 441.68789966165 124.193018682399  441.68789966165 124.135398230089  441.68789966165 124.135398230089  L 406.061907944627 69.2807276302852  L 399.747599711199 76.1375614552606  C 398.551204466972 77.4628318584071  396.091947576057 76.9442477876106  395.693149161314 75.3308751229105  L 395.693149161314 75.2156342182891  L 386.387852817316 28.3125860373648  L 382.865133487089 32.9222222222222  C 382.466335072345 33.4408062930187  381.801671047774 33.786529006883  381.070540620746 33.786529006883  L 380.937607815831 33.786529006883  L 376.484358851204 33.786529006883  C 375.487362814347 33.786529006883  374.556833179947 33.2103244837758  374.290967570118 32.4036381514258  L 374.224501167661 32.2883972468043  L 368.907188971091 14.598918387414  L 359.136627809892 135.832350049164  C 359.070161407435 136.869518190757  358.139631773035 137.676204523107  356.943236528807 137.733824975418  L 356.810303723893 137.733824975418  L 350.62892829538 137.733824975418  C 349.764865063437 137.733824975418  348.900801831494 137.272861356932  348.568469819209 136.581415929204  L 348.502003416751 136.466175024582  L 339.994303902238 118.891937069813  L 313.141877309557 94.2880039331367  C 313.008944504643 94.1727630285152  312.942478102186 94.1151425762045  312.876011699729 93.9999016715831  L 312.809545297272 93.8846607669617  L 296.259411085446 67.4944936086529  L 289.945102852019 77.8085545722714  C 288.948106815162 79.4795476892822  286.090051509505 79.1338249754179  285.624786692305 77.3475909537856  L 285.624786692305 77.2323500491642  L 275.854225531107 31.13598820059  L 269.872249309965 41.5076696165192  C 268.941719675565 43.1210422812193  266.216597174823 42.9481809242871  265.551933150251 41.2195673549656  L 265.485466747794 41.1043264503442  L 258.971759306995 20.0728613569322  L 249.267664548254 148.278367748279  C 249.267664548254 148.681710914454  249.068265340883 149.085054080629  248.735933328597 149.430776794494  L 248.66946692614 149.546017699115  L 241.291696253398 156.287610619469  C 240.09530100917 157.382399213373  238.034842532999 156.979056047198  237.436644910885 155.59616519174  L 237.370178508427 155.480924287119  L 229.726542225857 134.852802359882  L 218.626653015516 124.538741396264  C 218.560186613059 124.481120943953  218.493720210602 124.365880039331  218.360787405688 124.25063913471  C 218.360787405688 124.193018682399  218.294321003231 124.193018682399  218.294321003231 124.135398230089  L 182.003665261637 69.2807276302852  L 175.689357028209 76.1375614552606  C 174.492961783981 77.4628318584071  172.033704893067 76.9442477876106  171.634906478324 75.3308751229105  L 171.634906478324 75.2156342182891  L 162.396076536783 28.3125860373648  L 158.873357206555 32.9222222222222  C 158.474558791812 33.4408062930187  157.809894767241 33.786529006883  157.078764340213 33.786529006883  L 156.945831535299 33.786529006883  L 152.492582570671 33.786529006883  C 151.495586533814 33.786529006883  150.565056899414 33.2103244837758  150.299191289585 32.4036381514258  L 150.232724887128 32.2883972468043  L 144.915412690558 14.598918387414  L 135.144851529359 135.832350049164  C 135.078385126902 136.869518190757  134.147855492502 137.676204523107  132.951460248274 137.733824975418  L 132.81852744336 137.733824975418  L 126.637152014847 137.733824975418  C 125.773088782904 137.733824975418  124.909025550961 137.272861356932  124.576693538675 136.581415929204  L 124.510227136218 136.466175024582  L 116.002527621705 118.891937069813  L 89.1501010290243 94.2880039331367  C 89.0171682241101 94.1727630285152  88.9507018216529 94.1151425762045  88.8842354191958 93.9999016715831  L 88.8177690167386 93.8846607669617  L 72.2676348049129 67.4944936086529  L 65.9533265714853 77.8085545722714  C 64.9563305346283 79.4795476892822  62.0982752289717 79.1338249754179  61.6330104117719 77.3475909537856  L 61.6330104117719 77.2323500491642  L 51.8624492505735 31.13598820059  L 45.8804730294317 41.5076696165192  C 44.9499433950319 43.1210422812193  42.2248208942894 42.9481809242871  41.5601568697181 41.2195673549656  L 41.493690467261 41.1043264503442  L 34.9799830264621 20.0728613569322  L 25.2758882677208 148.278367748279  C 25.2758882677208 148.681710914454  25.0764890603495 149.085054080629  24.7441570480639 149.430776794494  L 24.6776906456067 149.546017699115  L 17.2999199728652 156.287610619469  C 16.1035247286368 157.382399213373  14.0430662524657 156.979056047198  13.4448686303515 155.59616519174  L 13.3784022278943 155.480924287119  L 3.25341422568449 124.135398230089  L 0 119  L 0 111.6  L 6.7101668404742 121.5  L 16.4358567409224 150.986529006883  L 20.5567736932646 147.241199606686  L 31.2578644888628 7.68446411012783  C 31.4572636962342 5.43726647000984  35.0464494289193 5.09154375614553  35.7775798559476 7.16588003933137  L 35.8440462584048 7.28112094395281  L 44.4182121753749 34.9389380530974  L 50.7989868112594 23.9334316617502  C 51.7959828481164 22.2624385447394  54.654038153773 22.550540806293  55.119302970973 24.394395280236  L 55.119302970973 24.5096361848574  L 64.8898641321713 70.8364798426745  L 70.0742435238274 62.3086529006883  C 70.9383067557702 60.9257620452311  73.1981644393126 60.8681415929204  74.1286940737127 62.1934119960669  L 74.1951604761696 62.3086529006883  L 92.6728203592522 91.6950835791544  L 119.591713354391 116.356637168142  C 119.724646159305 116.471878072763  119.857578964219 116.644739429695  119.990511769133 116.817600786627  L 120.056978171591 116.932841691249  L 128.099412868903 133.642772861357  L 130.558669759817 133.642772861357  L 141.193294152958 1.98003933136678  C 141.39269336033 -0.267158308751218  144.981879093015 -0.612881022615525  145.713009520043 1.51907571288103  L 145.7794759225 1.63431661750247  L 154.154242632099 29.8107177974435  L 155.550037083699 29.8107177974435  L 161.664946109755 21.9743362831858  C 162.794874951526 20.4762045231072  165.453531049811 20.9371681415929  165.852329464554 22.6657817109145  L 165.852329464554 22.7810226155359  L 175.157625808552 70.2026548672567  L 180.342005200209 64.5558505408063  C 181.339001237066 63.4610619469027  183.266526908322 63.5763028515241  184.130590140265 64.7287118977385  L 184.197056542722 64.8439528023599  L 222.082905943287 122.118682399213  L 233.315727958542 132.605604719764  C 233.515127165914 132.778466076696  233.648059970828 133.008947885939  233.780992775742 133.239429695182  L 233.8474591782 133.354670599803  L 240.427633021456 151.159390363815  L 244.548549973798 147.414060963618  L 255.183174366939 7.79970501474925  C 255.38257357431 5.55250737463126  258.971759306995 5.20678466076695  259.702889734024 7.28112094395279  L 259.769356136481 7.39636184857423  L 268.343522053451 35.0541789577188  L 274.724296689335 24.0486725663717  C 275.721292726192 22.3776794493609  278.579348031849 22.6657817109144  279.044612849049 24.5096361848574  L 279.044612849049 24.6248770894788  L 288.815174010247 70.951720747296  L 293.999553401904 62.4238938053097  C 294.863616633846 61.0410029498525  297.123474317389 60.9833824975418  298.054003951789 62.3086529006883  L 298.120470354246 62.4238938053097  L 316.598130237328 91.8103244837758  L 343.517023232467 116.471878072763  C 343.649956037381 116.587118977384  343.782888842295 116.759980334317  343.915821647209 116.932841691249  L 343.982288049666 117.04808259587  L 352.024722746979 133.758013765978  L 354.483979637893 133.758013765978  L 365.118604031034 2.09528023598821  C 365.318003238406 -0.151917404129789  368.907188971091 -0.497640117994096  369.638319398119 1.63431661750246  L 369.704785800576 1.7495575221239  L 378.079552510175 29.9259587020649  L 379.475346961775 29.9259587020649  L 385.59025598783 22.0895771878073  C 386.720184829602 20.5914454277286  389.378840927888 21.0524090462144  389.77763934263 22.7810226155359  L 389.77763934263 22.8962635201573  L 399.082935686629 70.3178957718781  L 404.267315078285 64.6710914454277  C 405.264311115142 63.5763028515241  407.191836786398 63.6915437561455  408.055900018341 64.8439528023599  L 408.122366420798 64.9591937069813  L 445.343551796792 122.233923303835  L 456.576373812047 132.720845624385  C 456.775773019419 132.893706981318  456.908705824333 133.12418879056  457.041638629247 133.354670599803  L 457.108105031704 133.469911504425  L 463.68827887496 151.274631268437  L 467.809195827302 147.52930186824  L 478.443820220444 7.91494591937068  C 478.643219427815 5.66774827925269  482.2324051605 5.32202556538838  482.963535587528 7.39636184857422  L 483.030001989986 7.51160275319566  L 491.604167906956 35.1694198623402  L 497.98494254284 24.1639134709931  C 498.981938579697 22.4929203539823  501.839993885354 22.7810226155359  502.305258702554 24.6248770894788  L 502.305258702554 24.7401179941003  L 512.075819863752 71.0669616519174  L 517.260199255408 62.5391347099312  C 518.124262487351 61.1562438544739  520.384120170894 61.0986234021632  521.314649805293 62.4238938053097  L 521.38111620775 62.5391347099312  L 539.858776090833 91.9255653883972  L 566.777669085971 116.587118977384  C 566.910601890885 116.702359882006  567.0435346958 116.875221238938  567.176467500714 117.04808259587  L 567.242933903171 117.163323500492  L 575.285368600484 133.8732546706  L 577.744625491398 133.8732546706  L 588.379249884539 2.21052114060963  C 588.578649091911 -0.03667649950836  592.167834824596 -0.382399213372667  592.898965251624 1.74955752212389  L 592.965431654081 1.86479842674533  L 601.34019836368 30.0411996066863  L 602.735992815279 30.0411996066863  L 608.850901841336 22.2048180924287  C 609.980830683107 20.70668633235  612.639486781392 21.1676499508358  613.038285196135 22.8962635201573  L 613.038285196135 23.0115044247788  L 622.343581540134 70.4331366764995  L 627.52796093179 64.7863323500492  C 628.524956968646 63.6915437561455  630.452482639903 63.806784660767  631.316545871846 64.9591937069813  L 631.383012274303 65.0744346116028  Z " fill-rule="nonzero" fill="#288dff" stroke="none" transform="matrix(1 0 0 1 656 9 )" />
  </g>
</svg>