<?xml version="1.0" encoding="utf-8"?>
<svg version="1.1" xmlns:xlink="http://www.w3.org/1999/xlink" width="368px" height="157px" xmlns="http://www.w3.org/2000/svg">
  <g transform="matrix(1 0 0 1 -97 -281 )">
    <path d="M 365.873973045012 1.74955752212389  L 367 5.57702256621889  L 367 21.0369847970711  L 365.084505891273 14.598918387414  L 355.413533257963 135.832350049164  C 355.347744328484 136.869518190757  354.426699315788 137.676204523107  353.242498585179 137.733824975418  L 353.110920726222 137.733824975418  L 346.992550284741 137.733824975418  C 346.137294201523 137.733824975418  345.282038118305 137.272861356932  344.953093470914 136.581415929204  L 344.887304541435 136.466175024582  L 336.466321568213 118.891937069813  L 309.887594058981 94.2880039331367  C 309.756016200024 94.1727630285152  309.690227270546 94.1151425762045  309.624438341068 93.9999016715831  L 309.55864941159 93.8846607669616  L 293.177205971493 67.4944936086529  L 286.927257671055 77.8085545722714  C 285.940423728881 79.4795476892822  283.111499761314 79.1338249754179  282.650977254966 77.3475909537856  L 282.650977254966 77.2323500491642  L 272.980004621656 31.13598820059  L 267.059000968609 41.5076696165192  C 266.137955955913 43.1210422812193  263.440609847303 42.9481809242872  262.78272055252 41.2195673549656  L 262.716931623042 41.1043264503442  L 256.269616534169 20.0728613569322  L 246.664432830337 148.278367748279  C 246.664432830337 148.681710914454  246.467066041902 149.085054080629  246.138121394511 149.430776794494  L 246.072332465032 149.546017699115  L 238.769761292941 156.287610619469  C 237.585560562332 157.382399213373  235.546103748505 156.979056047198  234.9540033832 155.59616519174  L 234.888214453722 155.480924287119  L 227.322487563718 134.852802359882  L 216.335736340842 124.538741396264  C 216.269947411364 124.481120943953  216.204158481885 124.365880039331  216.072580622929 124.25063913471  C 216.072580622929 124.193018682399  216.00679169345 124.193018682399  216.00679169345 124.135398230089  L 180.0860361983 69.2807276302851  L 173.836087897862 76.1375614552606  C 172.651887167252 77.4628318584071  170.217696776555 76.9442477876106  169.822963199686 75.3308751229105  L 169.822963199686 75.2156342182891  L 160.678302002202 28.3125860373648  L 157.191488739852 32.9222222222222  C 156.796755162983 33.4408062930187  156.1388658682 33.786529006883  155.415187643939 33.786529006883  L 155.283609784982 33.786529006883  L 150.875751509936 33.786529006883  C 149.888917567762 33.786529006883  148.967872555065 33.2103244837758  148.704716837152 32.4036381514258  L 148.638927907674 32.2883972468043  L 143.37581354941 14.598918387414  L 133.7048409161 135.832350049164  C 133.639051986622 136.869518190757  132.718006973926 137.676204523107  131.533806243316 137.733824975418  L 131.40222838436 137.733824975418  L 125.283857942878 137.733824975418  C 124.42860185966 137.733824975418  123.573345776442 137.272861356932  123.244401129051 136.581415929204  L 123.178612199573 136.466175024582  L 114.757629226351 118.891937069813  L 88.1789017171184 94.2880039331367  C 88.0473238581619 94.1727630285152  87.9815349286835 94.1151425762045  87.9157459992053 93.9999016715831  L 87.8499570697269 93.8846607669616  L 71.4685136296309 67.4944936086529  L 65.2185653291926 77.8085545722714  C 64.2317313870182 79.4795476892822  61.4028074194514 79.1338249754179  60.9422849131033 77.3475909537856  L 60.9422849131033 77.2323500491642  L 51.2713122797935 31.13598820059  L 45.3503086267468 41.5076696165192  C 44.4292636140507 43.1210422812193  41.7319175054404 42.9481809242872  41.0740282106574 41.2195673549656  L 41.0082392811792 41.1043264503442  L 34.560924192306 20.0728613569322  L 24.9557404884746 148.278367748279  C 24.9557404884746 148.681710914454  24.7583737000397 149.085054080629  24.4294290526482 149.430776794494  L 24.3636401231699 149.546017699115  L 17.0610689510789 156.287610619469  C 15.8768682204695 157.382399213373  13.8374114066423 156.979056047198  13.2453110413376 155.59616519174  L 13.1795221118593 155.480924287119  L 5.61379522185513 134.852802359882  L 0 116  L 0 108.597300985636  L 3.04643962848297 113.125  L 8.88544891640866 131.5  L 16.205812867861 150.986529006883  L 20.2847264955155 147.241199606686  L 30.8767441415214 7.68446411012781  C 31.0741109299562 5.43726647000983  34.6267131217843 5.09154375614554  35.3503913460456 7.16588003933134  L 35.4161802755239 7.28112094395283  L 43.9029521782243 34.9389380530973  L 50.2186894081408 23.9334316617503  C 51.2055233503153 22.2624385447394  54.0344473178821 22.550540806293  54.4949698242301 24.394395280236  L 54.4949698242301 24.5096361848574  L 64.1659424575399 70.8364798426745  L 69.2974789568471 62.3086529006883  C 70.152735040065 60.9257620452311  72.389558642327 60.8681415929204  73.3106036550232 62.1934119960669  L 73.3763925845015 62.3086529006883  L 91.6657149794682 91.6950835791544  L 118.310231418179 116.356637168142  C 118.441809277135 116.471878072763  118.573387136092 116.644739429695  118.704964995048 116.817600786627  L 118.770753924527 116.932841691249  L 126.731214391401 133.642772861357  L 129.165404782098 133.642772861357  L 139.691633498625 1.98003933136675  C 139.88900028706 -0.26715830875122  143.441602478888 -0.612881022615511  144.16528070315 1.51907571288103  L 144.231069632628 1.63431661750246  L 152.520474746893 29.8107177974435  L 153.902042265938 29.8107177974435  L 159.954623777941 21.9743362831858  C 161.073035579072 20.4762045231072  163.704592758204 20.9371681415929  164.099326335074 22.6657817109145  L 164.099326335074 22.7810226155359  L 173.309776462035 70.2026548672567  L 178.441312961343 64.5558505408063  C 179.428146903517 63.4610619469026  181.336025858388 63.5763028515241  182.191281941606 64.7287118977384  L 182.257070871084 64.8439528023599  L 219.756760673713 122.118682399213  L 230.875089755546 132.605604719764  C 231.072456543981 132.778466076696  231.204034402937 133.008947885939  231.335612261894 133.239429695182  L 231.401401191372 133.354670599803  L 237.914505209723 151.159390363815  L 241.993418837378 147.414060963618  L 252.519647553905 7.79970501474924  C 252.71701434234 5.55250737463126  256.269616534168 5.20678466076697  256.99329475843 7.28112094395277  L 257.059083687908 7.3963618485742  L 265.545855590608 35.0541789577188  L 271.861592820525 24.0486725663717  C 272.848426762699 22.3776794493609  275.677350730266 22.6657817109144  276.137873236614 24.5096361848574  L 276.137873236614 24.6248770894788  L 285.808845869924 70.951720747296  L 290.940382369231 62.4238938053097  C 291.795638452449 61.0410029498525  294.032462054711 60.9833824975418  294.953507067407 62.3086529006883  L 295.019295996886 62.4238938053097  L 313.308618391852 91.8103244837758  L 339.953134830563 116.471878072763  C 340.08471268952 116.587118977384  340.216290548476 116.759980334317  340.347868407433 116.932841691249  L 340.413657336911 117.04808259587  L 348.374117803785 133.758013765978  L 350.808308194482 133.758013765978  L 361.33453691101 2.09528023598818  C 361.531903699445 -0.15191740412979  365.084505891273 -0.497640117994081  365.808184115534 1.63431661750246  L 365.873973045012 1.74955752212389  Z " fill-rule="nonzero" fill="#288dff" stroke="none" transform="matrix(1 0 0 1 97 281 )" />
  </g>
</svg>