<?xml version="1.0" encoding="utf-8"?>
<svg version="1.1" xmlns:xlink="http://www.w3.org/1999/xlink" width="64px" height="64px" xmlns="http://www.w3.org/2000/svg">
  <g transform="matrix(1 0 0 1 -118 -25 )">
    <path d="M 53.7883304 54.6287567263957  C 56.668245720018 51.7151066473329  58.9621314061264 48.2599146142918  60.5419890461538 44.4559797264839  C 62.182593655342 40.5150975007016  63.0238122491576 36.2786560931607  63.0153373538462 32.0000078031195  C 63.0170675686643 27.721241403072  62.1733353336881 23.4856302380606  60.5341121846154 19.544035879755  C 58.9529526013061 15.7412067454023  56.6598261314701 12.2863523979869  53.7820289230769 9.37125887984318  C 50.9127393151071 6.4461730722576  47.5101550105803 4.11643588547377  43.7641806769231 2.51207435954442  C 39.8843901623093 0.846130378524546  35.7136985632551 -0.00822446569533497  31.5014144 7.99999995066969E-05  C 23.1423830128421 -0.0130090489803507  15.1232881673194 3.35980512459412  9.22079993846154 9.37125887984318  C 6.34438837024467 12.2865165985429  4.05284250339446 15.7414078569233  2.47344283076923 19.544035879755  C 0.833003990288518 23.4849700921914  -0.0082077215967189 27.7213768418029  9.45230769247019E-05 32.0000078031195  C -0.012793155997926 40.4896490034691  3.30813158918437 48.6340421558445  9.22710147692308 54.6287567263957  C 12.0960547163058 57.5535126318795  15.4980575434143 59.8832180617991  19.2433742769231 61.4879412466945  C 23.123627569259 63.1541802926496  27.2948929808092 64.0085429217371  31.5077159384615 63.9999356062394  C 39.8667473256195 64.0130246552193  47.8858421711421 60.6402104816448  53.7883304 54.6287567263957  Z M 31.5077159384615 3.2000727928115  C 39.0821481230769 3.2000727928115  46.2044459692308 6.19206602440322  51.5575908307692 11.6368537409041  C 56.89135966723 17.0266503116257  59.8822748826902 24.3583683710735  59.8645752 32.0000078031195  C 59.8645752 39.6927904432895  56.9107356923077 46.9263741487848  51.5575908307692 52.3631618653348  C 46.2528081169957 57.7834437474186  39.0325208286938 60.821666307953  31.5077159384615 60.7999428134274  C 23.9332837538462 60.7999428134274  16.8109859076923 57.8079495818357  11.4578410461538 52.3631618653348  C 6.12273426927716 46.9742759215409  3.13157697793133 39.6419644543852  3.15085667692308 32.0000078031195  C 3.15085667692308 24.3072251629494  6.09681926153846 17.0736414574542  11.4578410461538 11.6368537409041  C 16.7647177022842 6.21974479970249  23.9836401436935 3.18209655268992  31.5077159384615 3.2000727928115  Z M 28.8000311875 44.7999791875  C 28.8000311875 46.55997525  30.2400279375 47.999972  32.000024 47.999972  C 33.7600200625 47.999972  35.2000168125 46.55997525  35.2000168125 44.7999791875  C 35.2000168125 43.039983125  33.7600200625 41.599986375  32.000024 41.599986375  C 30.2400279375 41.599986375  28.8000311875 43.039983125  28.8000311875 44.7999791875  Z M 32.000024 38.399993625  C 33.172821375 38.399993625  34.1392191875 37.3791959375  34.2032190625 36.0735988125  L 35.1952168125 16.5856426875  C 35.2992165625 14.5280473125  33.838419875 12.8000511875  32.000024 12.8000511875  C 30.160028125 12.8000511875  28.7008314375 14.5280473125  28.8048311875 16.5840426875  L 29.7968289375 36.0735988125  C 29.8608288125 37.379195875  30.832026625 38.399993625  32.000024 38.399993625  Z " fill-rule="nonzero" fill="#ffc100" stroke="none" transform="matrix(1 0 0 1 118 25 )" />
  </g>
</svg>