<?xml version="1.0" encoding="utf-8"?>
<svg version="1.1" xmlns:xlink="http://www.w3.org/1999/xlink" width="36px" height="19px" xmlns="http://www.w3.org/2000/svg">
  <g transform="matrix(1 0 0 1 -192 -410 )">
    <path d="M 4.51693320790223 3.98000940733773  C 1.71166509877706 5.78339604891815  0.20884289746003 7.98753527751646  0.20884289746003 10.2918626528692  C 0.20884289746003 12.6963781749765  2.11241768579494 15.0007055503293  5.4186265286924 16.5035277516463  C 8.52445907808092 18.0063499529633  12.6321730950141 18.6074788334901  18.7436500470367 18.6074788334901  L 33.5714957666981 18.6074788334901  L 33.5714957666981 14.8003292568203  L 19.3447789275635 14.8003292568203  C 17.2408278457197 14.8003292568203  15.2370649106303 14.7001411100659  13.7342427093133 14.4997648165569  C 12.1312323612418 14.299388523048  10.7285983066793 13.8986359360301  9.62652869238011 13.3976952022578  L 9.0253998118533 13.0971307619944  L 35.8758231420509 9.69073377234243  C 35.7756349952964 9.08960489181563  35.675446848542 8.38828786453433  35.2746942615241 7.58678269049859  C 34.7737535277517 6.48471307619944  31.8682972718721 0.974365004703685  18.14252116651 0.974365004703685  C 17.8419567262465 0.974365004703685  17.6415804327376 0.974365004703685  17.3410159924742 0.974365004703685  C 12.1312323612418 1.07455315145815  7.62276575729075 2.07643461900282  4.51693320790223 3.98000940733773  Z M 7.22201317027283 9.99129821260583  L 7.22201317027283 9.69073377234243  C 7.32220131702729 8.68885230479775  8.02351834430857 7.68697083725306  9.12558795860774 6.98565380997178  C 11.329727187206 5.48283160865475  14.4355597365946 4.68132643461901  18.3428974600188 4.68132643461901  C 24.5545625587959 4.68132643461901  26.5583254938852 6.48471307619943  27.1594543744121 7.18603010348072  L 27.359830667921 7.48659454374412  L 7.22201317027283 9.99129821260583  Z " fill-rule="nonzero" fill="#f7f8f8" stroke="none" transform="matrix(1 0 0 1 192 410 )" />
  </g>
</svg>