<?xml version="1.0" encoding="utf-8"?>
<svg version="1.1" xmlns:xlink="http://www.w3.org/1999/xlink" width="36px" height="19px" xmlns="http://www.w3.org/2000/svg">
  <g transform="matrix(1 0 0 1 -116 -411 )">
    <path d="M 31.5249294449671 2.87982126058324  C 28.3189087488241 1.07643461900281  23.5098777046096 0.074553151458133  17.598777046096 0.074553151458133  C 11.9882408278457 0.074553151458133  7.27939793038571 1.27681091251175  4.07337723424271 3.38076199435558  C 1.76904985888994 4.88358419567261  0.666980244590789 6.78715898400752  0.666980244590789 8.89111006585135  C 0.666980244590789 11.2956255879586  1.96942615239887 13.3995766698024  4.37394167450613 14.9023988711195  C 8.98259642521167 17.7076669802446  15.9957666980245 18.008231420508  18.9012229539041 18.008231420508  L 27.7177798682973 18.008231420508  L 35.5324553151458 18.008231420508  L 35.5324553151458 9.89299153339604  C 35.5324553151458 6.98753527751644  34.1298212605833 4.58301975540921  31.5249294449671 2.87982126058324  Z M 27.9181561618062 9.89299153339604  L 27.9181561618062 14.1008936970837  L 27.5174035747883 14.1008936970837  L 18.7008466603951 14.1008936970837  L 18.6006585136406 14.1008936970837  C 15.3946378174976 14.1008936970837  12.3889934148636 13.4997648165569  10.4854186265287 12.3976952022578  C 8.78222013170272 11.4960018814675  7.98071495766698 10.093367826905  7.98071495766698 8.69073377234241  C 7.98071495766698 7.7890404515522  8.58184383819379 6.88734713076198  9.58372530573848 6.08584195672624  C 11.3871119473189 4.78339604891815  13.9920037629351 4.18226716839133  17.6989651928504 4.18226716839133  C 26.0145813734713 4.18226716839133  27.8179680150517 7.28809971777984  27.9181561618062 9.89299153339604  Z " fill-rule="nonzero" fill="#f7f8f8" stroke="none" transform="matrix(1 0 0 1 116 411 )" />
  </g>
</svg>