<?xml version="1.0" encoding="utf-8"?>
<svg version="1.1" xmlns:xlink="http://www.w3.org/1999/xlink" width="32px" height="18px" xmlns="http://www.w3.org/2000/svg">
  <g transform="matrix(1 0 0 1 -81 -411 )">
    <path d="M 31.859830667921 8.49035747883347  C 31.9600188146755 6.38640639698964  31.0583254938852 4.78339604891815  28.9543744120414 3.28057384760112  C 26.0489181561618 1.17662276575729  20.9393226716839 0.074553151458133  15.5291627469426 0.074553151458133  C 8.11523988711195 0.074553151458133  0 1.17662276575729  0 1.17662276575729  L 0 17.7076669802446  L 8 17.7076669802446  L 8 4.78339604891815  C 7.41392285983067 4.78339604891815  10.2191909689558 3.98189087488241  15.5291627469426 3.98189087488241  C 18.7351834430856 3.98189087488241  21.2398871119473 4.48283160865475  22.7427093132643 5.58490122295389  C 23.944967074318 6.38640639698964  24.5460959548448 7.38828786453432  24.4459078080903 8.69073377234241  L 24.4459078080903 17.7076669802446  L 31.859830667921 17.7076669802446  L 31.859830667921 8.49035747883347  Z " fill-rule="nonzero" fill="#f7f8f8" stroke="none" transform="matrix(1 0 0 1 81 411 )" />
  </g>
</svg>