<?xml version="1.0" encoding="utf-8"?>
<svg version="1.1" xmlns:xlink="http://www.w3.org/1999/xlink" width="21px" height="21px" xmlns="http://www.w3.org/2000/svg">
  <g transform="matrix(1 0 0 1 -121 -440 )">
    <path d="M 19.0108184383819 14.7565851364064  C 18.3095014111007 14.456020696143  17.7083725305739 15.0571495766698  17.7083725305739 15.8586547507056  L 17.7083725305739 16.5599717779868  C 17.7083725305739 16.9607243650047  17.4078080903105 17.2612888052681  17.0070555032926 17.2612888052681  L 12.6989651928504 17.2612888052681  L 12.6989651928504 10.9494355597366  L 18.5098777046096 10.9494355597366  C 19.2111947318909 10.9494355597366  19.9125117591722 10.3483066792098  19.9125117591722 9.54680150517403  L 19.9125117591722 7.94379115710255  L 12.6989651928504 7.94379115710255  L 12.6989651928504 3.13476011288806  L 18.6100658513641 3.13476011288806  C 19.4115710253998 3.13476011288806  20.0126999059266 2.53363123236126  20.0126999059266 1.73212605832549  L 20.0126999059266 0.329492003762937  L 2.98071495766698 0.329492003762937  C 2.2793979303857 0.329492003762937  1.57808090310442 0.930620884289738  1.57808090310442 1.73212605832549  L 1.57808090310442 3.33513640639698  L 8.79162746942615 3.33513640639698  L 8.79162746942615 8.14416745061148  L 2.98071495766698 8.14416745061148  C 2.27939793038571 8.14416745061148  1.57808090310443 8.74529633113828  1.57808090310443 9.54680150517403  L 1.57808090310443 11.1498118532455  L 8.79162746942616 11.1498118532455  L 8.79162746942616 17.461665098777  L 2.07902163687677 17.461665098777  C 1.27751646284102 17.461665098777  0.676387582314213 18.0627939793038  0.676387582314213 18.8642991533396  L 0.676387582314213 20.4673095014111  L 18.4096895578551 20.4673095014111  C 19.7121354656632 20.4673095014111  20.7140169332079 19.4654280338664  20.7140169332079 18.1629821260583  L 20.7140169332079 14.7565851364064  L 19.0108184383819 14.7565851364064  Z " fill-rule="nonzero" fill="#f7f8f8" stroke="none" transform="matrix(1 0 0 1 121 440 )" />
  </g>
</svg>