<?xml version="1.0" encoding="utf-8"?>
<svg version="1.1" xmlns:xlink="http://www.w3.org/1999/xlink" width="20px" height="29px" xmlns="http://www.w3.org/2000/svg">
  <g transform="matrix(1 0 0 1 -204 -434 )">
    <path d="M 17.6641580432737 8.03269049858892  L 17.6641580432738 6.63005644402634  C 17.6641580432738 4.52610536218251  15.7605832549389 2.82290686735654  13.5564440263406 2.82290686735654  L 10.7511759172154 2.82290686735654  L 10.7511759172154 0.41839134524929  L 8.04609595484482 0.41839134524929  C 7.44496707431802 0.41839134524929  6.84383819379119 0.919332079021629  6.84383819379119 1.62064910630291  L 6.84383819379119 2.82290686735654  L 2.63593603010352 2.82290686735654  C 2.03480714957671 2.82290686735654  1.43367826904989 3.32384760112888  1.43367826904989 4.02516462841017  L 1.43367826904989 5.72836312323612  L 6.84383819379119 5.72836312323612  L 6.84383819379119 8.03269049858891  L 2.23518344308562 8.03269049858891  C 1.63405456255882 8.03269049858891  1.032925682032 8.53363123236124  1.032925682032 9.23494825964252  L 1.032925682032 10.9381467544685  L 6.84383819379116 10.9381467544685  L 6.84383819379116 13.1422859830668  L 2.63593603010349 13.1422859830668  C 2.03480714957668 13.1422859830668  1.43367826904986 13.6432267168391  1.43367826904986 14.3445437441204  L 1.43367826904986 16.0477422389464  L 6.84383819379116 16.0477422389464  L 6.84383819379116 17.9513170272813  L 1.83443085606774 17.9513170272813  C 1.23330197554094 17.9513170272813  0.632173095014124 18.4522577610536  0.632173095014124 19.1535747883349  L 0.632173095014124 20.8567732831609  L 6.84383819379116 20.8567732831609  L 6.84383819379116 22.6601599247413  L 1.83443085606774 22.6601599247413  C 1.23330197554094 22.6601599247413  0.632173095014124 23.1611006585137  0.632173095014124 23.862417685795  L 0.632173095014124 25.5656161806209  L 6.84383819379116 25.5656161806209  L 6.84383819379116 28.1705079962371  L 9.54891815616182 28.1705079962371  C 10.1500470366886 28.1705079962371  10.7511759172154 27.6695672624647  10.7511759172154 26.9682502351835  L 10.7511759172154 25.5656161806209  L 16.4619002822201 25.5656161806209  C 17.0630291627469 25.5656161806209  17.6641580432737 25.0646754468486  17.6641580432737 24.3633584195673  L 17.6641580432737 22.6601599247413  L 10.7511759172154 22.6601599247413  L 10.7511759172154 20.8567732831609  L 16.4619002822201 20.8567732831609  C 17.0630291627469 20.8567732831609  17.6641580432737 20.3558325493886  17.6641580432737 19.6545155221073  L 17.6641580432737 17.9513170272813  L 10.7511759172154 17.9513170272813  L 10.7511759172154 16.0477422389464  L 13.5564440263405 16.0477422389464  C 15.8607714016933 16.0477422389464  17.6641580432737 14.3445437441204  17.6641580432737 12.2405926622766  L 17.6641580432737 10.9381467544685  L 17.8645343367826 10.9381467544685  C 18.4656632173094 10.9381467544685  19.0667920978362 10.4372060206962  19.0667920978362 9.73588899341487  L 19.0667920978362 8.03269049858892  L 17.6641580432737 8.03269049858892  Z M 10.650987770461 10.9381467544685  L 10.7511759172154 10.9381467544685  L 14.5583254938853 10.9381467544685  L 14.5583254938853 12.2405926622766  C 14.5583254938853 12.7415333960489  14.0573847601129 13.1422859830668  13.4562558795861 13.1422859830668  L 10.650987770461 13.1422859830668  L 10.650987770461 10.9381467544685  Z M 13.5564440263406 5.8285512699906  L 13.5564440263406 5.72836312323612  C 14.1575729068674 5.72836312323612  14.6585136406397 6.12911571025401  14.6585136406397 6.73024459078081  L 14.6585136406397 8.13287864534338  L 10.8513640639699 8.13287864534338  L 10.8513640639699 5.8285512699906  L 13.5564440263406 5.8285512699906  Z " fill-rule="nonzero" fill="#f7f8f8" stroke="none" transform="matrix(1 0 0 1 204 434 )" />
  </g>
</svg>