<?xml version="1.0" encoding="utf-8"?>
<svg version="1.1" xmlns:xlink="http://www.w3.org/1999/xlink" width="31px" height="31px" xmlns="http://www.w3.org/2000/svg">
  <g transform="matrix(1 0 0 1 -154 -435 )">
    <path d="M 18.8725305738476 16  C 18.0710253998119 15.0477422389464  17.3697083725306 13.7452963311383  16.7685794920038 12.2424741298213  L 24.1825023518344 12.2424741298213  C 26.7873941674506 12.2424741298213  28.8913452492945 10.2387111947319  28.8913452492945 7.83419567262465  L 28.8913452492945 4.62817497648165  C 28.8913452492945 2.2236594543744  26.6872060206962 0.21989651928503  24.1825023518344 0.21989651928503  L 4.74600188146755 0.21989651928503  C 2.14111006585138 0.21989651928503  0.037158984007533 2.2236594543744  0 4.62817497648165  L 0 25.4673095014111  C 0.037158984007533 27.8718250235184  2.14111006585136 29.8755879586077  4.74600188146755 29.8755879586077  L 9.95578551269992 29.8755879586077  L 9.95578551269992 28.4729539040452  C 9.95578551269992 27.6714487300094  9.25446848541863 26.9701317027281  8.45296331138289 26.9701317027281  L 5.54750705550329 26.9701317027281  C 4.64581373471307 26.9701317027281  3.94449670743181 26.2688146754469  3.94449670743181 25.4673095014111  L 3.94449670743181 19  L 16.0672624647225 19  C 18.3715898400753 22.7622295390404  22.2789275634995 27.5712605832549  27.8894637817498 30.8774694261524  L 29.0917215428034 29.4748353715898  C 29.3922859830668 29.074082784572  29.4924741298213 28.6733301975541  29.4924741298213 28.1723894637817  C 29.3922859830668 27.6714487300094  29.1919096895579 27.2706961429915  28.79115710254 27.0703198494826  C 27.087958607714 25.7678739416745  23.6815616180621 23.0627939793038  20.7761053621825 19.255644402634  L 28.79115710254 19.255644402634  C 29.5926622765757 19.255644402634  30.293979303857 18.5543273753528  30.293979303857 17.752822201317  L 30.293979303857 16  L 18.8725305738476 16  Z M 23.4811853245532 9.33701787394168  L 3.94449670743181 9.33701787394168  L 3.94449670743181 4.62817497648165  C 3.94449670743181 3.82666980244591  4.64581373471309 3.12535277516463  5.54750705550329 3.12535277516463  L 23.4811853245532 3.12535277516463  C 24.3828786453434 3.12535277516463  25.0841956726246 3.82666980244591  25.0841956726246 4.62817497648165  L 25.0841956726246 7.83419567262465  C 25.0841956726246 8.63570084666038  24.3828786453434 9.33701787394168  23.4811853245532 9.33701787394168  Z M 12.2601128880527 12.2424741298213  C 12.3603010348072 12.4428504233302  13.0616180620884 14.0458607714017  14.2638758231421 16  L 3.94449670743181 16  L 3.94449670743181 12.2424741298213  L 12.2601128880527 12.2424741298213  Z " fill-rule="nonzero" fill="#f7f8f8" stroke="none" transform="matrix(1 0 0 1 154 435 )" />
  </g>
</svg>