<?xml version="1.0" encoding="utf-8"?>
<svg version="1.1" xmlns:xlink="http://www.w3.org/1999/xlink" width="36px" height="27px" xmlns="http://www.w3.org/2000/svg">
  <g transform="matrix(1 0 0 1 -152 -342 )">
    <path d="M 35.3998118532456 23.6893226716839  L 35.3998118532456 23.288570084666  C 35.3998118532456 23.288570084666  33.2958607714017 17.4776575729069  31.6928504233302 14.6723894637817  C 31.6928504233302 14.6723894637817  27.6853245531515 6.95790216368767  19.8706491063029 3.75188146754467  C 17.0653809971778 2.64981185324552  14.761053621825 1.54774223894637  10.052210724365 0.846425211665087  C 8.34901222953906 0.646048918156152  6.34524929444969 0.445672624647214  3.84054562558798 0.245296331138277  C 3.84054562558798 0.245296331138277  1.33584195672626 4.15263405456255  0.534336782690517 12.6686265286924  C 0.333960489181578 15.0731420507996  -0.0667920978362844 24.8915804327375  2.03715898400755 26.5947789275635  C 3.64016933207903 27.7970366886171  6.54562558795863 24.4908278457197  11.8555973659455 22.2866886171213  C 15.2619943555974 20.8840545625588  19.4698965192851 19.3812323612418  26.1825023518344 20.3831138287864  C 29.288334901223 20.8840545625588  32.293979303857 21.785747883349  34.9990592662277 23.488946378175  L 35.3998118532456 23.6893226716839  Z " fill-rule="nonzero" fill="#ffffff" stroke="none" transform="matrix(1 0 0 1 152 342 )" />
  </g>
</svg>