<?xml version="1.0" encoding="utf-8"?>
<svg version="1.1" xmlns:xlink="http://www.w3.org/1999/xlink" width="36px" height="30px" xmlns="http://www.w3.org/2000/svg">
  <g transform="matrix(1 0 0 1 -188 -337 )">
    <path d="M 20.8400752587018 12.9597836312323  C 17.5338664158043 20.8746472248354  9.81937911571026 24.8821730950141  9.81937911571026 24.8821730950141  C 7.01411100658515 26.4851834430856  0.70225776105363 28.5891345249294  0.70225776105363 28.5891345249294  L 0.301505174035754 28.6893226716839  C 13.2257761053622 29.8915804327375  23.444967074318 27.8878174976482  29.2558795860772 24.5816086547507  C 32.5620884289746 22.6780338664158  34.9666039510819 20.574082784572  35.1669802445908 18.6705079962371  C 36.068673565381 8.15075258701786  28.6547507055504 0.0355126999059134  28.6547507055504 0.0355126999059134  C 26.3504233301976 1.33795860771401  24.8476011288805 2.44002822201316  23.7455315145814 3.14134524929444  C 23.0442144873001 7.85018814675446  21.942144873001 10.1545155221072  20.8400752587018 12.9597836312323  Z " fill-rule="nonzero" fill="#ffffff" stroke="none" transform="matrix(1 0 0 1 188 337 )" />
  </g>
</svg>