<?xml version="1.0" encoding="utf-8"?>
<svg version="1.1" xmlns:xlink="http://www.w3.org/1999/xlink" width="36px" height="30px" xmlns="http://www.w3.org/2000/svg">
  <g transform="matrix(1 0 0 1 -152 -365 )">
    <path d="M 15.0616180620884 16.318673565381  C 18.2676387582314 8.50399811853245  25.9821260583255 4.49647224835371  25.9821260583255 4.49647224835371  C 28.7873941674506 2.89346190028221  35.0992474129821 0.789510818438373  35.0992474129821 0.789510818438373  L 35.5 0.689322671683904  C 22.5757290686736 -0.613123236124189  12.3565380997178 1.49082784571964  6.54562558795863 4.79703668861711  C 3.23941674506116 6.70061147695201  0.834901222953917 8.80456255879585  0.634524929444979 10.7081373471308  C -0.166980244590775 21.1277046095955  7.24694261523989 29.2429444967074  7.24694261523989 29.2429444967074  C 9.55126999059266 27.9404985888993  11.0540921919097 26.8384289746002  12.1561618062089 26.1371119473189  C 12.8574788334901 21.4282690498589  13.9595484477893 19.1239416745061  15.0616180620884 16.318673565381  Z " fill-rule="nonzero" fill="#ffffff" stroke="none" transform="matrix(1 0 0 1 152 365 )" />
  </g>
</svg>