<?xml version="1.0" encoding="utf-8"?>
<svg version="1.1" xmlns:xlink="http://www.w3.org/1999/xlink" width="176px" height="60px" xmlns="http://www.w3.org/2000/svg">
  <g transform="matrix(1 0 0 1 -10 -408 )">
    <path d="M 139.794285714286 56.25  C 137.682285714286 56.25  136.022857142857 57.9  136.022990619507 60  L 0.754285714285714 60  L 0.754279139327199 56.1777862578329  C 2.49400667558531 55.8385890942976  3.77142857142857 54.3424987039974  3.77142857142857 52.5  C 3.77142857142857 50.6574968291629  2.49400048177287 49.1614036516469  0.754266486237461 48.8222112754426  L 0.75425978704839 44.9277900309229  C 2.4939972024367 44.5886001890301  3.77142857142857 43.0925055358169  3.77142857142857 41.25  C 3.77142857142857 39.4074919725158  2.49399374742833 37.9113957645566  0.754247134003672 37.5722369653811  L 0.754240434774812 33.677793803909  C 2.49398772927428 33.3386112837281  3.77142857142857 31.8425123676211  3.77142857142857 30  C 3.77142857142857 28.1574848184426  2.49398382738474 26.6613841465046  0.7542277817108 26.3222283858967  L 0.754221082502606 22.427797576792  C 2.49397825609609 22.0886223783941  3.77142857142857 20.5925191994113  3.77142857142857 18.75  C 3.77142857142857 16.9074460563128  2.49393007803133 15.4113211978703  0.75428766955369 15.0713463286095  L 0.754287838999148 11.177784561635  C 2.49401093416298 10.8385841067335  3.77142857142857 9.34249563279968  3.77142857142857 7.5  C 3.77142857142857 5.65748139571389  2.49397908131701 4.16137858807474  0.754285714285714 3.82188353763434  L 0.754285714285714 0  L 136.022990619507 0  C 136.364137209464 1.72982783699558  137.94126885693 3  139.794285714286 3  C 141.647119903203 3  143.151638900195 1.7301008627702  143.490243541035 0  L 175 0  L 175 60  L 143.565714285714 60  C 143.565714285714 57.9  141.906285714286 56.25  139.794285714286 56.25  Z " fill-rule="nonzero" fill="#ffffff" stroke="none" transform="matrix(1 0 0 1 10 408 )" />
  </g>
</svg>