<?xml version="1.0" encoding="utf-8"?>
<svg version="1.1" xmlns:xlink="http://www.w3.org/1999/xlink" width="115px" height="100px" xmlns="http://www.w3.org/2000/svg">
  <g transform="matrix(1 0 0 1 -250 -471 )">
    <path d="M 99.8784657739841 1.01010101010101  L 103.121533539624 1.01012732006526  C 103.55581969247 2.76995131327694  105.106398728073 4.04040404040404  107 4.04040404040404  C 108.893587256417 4.04040404040404  110.444157354256 2.76997011974615  110.878197198324 1.01010101010101  L 115 1.01066034983674  L 115 63.6369229760994  C 112.76 63.6369229760994  111 65.4147007538771  111 67.6773270165034  C 111 69.9399532791297  112.76 71.7177310569074  115 71.7178294314245  L 115 99  L 0 99  L 0 71.7177310569074  C 2.24000000000001 71.7177310569074  4 69.939393939394  4 67.6767676767677  C 4 65.4141414141414  2.24000000000001 63.6363636363636  0 63.6369229760994  L 0 1.01010101010101  L 4.12114030702139 1.00853248201999  C 4.55488299570698 2.76918369780816  6.10582675160305 4.04040404040404  8 4.04040404040404  C 9.89360917882038 4.04040404040404  11.4441932566733 2.76994070348772  11.8784549458953 1.01010101010101  L 15.1215359080621 1.01013691745286  C 15.5558253299729 2.76995593230793  17.1064021703935 4.04040404040404  19 4.04040404040404  C 20.8936128520299 4.04040404040404  22.4441992722958 2.76993577461153  22.8784981623739 1.01010101010101  L 26.1215288805167 1.01010844013478  C 26.555808602428 2.76994222673259  28.1063919563684 4.04040404040404  30 4.04040404040404  C 31.8937093559184 4.04040404040404  33.4443573159797 2.76980627797033  33.8796335606016 1.01010101010101  L 37.1215282245844 1.0101057820931  C 37.5558070411009 2.76994094746749  39.106391003004 4.04040404040404  41 4.04040404040404  C 42.8936724720005 4.04040404040404  44.4442969116784 2.76985577254247  44.8791995047573 1.01010101010101  L 48.1215329751288 1.01012503260208  C 48.5558183488163 2.76995021236605  50.106397907623 4.04040404040404  52 4.04040404040404  C 53.8938927844204 4.04040404040404  55.4446577105295 2.76956012073306  55.8817933304579 1.01010101010101  L 59.1215272286562 1.01010174626813  C 59.5558046704684 2.76993900510093  61.1063895554683 4.04040404040404  63 4.04040404040404  C 64.8936099960504 4.04040404040404  66.4441945950527 2.76993960689291  66.8784647306628 1.01010101010101  L 70.1215266865213 1.01009954935399  C 70.5558033800077 2.76993794776718  72.1063887674979 4.04040404040404  74 4.04040404040404  C 75.8936473585439 4.04040404040404  77.4442557835559 2.76988947176727  77.8789043415509 1.01010101010101  L 81.1215796067658 1.01031397556202  C 81.5559293352826 2.77004114617133  83.1064656769199 4.04040404040404  85 4.04040404040404  C 86.8936092452835 4.04040404040404  88.4441933655202 2.76994061430453  88.8784557426729 1.01010101010101  L 92.1215274924124 1.01010281509597  C 92.5558052982948 2.76993951950769  94.1063899388264 4.04040404040404  96 4.04040404040404  C 97.8936100981975 4.04040404040404  99.4441947623393 2.76993946982741  99.8784657739841 1.01010101010101  Z " fill-rule="nonzero" fill="#ffffff" stroke="none" transform="matrix(1 0 0 1 250 471 )" />
  </g>
</svg>