<?xml version="1.0" encoding="utf-8"?>
<svg version="1.1" xmlns:xlink="http://www.w3.org/1999/xlink" width="24px" height="24px" xmlns="http://www.w3.org/2000/svg">
  <g transform="matrix(1 0 0 1 -288 -412 )">
    <path d="M 6.12322445312498 11.4699327083333  C 6.30723302083334 9.30833161458338  7.65399992187503 7.48343557291662  9.53712315104167 6.61674317708338  C 10.2007265625 5.17747901041673  11.4408191145833 3.405906796875  13.5461383593751 1.22375960937501  C 13.77515640625 0.987866223958349  13.9895177604167 0.766203177083298  14.1960444010417 0.553307500000017  C 13.48450015625 0.416786718750018  12.7503845572917 0.342890156250007  11.999693515625 0.342890156250007  C 8.43800166666665 0.342890156250007  5.2521083854167 1.94561684895831  3.11843499999998 4.46788007812501  C 3.3905171875 5.22248846354165  3.58529179687497 5.77403450520831  3.58529179687497 5.77403450520831  C 3.58529179687497 5.77403450520831  4.49358268229162 9.14878645833335  6.12322445312498 11.4699327083333  Z M 8.53684135416665 16.7454226041667  C 7.27425739583333 15.827378359375  6.39237531250001 14.4238499739583  6.16335723958332 12.8059335677083  C 5.08280984375 11.5619236718751  3.97582705729167 9.4639594270833  2.96280721354168 6.06080010416667  C 2.85613286458334 5.70011132812499  2.75628057291669 5.36295325520837  2.66135825520831 5.04045190104159  C 1.22062841145834 6.97692565104165  0.368113072916685 9.37633882812497  0.368113072916685 11.9744706250001  C 0.368113072916685 13.4357732031251  0.640195260416647 14.8339452343751  1.13252812499996 16.12293796875  C 1.91748924479168 16.2316109635417  2.484198359375 16.314328203125  2.484198359375 16.314328203125  C 2.484198359375 16.314328203125  5.75717929687505 17.0552125781251  8.53684135416665 16.7454226041667  Z M 2.4489422916667 16.9994103645834  C 2.08287049479168 16.9264997916666  1.74032940104166 16.8584659374999  1.41439039062499 16.7923773958333  C 2.8913356770833 20.0350322135416  5.81292817708334 22.4775361979166  9.35900393229167 23.3011644270833  C 9.82095739583332 22.8264462760417  10.1429790625 22.4990415885417  10.1429790625 22.4990415885417  C 10.1429790625 22.4990415885417  13.017590078125 20.0012951302084  14.3271821614584 17.397300625  C 13.6117205729167 17.704612265625  12.8257734375 17.875909453125  11.9996935416667 17.875909453125  C 11.1520815625 17.875909453125  10.3475336979167 17.6938462239584  9.61738874999998 17.3713448697918  C 8.02103106770835 17.684066171875  5.72975789062497 17.64883671875  2.4489422916667 16.9994103645834  Z M 11.9996935416667 6.07305848958339  C 13.1184283854167 6.07305848958339  14.1608149739583 6.39017682291666  15.05149109375 6.92997083333336  C 16.6458767708334 6.66521700520838  18.896084453125 6.74351059895838  22.0809118229166 7.41740036458339  C 22.316831875 7.46632718749993  22.54291859375 7.51477434895833  22.7621299479167 7.56175583333334  C 21.3820789583334 4.19822294270836  18.4722384895833 1.62410153645834  14.8977819791667 0.706989999999962  C 14.4328971614583 1.24678401041666  14.1030408072917 1.62460786458331  14.1030408072917 1.62460786458331  C 14.1030408072917 1.62460786458331  11.85288640625 3.83510914062498  10.5814817447917 6.2516840364583  C 11.0366131770834 6.13912036458333  11.5083733072917 6.07305848958339  11.9996935416667 6.07305848958339  Z M 10.6754447135417 22.9336536458334  C 10.478724765625 23.1137448697916  10.29178484375 23.2850420833333  10.1097216145834 23.4509296093751  C 10.7253575520833 23.5517146093749  11.3566361979167 23.60605109375  11.9996935416667 23.60605109375  C 14.751001484375 23.60605109375  17.2771554166667 22.6488334114583  19.268925 21.0519694270834  C 19.2190121614584 20.6438194791666  19.1896720572917 20.3859143489584  19.1896720572917 20.3859143489584  C 19.1896720572917 20.3859143489584  19.0340442447917 16.2345156770833  17.6745393229167 13.5811146614584  C 17.3123848697917 14.860833671875  16.5293690885417 15.9609677864584  15.4850371354167 16.7278078645834  C 14.9213126822916 18.3016741145833  13.5108822916667 20.3316044791666  10.6754447135417 22.9336536458334  Z M 23.6313006510417 11.9744706510417  C 23.6313006510417 10.6732195572916  23.4140346354167 9.42382666666674  23.0205680729167 8.25565867187504  C 22.4313675520834 8.16465369791672  22.0349696354166 8.10152317708332  22.0349696354166 8.10152317708332  C 22.0349696354166 8.10152317708332  18.7384313541667 7.31117901041659  15.94704390625 7.59647893229169  C 17.143086328125 8.67702632812495  17.9016386979167 10.234716875  17.9016386979167 11.9744706510417  C 17.9016386979167 12.1051287239584  17.8898866666667 12.23285546875  17.8820519791666 12.361568203125  C 18.8275176302083 13.75579625  19.5968360156249 16.1689334635416  19.8601508333333 20.2440105729166  C 19.86699953125 20.3418908854167  19.8728622135417 20.4338818489584  19.877765546875 20.5283244791666  C 22.1856674479167 18.403471796875  23.6313006510417 15.3580432552084  23.6313006510417 11.9744706510417  Z " fill-rule="nonzero" fill="#ffffff" stroke="none" transform="matrix(1 0 0 1 288 412 )" />
  </g>
</svg>