<?xml version="1.0" encoding="utf-8"?>
<svg version="1.1" xmlns:xlink="http://www.w3.org/1999/xlink" width="50px" height="50px" xmlns="http://www.w3.org/2000/svg">
  <g transform="matrix(1 0 0 1 -125 -24 )">
    <path d="M 0 24.9834983398437  C 0 38.7788778808594  11.1881187988281 49.9669966796875  24.9834983398437 49.9669966796875  C 38.7788778808594 49.9669966796875  50 38.7788778808594  50 24.9834983398437  C 50 11.1881187988281  38.8118812011719 0  24.9834983398437 0  C 11.1881187988281 0  0 11.1881187988281  0 24.9834983398437  Z M 4.62046206054687 25.0165016601563  C 4.62046206054687 13.7623762695312  13.7623762207031 4.62046206054687  24.9834983398437 4.62046206054687  C 36.2046204589844 4.62046206054687  45.3465346191406 13.7293729492188  45.3465346679688 24.9834983398437  C 45.3795379882813 36.2376237304688  36.2376237792969 45.3795379394531  24.9834983398437 45.3795379394531  C 13.7293729492187 45.3795379394531  4.62046206054687 36.2706270507812  4.62046206054687 25.0165016601563  Z M 21.2871287109375 12.7062706054687  L 22.7392739257812 29.5049504882812  C 23.1023102050781 31.2871287109375  23.9273927246094 31.7491749023438  24.9834983398437 31.9471947265625  C 26.105610546875 31.9471947265625  27.2277227539062 31.1221122070313  27.3927392578125 29.339933984375  L 28.7128712890625 12.8052805175781  C 28.7128712890625 11.0891089355469  26.8316831542969 9.53795385742187  25.0825082519531 9.53795380859376  C 23.3333333496094 9.53795375976563  21.2871287109375 11.0231022949219  21.2871287109375 12.7062706054687  Z M 21.8151814941406 37.3267326660156  C 21.8151814941406 39.0759076171875  23.2343233886719 40.4950495117187  24.9834983398437 40.4950495117187  C 26.7326732910156 40.4950495117187  28.1518151855469 39.0759076171875  28.1518151855469 37.3267326660156  C 28.1518151855469 35.5775577148437  26.7326732910156 34.1584158203125  24.9834983398437 34.1584158203125  C 23.2343234375 34.1584158203125  21.8151814941406 35.5775577148437  21.8151814941406 37.3267326660156  Z M 24.9834983398437 31.9471947265625  C 24.9834983398437 31.9471947265625  24.1584158203125 31.9471947265625  24.9834983398437 31.9471947265625  Z " fill-rule="nonzero" fill="#ffc100" stroke="none" transform="matrix(1 0 0 1 125 24 )" />
  </g>
</svg>