<?xml version="1.0" encoding="utf-8"?>
<svg version="1.1" xmlns:xlink="http://www.w3.org/1999/xlink" width="311px" height="73px" xmlns="http://www.w3.org/2000/svg">
  <defs>
    <linearGradient gradientUnits="userSpaceOnUse" x1="155.5" y1="0" x2="155.5" y2="73" id="LinearGradient24">
      <stop id="Stop25" stop-color="#ffffff" offset="0" />
      <stop id="Stop26" stop-color="#c0fff1" offset="1" />
    </linearGradient>
  </defs>
  <g transform="matrix(1 0 0 1 -346 -34 )">
    <path d="M 267.8125 40  C 267.8125 40  264.0625 28.828125  264.0625 28.828125  C 267.86460234375 27.6822859375  271.24998515625 26.56250546875  274.21875 25.46875  C 271.8229046875 24.99999765625  269.479178125 24.53125234375  267.1875 24.0625  C 267.1875 24.0625  269.609375 15.9375  269.609375 15.9375  C 268.984371875 16.0416671875  268.38541953125 16.17187421875  267.8125 16.328125  C 267.8125 16.328125  265.234375 5.078125  265.234375 5.078125  C 273.776084375 2.52602890625001  282.6822453125 1.14583437500001  291.953125 0.9375  C 297.42190234375 0.9375  301.79685859375 1.97915625  305.078125 4.0625  C 308.56772578125 6.4583453125  310.3125 9.47914843749999  310.3125 13.125  C 310.3125 16.7708515625  308.958346875 19.66144765625  306.25 21.796875  C 306.09374921875 21.9010421875  305.9635421875 22.0052078125  305.859375 22.109375  C 307.47396640625 22.52604375  309.0625 22.96874765625  310.625 23.4375  C 310.625 23.4375  307.5 34.0625  307.5 34.0625  C 302.6041421875 32.55207578125  297.73439921875 31.14583984375  292.890625 29.84375  C 290.4947796875 31.04167265625  287.9948046875 32.18749453125  285.390625 33.28125  C 285.390625 33.28125  294.6875 32.265625  294.6875 32.265625  C 294.94791796875 34.50521953125  295.182290625 36.770821875  295.390625 39.0625  C 299.60939609375 39.32291796875  303.7499796875 39.63541484375  307.8125 40  C 307.8125 40  306.875 51.640625  306.875 51.640625  C 303.38539921875 51.3281234375  299.973975 51.04166796875  296.640625 50.78125  C 296.7447921875 51.77083828125  296.8489578125 52.70832890625  296.953125 53.59375  C 300.911478125 53.4895828125  304.9218546875 53.4375  308.984375 53.4375  C 308.984375 53.4375  310.3125 64.765625  310.3125 64.765625  C 306.2499796875 64.765625  302.1875203125 64.84374921875  298.125 65  C 298.28125078125 66.82292578125  298.463540625 68.69790703125  298.671875 70.625  C 298.671875 70.625  284.921875 72.265625  284.921875 72.265625  C 284.66145703125 70.02603046875  284.427084375 67.83855234375  284.21875 65.703125  C 278.33330390625 66.06771015625  272.44794609375 66.562496875  266.5625 67.1875  C 266.5625 67.1875  265.234375 56.015625  265.234375 56.015625  C 271.01565390625 55.33853828125  276.9791359375 54.76562734375  283.125 54.296875  C 282.916665625 52.78645078125  282.73437578125 51.27604921875  282.578125 49.765625  C 277.94268515625 49.4531234375  273.41148046875 49.1406265625  268.984375 48.828125  C 268.984375 48.828125  270.703125 38.984375  270.703125 38.984375  C 269.71353671875 39.34896015625  268.7500046875 39.6874984375  267.8125 40  Z M 206.171875 56.875  C 206.171875 56.875  208.671875 68.515625  208.671875 68.515625  C 201.53642265625 70.13021640625  194.76565703125 70.9375  188.359375 70.9375  C 188.359375 70.9375  184.6875 70.9375  184.6875 70.9375  C 177.812465625 70.9375  171.9271078125 69.50522265625  167.03125 66.640625  C 161.66663984375 63.04685703125  158.984375 57.9167  158.984375 51.25  C 158.984375 45.26038671875  160.130196875 38.38545546875  162.421875 30.625  C 162.421875 30.625  176.171875 33.75  176.171875 33.75  C 173.880196875 39.32294453125  172.734375 44.2447703125  172.734375 48.515625  C 172.734375 52.26564375  173.90623828125 55  176.25 56.71875  C 178.4375109375 58.54167578125  182.0833078125 59.453125  187.1875 59.453125  C 188.90625859375 59.453125  190.62499140625 59.37500078125  192.34375 59.21875  C 192.34375 59.21875  182.734375 57.1875  182.734375 57.1875  C 183.776046875 51.979140625  185.15624140625 46.95314921875  186.875 42.109375  C 185.36457578125 42.16145859375  183.880215625 42.21354140625  182.421875 42.265625  C 182.421875 42.265625  181.25 30.625  181.25 30.625  C 187.708365625 30.46874921875  194.2187171875 30.18229375  200.78125 29.765625  C 200.93750078125 26.58852578125  201.14583203125 23.4895984375  201.40625 20.46875  C 199.06248828125 20.31249921875  196.744803125 20.20833359375  194.453125 20.15625  C 193.7239546875 23.02084765625  193.046878125 26.015609375  192.421875 29.140625  C 192.421875 29.140625  180.625 26.5625  180.625 26.5625  C 182.083340625 18.1249578125  184.374984375 10.13024609375  187.5 2.578125  C 187.5 2.578125  199.296875 5.078125  199.296875 5.078125  C 198.82812265625 6.22396406249999  198.38541875 7.42186874999999  197.96875 8.671875  C 199.68750859375 8.72395859375001  201.3281171875 8.8020828125  202.890625 8.90625  C 203.46354453125 5.83331796875001  204.062496875 2.86459765625  204.6875 0  C 204.6875 0  216.875 1.25  216.875 1.25  C 216.249996875 4.11459765625  215.70312734375 6.92706953125  215.234375 9.6875  C 218.98439375 10.05208515625  222.630190625 10.46874765625  226.171875 10.9375  C 226.171875 10.9375  224.921875 22.578125  224.921875 22.578125  C 221.11977265625 22.10937265625  217.3958515625 21.7187515625  213.75 21.40625  C 213.541665625 23.95834609375  213.35937578125 26.4843625  213.203125 28.984375  C 218.0989828125 28.6718734375  222.96872578125 28.28125234375  227.8125 27.8125  C 227.8125 27.8125  228.984375 39.453125  228.984375 39.453125  C 225.23435625 39.81771015625  221.45835234375 40.13020703125  217.65625 40.390625  C 216.97916328125 42.682303125  216.484375 44.73957421875  216.171875 46.5625  C 216.171875 48.07292421875  217.0052 48.828125  218.671875 48.828125  C 219.76563046875 48.828125  222.812475 48.28125546875  227.8125 47.1875  C 227.8125 47.1875  229.609375 57.1875  229.609375 57.1875  C 224.2968484375 58.43750625  220.05209921875 59.08854140625  216.875 59.140625  C 216.875 59.140625  215.3125 59.140625  215.3125 59.140625  C 212.44790234375 59.140625  209.8177203125 58.1510515625  207.421875 56.171875  C 205.59894921875 54.55728359375  204.6875 52.395846875  204.6875 49.6875  C 204.73958359375 46.979153125  205.10416328125 44.1145984375  205.78125 41.09375  C 203.69790625 41.302084375  201.69271796875 41.4583328125  199.765625 41.5625  C 197.68228125 47.0833609375  196.04167265625 52.89059453125  194.84375 58.984375  C 198.4896015625 58.56770625  202.26560546875 57.86458828125  206.171875 56.875  Z M 14.375 50.78125  C 9.99997812499998 50.989584375  5.62502187500002 51.1458328125  1.25 51.25  C 1.25 51.25  0 38.828125  0 38.828125  C 6.40628203124999 38.619790625  12.8905921875 38.3593765625  19.453125 38.046875  C 21.1198 34.088521875  22.76040859375 30.31251796875  24.375 26.71875  C 17.083296875 26.24999765625  10.000034375 25.80729375  3.125 25.390625  C 3.125 25.390625  4.921875 13.125  4.921875 13.125  C 8.61981015625003 13.28125078125  12.21352421875 13.463540625  15.703125 13.671875  C 14.60936953125 10.8593609375  13.61979609375 7.890640625  12.734375 4.765625  C 12.734375 4.765625  24.375 0  24.375 0  C 25.7291734375 5.15627578125  27.6041546875 9.97393593750001  30 14.453125  C 33.80210234375 14.7656265625  37.60414765625 15.05208203125  41.40625 15.3125  C 43.85417890625 9.7916390625  46.0676984375 4.89585468749999  48.046875 0.625  C 48.046875 0.625  60 4.765625  60 4.765625  C 57.91665625 8.61981093750001  56.041675 12.4739390625  54.375 16.328125  C 57.96876796875 16.58854296875  61.4843578125 16.8749984375  64.921875 17.1875  C 64.921875 17.1875  64.0625 29.453125  64.0625 29.453125  C 55.57287421875 28.88020546875  47.265665625 28.30729453125  39.140625 27.734375  C 39.140625 27.734375  35.078125 37.109375  35.078125 37.109375  C 45.078175 36.484371875  55.1301578125 35.7031296875  65.234375 34.765625  C 65.234375 34.765625  66.5625 47.1875  66.5625 47.1875  C 54.270771875 48.43750625  42.00526953125 49.40103828125  29.765625 50.078125  C 26.79686015625 57.31774453125  24.03647109375 64.60933828125  21.484375 71.953125  C 21.484375 71.953125  7.8125 68.828125  7.8125 68.828125  C 10.0000109375 62.52601015625  12.1874890625 56.5104453125  14.375 50.78125  Z M 34.0625 64.0625  C 34.0625 64.0625  37.8125 51.640625  37.8125 51.640625  C 49.32297421875 53.77605234375  59.11454296875 56.17186171875  67.1875 58.828125  C 67.1875 58.828125  63.4375 71.25  63.4375 71.25  C 52.18744375 68.38540234375  42.395875 65.98959296875  34.0625 64.0625  Z M 114.53125 46.640625  C 124.37504921875 47.83854765625  134.01036953125 49.374990625  143.4375 51.25  C 143.4375 51.25  141.25 63.75  141.25 63.75  C 131.82286953125 62.03124140625  122.39588046875 60.54688125  112.96875 59.296875  C 112.55208125 63.671896875  112.26562578125 68.0989359375  112.109375 72.578125  C 112.109375 72.578125  97.8125 70.9375  97.8125 70.9375  C 97.9166671875 59.895778125  99.01040625 49.34900859375  101.09375 39.296875  C 94.16663203125 38.93228984375  87.6302390625 38.67187578125  81.484375 38.515625  C 81.484375 38.515625  83.75 26.328125  83.75 26.328125  C 88.750025 26.328125  93.749975 26.40624921875  98.75 26.5625  C 97.9166625 17.34370390625  97.187503125 9.03649531249999  96.5625 1.640625  C 96.5625 1.640625  110.625 0  110.625 0  C 110.88541796875 3.02084843750001  111.14583203125 6.11977578124998  111.40625 9.296875  C 122.29172109375 8.09895234375  133.07286328125 7.5  143.75 7.5  C 143.75 7.5  144.921875 20  144.921875 20  C 133.41140078125 20  122.6042171875 20.59895234375  112.5 21.796875  C 112.65625078125 23.5677171875  112.81249921875 25.390615625  112.96875 27.265625  C 124.68755859375 27.9947953125  136.484315625 29.11457578125  148.359375 30.625  C 148.359375 30.625  146.171875 42.890625  146.171875 42.890625  C 135.3384875 41.79686953125  125.15629765625 40.91146171875  115.625 40.234375  C 115.20833125 42.36980234375  114.8437515625 44.50519765625  114.53125 46.640625  Z M 238.046875 22.578125  C 239.97396796875 22.369790625  241.9270734375 22.18750078125  243.90625 22.03125  C 243.64583203125 17.9687296875  243.38541796875 14.06251875  243.125 10.3125  C 243.125 10.3125  255.859375 9.140625  255.859375 9.140625  C 256.11979296875 13.15106171875  256.43228984375 17.2395625  256.796875 21.40625  C 258.5677171875 21.3020828125  260.3385328125 21.25  262.109375 21.25  C 262.109375 21.25  263.4375 33.4375  263.4375 33.4375  C 261.4583234375 33.4375  259.50521796875 33.46354140625  257.578125 33.515625  C 257.6822921875 35.13021640625  257.7864578125 36.770825  257.890625 38.4375  C 259.29688203125 38.02083125  260.59895234375 37.60416875  261.796875 37.1875  C 261.796875 37.1875  265.234375 48.515625  265.234375 48.515625  C 263.09894765625 49.3489625  260.9375109375 50.078121875  258.75 50.703125  C 259.01041796875 55.1823140625  259.2968734375 59.73956015625  259.609375 64.375  C 259.609375 64.375  246.875 65.703125  246.875 65.703125  C 246.61458203125 61.58852109375  246.3281265625 57.6041859375  246.015625 53.75  C 246.015625 53.75  241.796875 54.375  241.796875 54.375  C 241.796875 54.375  238.671875 42.890625  238.671875 42.890625  C 240.91146953125 42.47395625  243.07290625 42.05729375  245.15625 41.640625  C 244.99999921875 39.0364453125  244.84375078125 36.56251171875  244.6875 34.21875  C 242.86457421875 34.37500078125  241.0677171875 34.557290625  239.296875 34.765625  C 239.296875 34.765625  238.046875 22.578125  238.046875 22.578125  Z M 180.3125 14.765625  C 180.3125 14.765625  176.5625 27.5  176.5625 27.5  C 171.40622421875 25.36457265625  166.3802328125 23.8281296875  161.484375 22.890625  C 161.484375 22.890625  165.234375 10.3125  165.234375 10.3125  C 171.22398828125 11.354171875  176.2499796875 12.83853203125  180.3125 14.765625  Z M 281.40625 38.125  C 281.3020828125 37.03124453125  281.1979171875 36.0156296875  281.09375 35.078125  C 278.85415546875 35.96354609375  276.56251171875 36.8229125  274.21875 37.65625  C 276.66667890625 37.7604171875  279.06248828125 37.916665625  281.40625 38.125  Z M 291.640625 12.890625  C 286.3280984375 13.098959375  280.88544453125 13.723953125  275.3125 14.765625  C 280.57294296875 15.75521328125  285.72914140625 16.87499375  290.78125 18.125  C 294.2187671875 16.3541578125  296.249996875 15.0000046875  296.875 14.0625  C 296.875 13.28124609375  295.13022578125 12.890625  291.640625 12.890625  Z " fill-rule="nonzero" fill="url(#LinearGradient24)" stroke="none" transform="matrix(1 0 0 1 346 34 )" />
  </g>
</svg>