<?xml version="1.0" encoding="utf-8"?>
<svg version="1.1" xmlns:xlink="http://www.w3.org/1999/xlink" width="48px" height="48px" xmlns="http://www.w3.org/2000/svg">
  <g transform="matrix(1 0 0 1 -894 -42 )">
    <path d="M 2.92114617023146 31.0171387789949  C 2.92114617023146 31.0171387789949  9.9451443224222 23.9931406268042  9.9451443224222 23.9931406268042  C 9.9451443224222 23.9931406268042  2.91428679703584 16.9622831014178  2.91428679703584 16.9622831014178  C -0.968748592468114 13.0792477119139  -0.971819638454343 6.78667448613534  2.90742742384033 2.90742742384069  C 6.78667448613498 -0.971819638454009  13.0792477119135 -0.968748592467779  16.9622831014175 2.9142867970362  C 16.9622831014175 2.9142867970362  23.9931406268039 9.94514432242253  23.9931406268039 9.94514432242253  C 23.9931406268039 9.94514432242253  31.0171387789948 2.92114617023165  31.0171387789948 2.92114617023165  C 34.8963858412894 -0.958100892062998  41.188959067068 -0.955029846076767  45.0719944565719 2.92800554342715  C 48.9550298460758 6.81104093293107  48.9581008920621 13.1036141587097  45.0788538297674 16.9828612210043  C 45.0788538297674 16.9828612210043  38.0548556775765 24.0068593731952  38.0548556775765 24.0068593731952  C 38.0548556775765 24.0068593731952  45.0857132029628 31.0377168985815  45.0857132029628 31.0377168985815  C 48.9687485924667 34.9207522880854  48.971819638453 41.213325513864  45.0925725761583 45.0925725761587  C 41.2133255138637 48.9718196384533  34.9207522880851 48.9687485924671  31.0377168985812 45.0857132029632  C 31.0377168985812 45.0857132029632  24.0068593731949 38.0548556775768  24.0068593731949 38.0548556775768  C 24.0068593731949 38.0548556775768  16.9828612210041 45.0788538297676  16.9828612210041 45.0788538297676  C 13.1036141587094 48.9581008920623  6.81104093293088 48.955029846076  2.92800554342696 45.0719944565721  C -0.955029846076991 41.1889590670682  -0.95810089206322 34.8963858412896  2.92114617023146 31.0171387789949  Z " fill-rule="nonzero" fill="#ffffff" stroke="none" transform="matrix(1 0 0 1 894 42 )" />
  </g>
</svg>