<?xml version="1.0" encoding="utf-8"?>
<svg version="1.1" xmlns:xlink="http://www.w3.org/1999/xlink" width="29px" height="28px" xmlns="http://www.w3.org/2000/svg">
  <defs>
    <linearGradient gradientUnits="userSpaceOnUse" x1="0" y1="0" x2="29" y2="28" id="LinearGradient367">
      <stop id="Stop368" stop-color="#22e673" offset="0" />
      <stop id="Stop369" stop-color="#21e572" offset="1" />
    </linearGradient>
  </defs>
  <g transform="matrix(1 0 0 1 -301 -22 )">
    <path d="M 25.525 11.353125  L 18.45 11.353125  C 17.690625 11.353125  16.934375 10.59375  16.934375 9.83750000000001  L 16.934375 2.76249999999999  C 16.934375 2.00312500000001  17.4375 1.24687499999999  18.45 1.24687499999999  C 19.209375 1.24687499999999  19.965625 2.00624999999999  19.965625 2.76249999999999  L 19.9655434242281 6.30008157577186  L 25.778125 0.487500000000011  C 26.265625 0  27.071875 -0.231249999999989  27.8 0.487500000000011  C 28.41875 1.09687500000001  28.30625 2.00312500000001  27.8 2.50937500000001  L 21.9875009597059 8.32187500000001  L 25.525 8.32187500000001  C 26.284375 8.32187500000001  27.040625 9.08125000000001  27.040625 9.83750000000001  C 27.040625 10.596875  26.28125 11.353125  25.525 11.353125  Z M 0.128125000000011 6.296875  C -0.125 7.81562500000001  -0.378125000000011 13.121875  6.19375000000002 20.2  C 12.7625 27.528125  21.35625 29.04375  24.3875 27.021875  C 25.65 26.0125  26.784375 23.984375  26.6625 22.725  C 26.575 21.834375  26.409375 21.4625  24.134375 19.946875  C 21.60625 18.43125  21.353125 18.178125  20.34375 18.43125  C 19.584375 18.684375  19.334375 18.684375  18.06875 20.453125  C 17.815625 20.70625  16.3 23.234375  10.234375 17.421875  C 5.6875 12.871875  6.953125 11.103125  7.96249999999998 10.090625  C 8.72187500000001 9.33125000000001  9.47812499999998 9.08125000000001  9.73124999999999 7.81562500000001  C 9.73124999999999 7.30937499999999  9.73124999999999 6.046875  7.96249999999998 3.51875000000001  C 6.44687499999998 2.00312500000001  6.19375000000002 1.75  5.43437499999999 1.75  C 4.67500000000001 1.75  3.41250000000002 2.25624999999999  1.89687500000002 3.265625  C 0.634374999999977 4.02500000000001  0.128125000000011 5.28749999999999  0.128125000000011 6.296875  Z " fill-rule="nonzero" fill="url(#LinearGradient367)" stroke="none" transform="matrix(1 0 0 1 301 22 )" />
  </g>
</svg>