<?xml version="1.0" encoding="utf-8"?>
<svg version="1.1" xmlns:xlink="http://www.w3.org/1999/xlink" width="28px" height="28px" xmlns="http://www.w3.org/2000/svg">
  <defs>
    <linearGradient gradientUnits="userSpaceOnUse" x1="0" y1="0" x2="28" y2="28" id="LinearGradient565">
      <stop id="Stop566" stop-color="#ffc100" offset="0" />
      <stop id="Stop567" stop-color="#ff1e1e" offset="1" />
    </linearGradient>
  </defs>
  <g transform="matrix(1 0 0 1 -302 -22 )">
    <path d="M 19.44375 0.190625000000001  L 26.4375 0.193750000000001  C 27.1875 0.193750000000001  27.9375 0.943750000000002  27.9375 1.69375  L 27.9375 8.6875  C 27.934375 9.434375  27.434375 10.184375  26.4375 10.184375  C 25.6875 10.184375  24.940625 9.434375  24.940625 8.684375  L 24.9407017110562 5.18524393675906  L 19.19375 10.934375  C 18.709375 11.41875  17.915625 11.64375  17.19375 10.934375  C 16.58125 10.33125  16.69375 9.434375  17.19375 8.9375  L 22.9406243197384 3.190625  L 19.44375 3.190625  C 18.69375 3.190625  17.94375 2.440625  17.94375 1.690625  C 17.94375 0.940625000000001  18.69375 0.190625000000001  19.44375 0.190625000000001  Z M 1.91874999999999 3.39375  C 0.668749999999989 4.14375  0.171875 5.390625  0.171875 6.390625  C -0.078125 7.890625  -0.328125 13.134375  6.16562499999998 20.128125  C 12.65625 27.36875  21.146875 28.86875  24.14375 26.871875  C 25.39375 25.871875  26.5125 23.86875  26.390625 22.625  C 26.30625 21.74375  26.14375 21.375  23.896875 19.878125  C 21.4 18.38125  21.15 18.13125  20.15 18.38125  C 19.4 18.63125  19.15 18.63125  17.903125 20.378125  C 17.653125 20.628125  16.15625 23.125  10.159375 17.38125  C 5.66250000000002 12.884375  6.91250000000002 11.1375  7.91250000000002 10.1375  C 8.66250000000002 9.3875  9.41250000000002 9.1375  9.65937500000001 7.890625  C 9.65937500000001 7.390625  9.65937500000001 6.14375  7.91250000000002 3.64375  C 6.41250000000002 2.14375  6.16562499999998 1.896875  5.41562499999998 1.896875  C 4.66562499999998 1.896875  3.41874999999999 2.396875  1.91874999999999 3.39375  Z " fill-rule="nonzero" fill="url(#LinearGradient565)" stroke="none" transform="matrix(1 0 0 1 302 22 )" />
  </g>
</svg>