<?xml version="1.0" encoding="utf-8"?>
<svg version="1.1" xmlns:xlink="http://www.w3.org/1999/xlink" width="85px" height="170px" xmlns="http://www.w3.org/2000/svg">
  <defs>
    <mask fill="white" id="clip1992">
      <path d="M 84.8572305351382 0.00011217294467801  C 84.9048101386123 3.7400048243548E-05  84.9523999692996 0  84.8572305351382 0.00011217294467801  Z M 85 0.000112170048346627  L 85 10  C 43 10  10 43  10 85  C 10 127  43 160  85 159.999721357121  L 85 170  C 37.4 170  0 132.6  0 85  C 0 37.4476000307004  37.3252373518047 0.0748102482566892  85 0.000112170048346627  Z " fill-rule="evenodd" />
    </mask>
  </defs>
  <g>
    <path d="M 84.8572305351382 0.00011217294467801  C 84.9048101386123 3.7400048243548E-05  84.9523999692996 0  84.8572305351382 0.00011217294467801  Z M 85 0.000112170048346627  L 85 10  C 43 10  10 43  10 85  C 10 127  43 160  85 159.999721357121  L 85 170  C 37.4 170  0 132.6  0 85  C 0 37.4476000307004  37.3252373518047 0.0748102482566892  85 0.000112170048346627  Z " fill-rule="nonzero" fill="#7bcfa4" stroke="none" />
    <path d="M 84.8572305351382 0.00011217294467801  C 84.9048101386123 3.7400048243548E-05  84.9523999692996 0  84.8572305351382 0.00011217294467801  Z " stroke-width="2" stroke="#7bcfa4" fill="none" mask="url(#clip1992)" />
    <path d="M 85 0.000112170048346627  L 85 10  C 43 10  10 43  10 85  C 10 127  43 160  85 159.999721357121  L 85 170  C 37.4 170  0 132.6  0 85  C 0 37.4476000307004  37.3252373518047 0.0748102482566892  85 0.000112170048346627  Z " stroke-width="2" stroke="#7bcfa4" fill="none" mask="url(#clip1992)" />
  </g>
</svg>