<?xml version="1.0" encoding="utf-8"?>
<svg version="1.1" xmlns:xlink="http://www.w3.org/1999/xlink" width="36px" height="29px" xmlns="http://www.w3.org/2000/svg">
  <g transform="matrix(1 0 0 1 -189 -543 )">
    <path d="M 28.23504265625 2.2026766015625  C 29.9133048046875 3.8832171875  31.17017265625 5.81378828125  32.0092037890625 7.87914796875  C 32.8463162109375 9.9401905859375  33.2658717578125 12.13386328125  33.2658717578125 14.3274959765625  C 33.2658717578125 16.5276842578125  32.8441576953125 18.7301909375  32.0005696484375 20.801906328125  C 31.1613786328125 22.8715830859375  29.9005134765625 24.811068125  28.2177344140625 26.4916087109375  C 27.86105625 26.8481269921875  27.86105625 27.4242563671875  28.2177344140625 27.778536171875  C 28.5698556640625 28.1352143359375  29.146065 28.1352143359375  29.5004647265625 27.778536171875  C 31.3570059765625 25.9241134765625  32.7528995703125 23.7760098828125  33.68330875 21.4846434375  C 34.61595640625 19.1953555859375  35.081360859375 16.7603265234375  35.081360859375 14.3274959765625  C 35.081360859375 11.905578046875  34.61827484375 9.479303046875  33.692142734375 7.19649078125  C 32.7658507421875 4.913718515625  31.3744741015625 2.770091875  29.5200114453125 0.915589218750003  C 29.1655717578125 0.559030976562502  28.5895623046875 0.559030976562502  28.2351226171875 0.915589218750003  C 27.878404453125 1.2699889453125  27.878404453125 1.848276875  28.23504265625 2.2026766015625  Z M 25.432542734375 21.408575  C 26.400006796875 20.4388724609375  27.130551484375 19.317033046875  27.61322421875 18.119165234375  C 28.0981754296875 16.925614453125  28.339371875 15.6559552734375  28.339371875 14.3862561328125  C 28.339371875 13.1078828515625  28.0936984375 11.8295495703125  27.6045900390625 10.627204765625  C 27.117560234375 9.42274140625  26.3870955078125 8.2965449609375  25.4131958203125 7.324763828125  C 25.060794765625 6.9703641015625  24.482546796875 6.9703641015625  24.130385546875 7.324763828125  C 23.77374734375 7.67908359375  23.77374734375 8.25525296875  24.130385546875 8.611851171875  C 24.926166015625 9.4053531640625  25.5218021484375 10.327168203125  25.9217709765625 11.3077033984375  C 26.3218996875 12.2925556640625  26.52172421875 13.3382866796875  26.52172421875 14.3862561328125  C 26.52172421875 15.4275901171875  26.3241381640625 16.4647269140625  25.9304051171875 17.438626640625  C 25.5348333203125 18.4147648046875  24.94351421875 19.3279456640625  24.1476937890625 20.1235262890625  C 23.7932940625 20.4779659765625  23.7932940625 21.0541353515625  24.1476937890625 21.4085350390625  C 24.5042121484375 21.7629746875  25.07822296875 21.7629746875  25.432542734375 21.408575  Z M 12.4945946484375 20.806263359375  C 12.4945946484375 20.806263359375  12.5815756640625 16.9321300390625  12.5815756640625 15.7255480859375  C 5.609302890625 14.1775576171875  1.128500859375 22.610759921875  0.095841015625 24.84580453125  C 0.0153755859375 7.8879019921875  12.585932734375 8.6684527734375  12.585932734375 8.6684527734375  L 12.5880912890625 3.848480703125  L 23.862926953125 12.373101015625  L 12.4945946484375 20.806263359375  Z " fill-rule="nonzero" fill="#ffffff" stroke="none" transform="matrix(1 0 0 1 189 543 )" />
  </g>
</svg>