<?xml version="1.0" encoding="utf-8"?>
<svg version="1.1" xmlns:xlink="http://www.w3.org/1999/xlink" width="36px" height="14px" xmlns="http://www.w3.org/2000/svg">
  <g transform="matrix(1 0 0 1 -187 -648 )">
    <path d="M 9.91890625 8.5260546875  C 9.91796875 6.71769531250001  14.093125 6.3074609375  18.04609375 6.2958984375  C 21.9991015625 6.284765625  26.17890625 6.6733203125  26.1823046875 8.484453125  C 26.1902734375 11.074375  25.8643359375 13.0011328125  31.0155859375 13.549609375  C 36.166875 14.09796875  35.4946875 10.3765625  35.4882421875 7.8651171875  C 35.4795703125 4.970703125  28.7018359375 0.961484375000001  18.0312109375 0.987656250000001  C 7.36328125 1.01640625  0.60234375 5.058984375  0.6109765625 7.95578125  C 0.616171875 10.4659375  -0.0368750000000002 14.1884375  5.1113671875 13.6159375  C 10.259921875 13.0436328125  9.9254296875 11.1173828125  9.91890625 8.5260546875  Z " fill-rule="nonzero" fill="#ffffff" stroke="none" transform="matrix(1 0 0 1 187 648 )" />
  </g>
</svg>