<?xml version="1.0" encoding="utf-8"?>
<svg version="1.1" xmlns:xlink="http://www.w3.org/1999/xlink" width="44px" height="16px" xmlns="http://www.w3.org/2000/svg">
  <defs>
    <mask fill="white" id="clip519">
      <path d="M 4.12177985948478 14  L 4.12177985948635 7.5  L 0 7.5  L 4.12177985948478 4.24074021925363  L 4.12177985948478 2  C 4.12177985948478 0.879999999999979  5.02857142857143 0  6.18266978922717 0  L 41.9391100702576 0  C 43.0932084309134 0  44 0.879999999999979  44 2  L 44 14  C 44 15.12  43.0932084309134 16  41.9391100702576 16  L 6.18266978922717 16  C 5.02857142857143 16  4.12177985948478 15.12  4.12177985948478 14  Z " fill-rule="evenodd" />
    </mask>
  </defs>
  <g transform="matrix(1 0 0 1 -46 -152 )">
    <path d="M 4.12177985948478 14  L 4.12177985948635 7.5  L 0 7.5  L 4.12177985948478 4.24074021925363  L 4.12177985948478 2  C 4.12177985948478 0.879999999999979  5.02857142857143 0  6.18266978922717 0  L 41.9391100702576 0  C 43.0932084309134 0  44 0.879999999999979  44 2  L 44 14  C 44 15.12  43.0932084309134 16  41.9391100702576 16  L 6.18266978922717 16  C 5.02857142857143 16  4.12177985948478 15.12  4.12177985948478 14  Z " fill-rule="nonzero" fill="#ff5200" stroke="none" fill-opacity="0" transform="matrix(1 0 0 1 46 152 )" />
    <path d="M 4.12177985948478 14  L 4.12177985948635 7.5  L 0 7.5  L 4.12177985948478 4.24074021925363  L 4.12177985948478 2  C 4.12177985948478 0.879999999999979  5.02857142857143 0  6.18266978922717 0  L 41.9391100702576 0  C 43.0932084309134 0  44 0.879999999999979  44 2  L 44 14  C 44 15.12  43.0932084309134 16  41.9391100702576 16  L 6.18266978922717 16  C 5.02857142857143 16  4.12177985948478 15.12  4.12177985948478 14  Z " stroke-width="2" stroke="#ff5200" fill="none" transform="matrix(1 0 0 1 46 152 )" mask="url(#clip519)" />
  </g>
</svg>