<?xml version="1.0" encoding="utf-8"?>
<svg version="1.1" xmlns:xlink="http://www.w3.org/1999/xlink" width="51px" height="50px" xmlns="http://www.w3.org/2000/svg">
  <g transform="matrix(1 0 0 1 -98 -413 )">
    <path d="M 28.1714285714285 18.0952380952381  L 28.5761904761904 19.047619047619  L 29.304761904762 18.6507936507937  L 32.7047619047619 24.3650793650793  L 31.9761904761905 24.9206349206349  L 32.7047619047619 25.7142857142857  C 33.6761904761905 25  34.5666666666667 24.2063492063492  35.4571428571428 23.4920634920635  L 36.347619047619 25  L 37.2380952380952 24.5238095238095  L 36.2666666666667 22.8571428571429  L 36.9952380952382 22.2222222222222  L 36.4285714285714 21.2698412698413  C 36.1857142857143 21.5079365079365  35.9428571428571 21.7460317460317  35.7 21.9047619047619  L 32.7047619047619 16.7460317460317  L 33.2714285714286 16.4285714285714  L 33.5952380952381 16.984126984127  L 34 16.7460317460317  C 35.0523809523809 18.2539682539683  36.347619047619 19.4444444444445  37.8047619047619 20.3968253968254  C 37.8047619047619 21.5079365079365  37.5619047619047 22.5396825396825  37.1571428571428 23.5714285714286  L 38.2095238095238 23.8888888888889  C 38.6142857142857 22.9365079365079  38.7761904761905 21.984126984127  38.8571428571428 20.952380952381  C 39.6666666666667 21.3492063492063  40.5571428571429 21.7460317460317  41.5285714285714 21.984126984127  L 41.7714285714286 20.952380952381  C 40.7190476190476 20.7142857142857  39.7476190476191 20.3174603174604  38.8571428571428 19.8412698412698  C 38.7761904761905 18.2539682539683  38.2904761904762 16.5079365079365  37.5619047619047 14.6825396825397  L 37.0761904761905 13.8095238095238  L 33.1904761904762 15.952380952381  L 32.8666666666667 15.3968253968254  L 28.1714285714285 18.0952380952381  Z M 34.8095238095238 16.2698412698413  L 36.6714285714285 15.2380952380952  C 37.2380952380952 16.5873015873016  37.6428571428572 17.936507936508  37.7238095238095 19.2063492063492  C 36.6714285714285 18.4126984126984  35.7 17.4603174603175  34.8095238095238 16.2698412698413  Z M 34.2428571428571 21.3492063492063  L 34.8904761904762 22.5396825396825  C 34.4857142857143 22.9365079365079  34 23.3333333333333  33.5142857142857 23.6507936507937  L 32.7047619047619 22.2222222222222  L 34.2428571428571 21.3492063492063  Z M 31.4904761904762 20.2380952380952  L 33.0285714285714 19.3650793650793  L 33.7571428571429 20.6349206349206  L 32.2190476190476 21.5079365079365  L 31.4904761904762 20.2380952380952  Z M 30.1952380952381 18.0952380952381  L 31.7333333333334 17.2222222222222  L 32.4619047619048 18.4920634920635  L 30.9238095238096 19.3650793650793  L 30.1952380952381 18.0952380952381  Z M 23.6380952380953 24.3650793650793  L 23.8809523809524 23.4126984126984  C 22.7476190476191 22.9365079365079  21.695238095238 22.4603174603175  20.5619047619047 22.1428571428571  L 19.8333333333333 22.5396825396825  C 19.8333333333333 23.8888888888889  19.7523809523809 25.2380952380952  19.5095238095238 26.3492063492063  L 20.4809523809524 26.7460317460317  C 20.7238095238096 25.5555555555555  20.8047619047619 24.2857142857143  20.8047619047619 23.0952380952381  C 21.5333333333334 23.3333333333333  22.4238095238096 23.8095238095238  23.6380952380953 24.3650793650793  Z M 23.8809523809524 28.8888888888889  C 23.5571428571429 28.8888888888889  23.152380952381 28.8095238095238  22.7476190476191 28.7301587301587  L 22.5047619047619 29.6825396825396  C 24.0428571428572 29.9206349206349  25.2571428571429 30.2380952380952  26.2285714285714 30.6349206349207  L 26.4714285714286 29.6031746031746  C 25.9857142857143 29.4444444444445  25.5 29.2857142857143  24.9333333333333 29.1269841269841  C 25.0952380952381 28.1746031746032  25.0952380952381 27.1428571428571  25.0142857142857 26.1111111111111  L 24.5285714285714 25.3174603174604  L 20.8857142857142 27.3809523809524  L 21.3714285714286 28.2539682539683  L 23.9619047619048 26.7460317460317  C 23.9619047619048 27.5396825396825  23.9619047619048 28.2539682539683  23.8809523809524 28.8888888888889  Z M 31.6523809523809 27.6190476190476  L 31.8952380952381 26.5873015873016  C 31.0857142857143 26.2698412698413  30.2761904761904 26.1111111111111  29.304761904762 25.8730158730159  L 29.0619047619048 26.8253968253969  C 30.1142857142858 27.0634920634921  31.0047619047619 27.3015873015873  31.6523809523809 27.6190476190476  Z M 21.1285714285714 25.1587301587301  C 21.7761904761905 25.4761904761905  22.4238095238096 25.7936507936508  22.9095238095238 26.1111111111111  L 23.3142857142857 25.2380952380952  C 22.8285714285715 24.9206349206349  22.2619047619047 24.6825396825397  21.5333333333334 24.3650793650793  L 21.1285714285714 25.1587301587301  Z M 26.9571428571428 22.9365079365079  L 26.147619047619 23.4126984126984  L 27.1190476190476 25.0793650793651  C 27.5238095238095 25.8730158730159  27.7666666666666 26.6666666666667  27.7666666666666 27.3015873015873  C 27.7666666666666 27.9365079365079  27.4428571428571 28.6507936507937  26.7952380952381 29.3650793650794  L 27.7666666666666 29.8412698412699  C 28.4142857142858 29.047619047619  28.7380952380953 28.2539682539683  28.8190476190476 27.4603174603175  C 28.8190476190476 26.5873015873016  28.5761904761904 25.6349206349207  27.9285714285715 24.6031746031746  L 26.9571428571428 22.9365079365079  Z M 29.7095238095238 25.7936507936508  L 30.5999999999999 25.2380952380952  L 27.847619047619 20.6349206349206  L 26.0666666666667 21.6666666666667  C 25.9857142857143 21.3492063492063  25.8238095238095 21.031746031746  25.7428571428571 20.7142857142857  L 27.6047619047619 19.6825396825397  L 27.1190476190476 18.8095238095238  L 22.3428571428572 21.4285714285714  L 22.8285714285715 22.3015873015873  L 24.7714285714286 21.1904761904762  C 24.9333333333333 21.5079365079365  25.0142857142857 21.8253968253968  25.0952380952381 22.1428571428571  L 23.7190476190476 22.9365079365079  L 26.5523809523809 27.6984126984127  L 27.4428571428571 27.1428571428571  L 25.1761904761905 23.2539682539683  L 27.4428571428571 21.984126984127  L 29.7095238095238 25.7936507936508  Z M 20.7238095238096 33.3333333333333  C 21.1285714285714 33.0952380952381  21.3714285714286 32.8571428571428  21.4523809523809 32.4603174603175  C 21.5333333333334 32.1428571428572  21.2904761904762 31.2698412698413  20.6428571428571 30  L 19.5904761904763 30.2380952380952  C 20.1571428571429 31.2698412698413  20.4000000000001 31.9047619047619  20.3190476190476 32.1428571428572  C 20.2380952380952 32.3015873015873  20.1571428571429 32.4603174603175  19.9142857142857 32.6190476190476  L 14.9761904761905 35.3968253968254  C 14.5714285714286 35.6349206349206  14.3285714285715 35.5555555555555  14.0857142857143 35.1587301587302  L 12.6285714285715 32.5396825396825  L 18.7 29.1269841269841  L 16.352380952381 25.0793650793651  L 8.90476190476191 29.2063492063492  L 9.3904761904762 30.0793650793651  L 15.8666666666667 26.4285714285714  L 17.2428571428571 28.7301587301587  L 12.1428571428572 31.6666666666666  L 11.3333333333333 30.3174603174603  L 10.3619047619047 30.8730158730158  L 13.2761904761905 35.8730158730158  C 13.7619047619048 36.7460317460317  14.4095238095238 36.9047619047619  15.3 36.4285714285714  L 20.7238095238096 33.3333333333333  Z M 18.6190476190476 14.4444444444445  C 15.1380952380953 16.4285714285714  12.8714285714285 19.7619047619048  12.3047619047619 23.7301587301587  L 13.1142857142857 23.8095238095238  C 13.6 20.1587301587301  15.7857142857143 16.984126984127  19.0238095238095 15.1587301587302  C 22.2619047619047 13.3333333333333  26.147619047619 13.015873015873  29.6285714285714 14.4444444444445  L 29.952380952381 13.7301587301587  C 26.2285714285714 12.2222222222222  22.1 12.5396825396825  18.6190476190476 14.4444444444445  Z M 31.5714285714286 36.3492063492064  C 35.0523809523809 34.3650793650794  37.3190476190477 30.952380952381  37.8857142857143 27.0634920634921  L 37.0761904761905 26.984126984127  C 36.5904761904762 30.6349206349207  34.4047619047619 33.8095238095239  31.1666666666667 35.6349206349206  C 27.9285714285715 37.4603174603175  24.0428571428572 37.6984126984127  20.5619047619047 36.3492063492064  L 20.2380952380952 37.063492063492  C 21.8571428571429 37.6984126984127  23.4761904761905 38.015873015873  25.1761904761905 38.015873015873  C 27.3619047619047 38.015873015873  29.6285714285714 37.4603174603175  31.5714285714286 36.3492063492064  Z M 35.7 43.4126984126984  C 45.8190476190476 37.6984126984127  49.3 24.9206349206349  43.4714285714286 15  C 37.6428571428572 5.07936507936506  24.6095238095238 1.66666666666669  14.4904761904762 7.38095238095241  C 4.37142857142856 13.0952380952381  0.89047619047622 25.8730158730159  6.7190476190476 35.7936507936508  C 10.6857142857143 42.4603174603175  17.8095238095238 46.1904761904762  25.0952380952381 46.1904761904762  C 28.6571428571428 46.1904761904762  32.3 45.3174603174604  35.7 43.4126984126984  Z M 42.8238095238095 15.3968253968254  C 48.4095238095238 24.9206349206349  45.0904761904763 37.2222222222222  35.2952380952381 42.6984126984127  C 25.5809523809524 48.2539682539683  13.0333333333333 44.9206349206349  7.44761904761909 35.3968253968254  C 1.78095238095244 25.8730158730158  5.18095238095236 13.5714285714286  14.8952380952381 8.09523809523807  C 18.1333333333333 6.26984126984127  21.6142857142857 5.39682539682542  25.0952380952381 5.39682539682542  C 32.1380952380953 5.39682539682542  39.0190476190477 8.96825396825398  42.8238095238095 15.3968253968254  Z M 37.6428571428572 46.7460317460317  C 49.6238095238095 39.9206349206349  53.7523809523809 24.8412698412699  46.8714285714286 13.0952380952381  C 39.9095238095238 1.34920634920633  24.5285714285714 -2.69841269841265  12.547619047619 4.04761904761909  C 6.7190476190476 7.38095238095241  2.59047619047624 12.6984126984127  0.89047619047622 19.047619047619  C -0.809523809523799 25.3968253968254  0.0809523809524205 32.063492063492  3.40000000000004 37.6984126984127  C 8.01428571428569 45.5555555555555  16.4333333333333 50  25.1761904761905 50  C 29.4666666666666 50  33.7571428571429 48.968253968254  37.6428571428572 46.7460317460317  Z M 45.4952380952381 13.8888888888889  C 51.8904761904762 24.8412698412699  48.0857142857143 38.968253968254  36.8333333333333 45.3174603174604  C 25.6619047619048 51.6666666666667  11.2523809523809 47.8571428571429  4.77619047619043 36.9047619047619  C 1.6190476190476 31.5873015873016  0.809523809523799 25.3968253968254  2.42857142857146 19.4444444444445  C 4.04761904761906 13.4920634920635  7.93333333333327 8.57142857142856  13.3571428571428 5.47619047619048  C 17.0809523809524 3.33333333333331  21.047619047619 2.38095238095241  25.0952380952381 2.38095238095241  C 33.1904761904762 2.38095238095241  41.1238095238095 6.50793650793651  45.4952380952381 13.8888888888889  Z M 42.9047619047619 29.7619047619048  L 41.6095238095238 29.2857142857143  L 41.2047619047619 28.015873015873  L 40.3952380952381 29.1269841269841  L 39.0190476190477 29.047619047619  L 39.8285714285715 30.1587301587302  L 39.3428571428572 31.4285714285714  L 40.6380952380953 31.031746031746  L 41.7714285714286 31.8253968253969  L 41.7714285714286 30.4761904761905  L 42.9047619047619 29.7619047619048  Z M 28.0095238095238 10.1587301587302  L 27.5238095238095 11.4285714285714  L 28.8190476190476 11.031746031746  L 29.952380952381 11.8253968253968  L 29.952380952381 10.4761904761905  L 31.0857142857143 9.6825396825397  L 29.7904761904761 9.28571428571428  L 29.3857142857143 8.01587301587301  L 28.5761904761904 9.04761904761904  L 27.2 9.04761904761904  L 28.0095238095238 10.1587301587302  Z M 39.8285714285715 34.2857142857143  L 38.452380952381 34.3650793650794  L 37.6428571428572 33.2539682539683  L 37.2380952380952 34.5238095238095  L 35.9428571428571 35  L 37.0761904761905 35.7142857142857  L 37.0761904761905 37.063492063492  L 38.2095238095238 36.2698412698413  L 39.5047619047619 36.6666666666666  L 39.0190476190477 35.3968253968254  L 39.8285714285715 34.2857142857143  Z M 22.1809523809524 10.3968253968254  L 22.1809523809524 11.7460317460317  L 23.2333333333334 10.952380952381  L 24.6095238095238 11.3492063492064  L 24.1238095238095 10.0793650793651  L 24.9333333333333 8.96825396825398  L 23.5571428571429 8.96825396825398  L 22.7476190476191 7.93650793650795  L 22.3428571428572 9.20634920634922  L 21.047619047619 9.60317460317464  L 22.1809523809524 10.3968253968254  Z M 8.49999999999998 22.4603174603175  L 9.79523809523813 21.9047619047619  L 11.0095238095239 22.5396825396825  L 10.7666666666667 21.1904761904762  L 11.8190476190477 20.3174603174604  L 10.4428571428571 20.0793650793651  L 9.87619047619049 18.8095238095238  L 9.22857142857142 20  L 7.85238095238096 20.1587301587301  L 8.82380952380949 21.1904761904762  L 8.49999999999998 22.4603174603175  Z M 28.6571428571428 40.4761904761905  L 28.5761904761904 39.1269841269842  L 27.5238095238095 40.0793650793651  L 26.2285714285714 39.7619047619048  L 26.7142857142857 40.952380952381  L 25.9857142857143 42.1428571428572  L 27.3619047619047 41.984126984127  L 28.2523809523809 43.015873015873  L 28.5761904761904 41.6666666666667  L 29.8714285714286 41.1904761904761  L 28.6571428571428 40.4761904761905  Z M 11.0904761904762 16.7460317460317  L 12.4666666666667 16.6666666666667  L 13.3571428571428 17.6984126984127  L 13.6809523809523 16.3492063492064  L 14.9761904761905 15.8730158730158  L 13.7619047619048 15.1587301587302  L 13.6809523809523 13.8095238095238  L 12.6285714285715 14.6825396825397  L 11.2523809523809 14.3650793650794  L 11.8190476190477 15.6349206349206  L 11.0904761904762 16.7460317460317  Z M 34.4857142857143 39.2857142857143  L 34.8095238095238 38.015873015873  L 33.5142857142857 38.4920634920635  L 32.3809523809524 37.7777777777778  L 32.4619047619048 39.1269841269842  L 31.4095238095237 39.9206349206349  L 32.7047619047619 40.3174603174603  L 33.1904761904762 41.5873015873016  L 33.9190476190476 40.3968253968254  L 35.2952380952381 40.3968253968254  L 34.4857142857143 39.2857142857143  Z M 15.0571428571429 12.3015873015873  L 16.4333333333333 12.6190476190476  L 16.9190476190476 13.8888888888889  L 17.647619047619 12.6984126984127  L 19.0238095238095 12.6984126984127  L 18.1333333333333 11.6666666666666  L 18.5380952380952 10.3174603174603  L 17.2428571428571 10.7936507936508  L 16.1095238095238 10.0793650793651  L 16.1904761904762 11.4285714285714  L 15.0571428571429 12.3015873015873  Z " fill-rule="nonzero" fill="#bbbbbb" stroke="none" transform="matrix(1 0 0 1 98 413 )" />
  </g>
</svg>