<?xml version="1.0" encoding="utf-8"?>
<svg version="1.1" xmlns:xlink="http://www.w3.org/1999/xlink" width="50px" height="50px" xmlns="http://www.w3.org/2000/svg">
  <g transform="matrix(1 0 0 1 -254 -349 )">
    <path d="M 27.6190476190476 18.0952380952381  L 28.015873015873 19.047619047619  L 28.7301587301588 18.6507936507937  L 32.063492063492 24.3650793650793  L 31.3492063492063 24.9206349206349  L 32.063492063492 25.7142857142857  C 33.015873015873 25  33.8888888888889 24.2063492063492  34.7619047619047 23.4920634920635  L 35.6349206349206 25  L 36.5079365079365 24.5238095238095  L 35.5555555555555 22.8571428571429  L 36.2698412698413 22.2222222222222  L 35.7142857142857 21.2698412698413  C 35.4761904761905 21.5079365079365  35.2380952380952 21.7460317460317  35 21.9047619047619  L 32.063492063492 16.7460317460317  L 32.6190476190476 16.4285714285714  L 32.936507936508 16.984126984127  L 33.3333333333333 16.7460317460317  C 34.3650793650793 18.2539682539683  35.6349206349206 19.4444444444445  37.0634920634921 20.3968253968254  C 37.0634920634921 21.5079365079365  36.8253968253968 22.5396825396825  36.4285714285714 23.5714285714286  L 37.4603174603175 23.8888888888889  C 37.8571428571429 22.9365079365079  38.015873015873 21.984126984127  38.0952380952381 20.952380952381  C 38.8888888888889 21.3492063492063  39.7619047619048 21.7460317460317  40.7142857142857 21.984126984127  L 40.952380952381 20.952380952381  C 39.9206349206349 20.7142857142857  38.968253968254 20.3174603174604  38.0952380952381 19.8412698412698  C 38.015873015873 18.2539682539683  37.5396825396825 16.5079365079365  36.8253968253968 14.6825396825397  L 36.3492063492063 13.8095238095238  L 32.5396825396825 15.952380952381  L 32.2222222222222 15.3968253968254  L 27.6190476190476 18.0952380952381  Z M 34.1269841269841 16.2698412698413  L 35.9523809523809 15.2380952380952  C 36.5079365079365 16.5873015873016  36.9047619047619 17.936507936508  36.984126984127 19.2063492063492  C 35.9523809523809 18.4126984126984  35 17.4603174603175  34.1269841269841 16.2698412698413  Z M 33.5714285714286 21.3492063492063  L 34.2063492063492 22.5396825396825  C 33.8095238095239 22.9365079365079  33.3333333333333 23.3333333333333  32.8571428571428 23.6507936507937  L 32.063492063492 22.2222222222222  L 33.5714285714286 21.3492063492063  Z M 30.8730158730158 20.2380952380952  L 32.3809523809524 19.3650793650793  L 33.0952380952381 20.6349206349206  L 31.5873015873016 21.5079365079365  L 30.8730158730158 20.2380952380952  Z M 29.6031746031746 18.0952380952381  L 31.1111111111111 17.2222222222222  L 31.8253968253969 18.4920634920635  L 30.3174603174604 19.3650793650793  L 29.6031746031746 18.0952380952381  Z M 23.1746031746032 24.3650793650793  L 23.4126984126984 23.4126984126984  C 22.3015873015873 22.9365079365079  21.2698412698412 22.4603174603175  20.1587301587301 22.1428571428571  L 19.4444444444445 22.5396825396825  C 19.4444444444445 23.8888888888889  19.3650793650793 25.2380952380952  19.1269841269842 26.3492063492063  L 20.0793650793651 26.7460317460317  C 20.3174603174604 25.5555555555555  20.3968253968254 24.2857142857143  20.3968253968254 23.0952380952381  C 21.1111111111111 23.3333333333333  21.984126984127 23.8095238095238  23.1746031746032 24.3650793650793  Z M 23.4126984126984 28.8888888888889  C 23.0952380952381 28.8888888888889  22.6984126984127 28.8095238095238  22.3015873015873 28.7301587301587  L 22.063492063492 29.6825396825396  C 23.5714285714286 29.9206349206349  24.7619047619048 30.2380952380952  25.7142857142857 30.6349206349207  L 25.952380952381 29.6031746031746  C 25.4761904761905 29.4444444444445  25 29.2857142857143  24.4444444444444 29.1269841269841  C 24.6031746031746 28.1746031746032  24.6031746031746 27.1428571428571  24.5238095238095 26.1111111111111  L 24.047619047619 25.3174603174604  L 20.4761904761904 27.3809523809524  L 20.952380952381 28.2539682539683  L 23.4920634920635 26.7460317460317  C 23.4920634920635 27.5396825396825  23.4920634920635 28.2539682539683  23.4126984126984 28.8888888888889  Z M 31.031746031746 27.6190476190476  L 31.2698412698413 26.5873015873016  C 30.4761904761905 26.2698412698413  29.6825396825396 26.1111111111111  28.7301587301588 25.8730158730159  L 28.4920634920635 26.8253968253969  C 29.5238095238096 27.0634920634921  30.3968253968254 27.3015873015873  31.031746031746 27.6190476190476  Z M 20.7142857142857 25.1587301587301  C 21.3492063492063 25.4761904761905  21.984126984127 25.7936507936508  22.4603174603174 26.1111111111111  L 22.8571428571428 25.2380952380952  C 22.3809523809524 24.9206349206349  21.8253968253968 24.6825396825397  21.1111111111111 24.3650793650793  L 20.7142857142857 25.1587301587301  Z M 26.4285714285714 22.9365079365079  L 25.6349206349206 23.4126984126984  L 26.5873015873016 25.0793650793651  C 26.984126984127 25.8730158730159  27.2222222222222 26.6666666666667  27.2222222222222 27.3015873015873  C 27.2222222222222 27.9365079365079  26.9047619047619 28.6507936507937  26.2698412698413 29.3650793650794  L 27.2222222222222 29.8412698412699  C 27.8571428571429 29.047619047619  28.1746031746032 28.2539682539683  28.2539682539683 27.4603174603175  C 28.2539682539683 26.5873015873016  28.015873015873 25.6349206349207  27.3809523809524 24.6031746031746  L 26.4285714285714 22.9365079365079  Z M 29.1269841269842 25.7936507936508  L 29.9999999999999 25.2380952380952  L 27.3015873015873 20.6349206349206  L 25.5555555555556 21.6666666666667  C 25.4761904761905 21.3492063492063  25.3174603174603 21.031746031746  25.2380952380952 20.7142857142857  L 27.0634920634921 19.6825396825397  L 26.5873015873016 18.8095238095238  L 21.9047619047619 21.4285714285714  L 22.3809523809524 22.3015873015873  L 24.2857142857143 21.1904761904762  C 24.4444444444444 21.5079365079365  24.5238095238095 21.8253968253968  24.6031746031746 22.1428571428571  L 23.2539682539682 22.9365079365079  L 26.031746031746 27.6984126984127  L 26.9047619047619 27.1428571428571  L 24.6825396825397 23.2539682539683  L 26.9047619047619 21.984126984127  L 29.1269841269842 25.7936507936508  Z M 20.3174603174604 33.3333333333333  C 20.7142857142857 33.0952380952381  20.952380952381 32.8571428571428  21.031746031746 32.4603174603175  C 21.1111111111111 32.1428571428572  20.8730158730158 31.2698412698413  20.2380952380952 30  L 19.2063492063493 30.2380952380952  C 19.7619047619048 31.2698412698413  20.0000000000001 31.9047619047619  19.9206349206349 32.1428571428572  C 19.8412698412698 32.3015873015873  19.7619047619048 32.4603174603175  19.5238095238095 32.6190476190476  L 14.6825396825397 35.3968253968254  C 14.2857142857143 35.6349206349206  14.0476190476191 35.5555555555555  13.8095238095238 35.1587301587302  L 12.3809523809524 32.5396825396825  L 18.3333333333334 29.1269841269841  L 16.0317460317461 25.0793650793651  L 8.73015873015873 29.2063492063492  L 9.20634920634922 30.0793650793651  L 15.5555555555556 26.4285714285714  L 16.9047619047619 28.7301587301587  L 11.9047619047619 31.6666666666666  L 11.1111111111111 30.3174603174603  L 10.1587301587301 30.8730158730158  L 13.015873015873 35.8730158730158  C 13.4920634920635 36.7460317460317  14.1269841269841 36.9047619047619  15 36.4285714285714  L 20.3174603174604 33.3333333333333  Z M 18.2539682539683 14.4444444444445  C 14.8412698412699 16.4285714285714  12.6190476190476 19.7619047619048  12.0634920634921 23.7301587301587  L 12.8571428571429 23.8095238095238  C 13.3333333333333 20.1587301587301  15.4761904761905 16.984126984127  18.6507936507937 15.1587301587302  C 21.8253968253968 13.3333333333333  25.6349206349206 13.015873015873  29.047619047619 14.4444444444445  L 29.3650793650794 13.7301587301587  C 25.7142857142857 12.2222222222222  21.6666666666666 12.5396825396825  18.2539682539683 14.4444444444445  Z M 30.952380952381 36.3492063492064  C 34.3650793650793 34.3650793650794  36.5873015873016 30.952380952381  37.1428571428571 27.0634920634921  L 36.3492063492063 26.984126984127  C 35.8730158730159 30.6349206349207  33.7301587301587 33.8095238095239  30.5555555555555 35.6349206349206  C 27.3809523809524 37.4603174603175  23.5714285714286 37.6984126984127  20.1587301587301 36.3492063492064  L 19.8412698412698 37.063492063492  C 21.4285714285714 37.6984126984127  23.015873015873 38.015873015873  24.6825396825397 38.015873015873  C 26.8253968253968 38.015873015873  29.047619047619 37.4603174603175  30.952380952381 36.3492063492064  Z M 35 43.4126984126984  C 44.9206349206349 37.6984126984127  48.3333333333333 24.9206349206349  42.6190476190476 15  C 36.9047619047619 5.07936507936506  24.1269841269841 1.66666666666669  14.2063492063492 7.38095238095241  C 4.28571428571428 13.0952380952381  0.873015873015902 25.8730158730159  6.58730158730157 35.7936507936508  C 10.4761904761905 42.4603174603175  17.4603174603175 46.1904761904762  24.6031746031746 46.1904761904762  C 28.0952380952381 46.1904761904762  31.6666666666666 45.3174603174604  35 43.4126984126984  Z M 41.984126984127 15.3968253968254  C 47.4603174603174 24.9206349206349  44.2063492063493 37.2222222222222  34.6031746031746 42.6984126984127  C 25.0793650793651 48.2539682539683  12.7777777777778 44.9206349206349  7.30158730158735 35.3968253968254  C 1.7460317460318 25.8730158730158  5.07936507936506 13.5714285714286  14.6031746031746 8.09523809523807  C 17.7777777777778 6.26984126984127  21.1904761904762 5.39682539682542  24.6031746031746 5.39682539682542  C 31.5079365079366 5.39682539682542  38.2539682539683 8.96825396825398  41.984126984127 15.3968253968254  Z M 36.9047619047619 46.7460317460317  C 48.6507936507936 39.9206349206349  52.6984126984127 24.8412698412699  45.952380952381 13.0952380952381  C 39.1269841269841 1.34920634920633  24.047619047619 -2.69841269841265  12.3015873015873 4.04761904761909  C 6.58730158730157 7.38095238095241  2.53968253968259 12.6984126984127  0.873015873015902 19.047619047619  C -0.793650793650784 25.3968253968254  0.0793650793651182 32.063492063492  3.33333333333337 37.6984126984127  C 7.85714285714283 45.5555555555555  16.1111111111111 50  24.6825396825397 50  C 28.8888888888889 50  33.0952380952381 48.968253968254  36.9047619047619 46.7460317460317  Z M 44.6031746031746 13.8888888888889  C 50.8730158730159 24.8412698412699  47.1428571428571 38.968253968254  36.1111111111111 45.3174603174604  C 25.1587301587302 51.6666666666667  11.031746031746 47.8571428571429  4.68253968253964 36.9047619047619  C 1.58730158730157 31.5873015873016  0.793650793650784 25.3968253968254  2.38095238095241 19.4444444444445  C 3.96825396825398 13.4920634920635  7.77777777777771 8.57142857142856  13.0952380952381 5.47619047619048  C 16.7460317460317 3.33333333333331  20.6349206349206 2.38095238095241  24.6031746031746 2.38095238095241  C 32.5396825396825 2.38095238095241  40.3174603174603 6.50793650793651  44.6031746031746 13.8888888888889  Z M 42.063492063492 29.7619047619048  L 40.7936507936508 29.2857142857143  L 40.3968253968254 28.015873015873  L 39.6031746031746 29.1269841269841  L 38.2539682539683 29.047619047619  L 39.0476190476191 30.1587301587302  L 38.5714285714286 31.4285714285714  L 39.8412698412699 31.031746031746  L 40.952380952381 31.8253968253969  L 40.952380952381 30.4761904761905  L 42.063492063492 29.7619047619048  Z M 27.4603174603175 10.1587301587302  L 26.984126984127 11.4285714285714  L 28.2539682539683 11.031746031746  L 29.3650793650794 11.8253968253968  L 29.3650793650794 10.4761904761905  L 30.4761904761905 9.6825396825397  L 29.2063492063492 9.28571428571428  L 28.8095238095238 8.01587301587301  L 28.015873015873 9.04761904761904  L 26.6666666666667 9.04761904761904  L 27.4603174603175 10.1587301587302  Z M 39.0476190476191 34.2857142857143  L 37.6984126984127 34.3650793650794  L 36.9047619047619 33.2539682539683  L 36.5079365079365 34.5238095238095  L 35.2380952380952 35  L 36.3492063492063 35.7142857142857  L 36.3492063492063 37.063492063492  L 37.4603174603175 36.2698412698413  L 38.7301587301587 36.6666666666666  L 38.2539682539683 35.3968253968254  L 39.0476190476191 34.2857142857143  Z M 21.7460317460317 10.3968253968254  L 21.7460317460317 11.7460317460317  L 22.7777777777778 10.952380952381  L 24.1269841269841 11.3492063492064  L 23.6507936507936 10.0793650793651  L 24.4444444444444 8.96825396825398  L 23.0952380952381 8.96825396825398  L 22.3015873015873 7.93650793650795  L 21.9047619047619 9.20634920634922  L 20.6349206349206 9.60317460317464  L 21.7460317460317 10.3968253968254  Z M 8.33333333333331 22.4603174603175  L 9.60317460317464 21.9047619047619  L 10.7936507936508 22.5396825396825  L 10.5555555555555 21.1904761904762  L 11.5873015873016 20.3174603174604  L 10.2380952380952 20.0793650793651  L 9.6825396825397 18.8095238095238  L 9.04761904761904 20  L 7.69841269841271 20.1587301587301  L 8.65079365079362 21.1904761904762  L 8.33333333333331 22.4603174603175  Z M 28.0952380952381 40.4761904761905  L 28.015873015873 39.1269841269842  L 26.984126984127 40.0793650793651  L 25.7142857142857 39.7619047619048  L 26.1904761904762 40.952380952381  L 25.4761904761905 42.1428571428572  L 26.8253968253968 41.984126984127  L 27.6984126984127 43.015873015873  L 28.015873015873 41.6666666666667  L 29.2857142857143 41.1904761904761  L 28.0952380952381 40.4761904761905  Z M 10.8730158730159 16.7460317460317  L 12.2222222222222 16.6666666666667  L 13.0952380952381 17.6984126984127  L 13.4126984126984 16.3492063492064  L 14.6825396825397 15.8730158730158  L 13.4920634920635 15.1587301587302  L 13.4126984126984 13.8095238095238  L 12.3809523809524 14.6825396825397  L 11.031746031746 14.3650793650794  L 11.5873015873016 15.6349206349206  L 10.8730158730159 16.7460317460317  Z M 33.8095238095239 39.2857142857143  L 34.1269841269841 38.015873015873  L 32.8571428571428 38.4920634920635  L 31.7460317460317 37.7777777777778  L 31.8253968253969 39.1269841269842  L 30.7936507936507 39.9206349206349  L 32.063492063492 40.3174603174603  L 32.5396825396825 41.5873015873016  L 33.2539682539683 40.3968253968254  L 34.6031746031746 40.3968253968254  L 33.8095238095239 39.2857142857143  Z M 14.7619047619048 12.3015873015873  L 16.1111111111111 12.6190476190476  L 16.5873015873016 13.8888888888889  L 17.3015873015873 12.6984126984127  L 18.6507936507937 12.6984126984127  L 17.7777777777778 11.6666666666666  L 18.1746031746031 10.3174603174603  L 16.9047619047619 10.7936507936508  L 15.7936507936508 10.0793650793651  L 15.8730158730158 11.4285714285714  L 14.7619047619048 12.3015873015873  Z " fill-rule="nonzero" fill="#bbbbbb" stroke="none" transform="matrix(1 0 0 1 254 349 )" />
  </g>
</svg>