<?xml version="1.0" encoding="utf-8"?>
<svg version="1.1" xmlns:xlink="http://www.w3.org/1999/xlink" width="51px" height="51px" xmlns="http://www.w3.org/2000/svg">
  <g transform="matrix(1 0 0 1 -74 -477 )">
    <path d="M 28.1714285714285 18.4571428571428  L 28.5761904761904 19.4285714285714  L 29.304761904762 19.0238095238095  L 32.7047619047619 24.8523809523809  L 31.9761904761905 25.4190476190476  L 32.7047619047619 26.2285714285714  C 33.6761904761905 25.5  34.5666666666667 24.6904761904762  35.4571428571428 23.9619047619048  L 36.347619047619 25.5  L 37.2380952380952 25.0142857142857  L 36.2666666666667 23.3142857142857  L 36.9952380952382 22.6666666666667  L 36.4285714285714 21.6952380952381  C 36.1857142857143 21.9380952380952  35.9428571428571 22.1809523809524  35.7 22.3428571428572  L 32.7047619047619 17.0809523809524  L 33.2714285714286 16.7571428571429  L 33.5952380952381 17.3238095238095  L 34 17.0809523809524  C 35.0523809523809 18.6190476190476  36.347619047619 19.8333333333333  37.8047619047619 20.8047619047619  C 37.8047619047619 21.9380952380952  37.5619047619047 22.9904761904762  37.1571428571428 24.0428571428571  L 38.2095238095238 24.3666666666667  C 38.6142857142857 23.3952380952381  38.7761904761905 22.4238095238095  38.8571428571428 21.3714285714286  C 39.6666666666667 21.7761904761905  40.5571428571429 22.1809523809524  41.5285714285714 22.4238095238095  L 41.7714285714286 21.3714285714286  C 40.7190476190476 21.1285714285714  39.7476190476191 20.7238095238096  38.8571428571428 20.2380952380952  C 38.7761904761905 18.6190476190476  38.2904761904762 16.8380952380952  37.5619047619047 14.9761904761905  L 37.0761904761905 14.0857142857143  L 33.1904761904762 16.2714285714286  L 32.8666666666667 15.7047619047619  L 28.1714285714285 18.4571428571428  Z M 34.8095238095238 16.5952380952381  L 36.6714285714285 15.5428571428571  C 37.2380952380952 16.9190476190476  37.6428571428572 18.2952380952381  37.7238095238095 19.5904761904762  C 36.6714285714285 18.7809523809524  35.7 17.8095238095238  34.8095238095238 16.5952380952381  Z M 34.2428571428571 21.7761904761905  L 34.8904761904762 22.9904761904762  C 34.4857142857143 23.3952380952381  34 23.8  33.5142857142857 24.1238095238095  L 32.7047619047619 22.6666666666667  L 34.2428571428571 21.7761904761905  Z M 31.4904761904762 20.6428571428571  L 33.0285714285714 19.7523809523809  L 33.7571428571429 21.047619047619  L 32.2190476190476 21.9380952380952  L 31.4904761904762 20.6428571428571  Z M 30.1952380952381 18.4571428571428  L 31.7333333333334 17.5666666666667  L 32.4619047619048 18.8619047619048  L 30.9238095238096 19.7523809523809  L 30.1952380952381 18.4571428571428  Z M 23.6380952380953 24.8523809523809  L 23.8809523809524 23.8809523809524  C 22.7476190476191 23.3952380952381  21.695238095238 22.9095238095238  20.5619047619047 22.5857142857143  L 19.8333333333333 22.9904761904762  C 19.8333333333333 24.3666666666667  19.7523809523809 25.7428571428571  19.5095238095238 26.8761904761905  L 20.4809523809524 27.2809523809524  C 20.7238095238096 26.0666666666667  20.8047619047619 24.7714285714286  20.8047619047619 23.5571428571429  C 21.5333333333334 23.8  22.4238095238096 24.2857142857143  23.6380952380953 24.8523809523809  Z M 23.8809523809524 29.4666666666667  C 23.5571428571429 29.4666666666666  23.152380952381 29.3857142857143  22.7476190476191 29.3047619047619  L 22.5047619047619 30.2761904761904  C 24.0428571428572 30.5190476190476  25.2571428571429 30.8428571428571  26.2285714285714 31.2476190476191  L 26.4714285714286 30.1952380952381  C 25.9857142857143 30.0333333333333  25.5 29.8714285714286  24.9333333333333 29.7095238095238  C 25.0952380952381 28.7380952380953  25.0952380952381 27.6857142857143  25.0142857142857 26.6333333333334  L 24.5285714285714 25.8238095238096  L 20.8857142857142 27.9285714285715  L 21.3714285714286 28.8190476190476  L 23.9619047619048 27.2809523809524  C 23.9619047619048 28.0904761904762  23.9619047619048 28.8190476190476  23.8809523809524 29.4666666666667  Z M 31.6523809523809 28.1714285714286  L 31.8952380952381 27.1190476190476  C 31.0857142857143 26.7952380952381  30.2761904761904 26.6333333333333  29.304761904762 26.3904761904762  L 29.0619047619048 27.3619047619048  C 30.1142857142858 27.6047619047619  31.0047619047619 27.847619047619  31.6523809523809 28.1714285714286  Z M 21.1285714285714 25.6619047619047  C 21.7761904761905 25.9857142857143  22.4238095238096 26.3095238095238  22.9095238095238 26.6333333333333  L 23.3142857142857 25.7428571428571  C 22.8285714285715 25.4190476190476  22.2619047619047 25.1761904761905  21.5333333333334 24.8523809523809  L 21.1285714285714 25.6619047619047  Z M 26.9571428571428 23.3952380952381  L 26.147619047619 23.8809523809524  L 27.1190476190476 25.5809523809524  C 27.5238095238095 26.3904761904762  27.7666666666666 27.2  27.7666666666666 27.847619047619  C 27.7666666666666 28.4952380952381  27.4428571428571 29.2238095238095  26.7952380952381 29.952380952381  L 27.7666666666666 30.4380952380953  C 28.4142857142858 29.6285714285714  28.7380952380953 28.8190476190476  28.8190476190476 28.0095238095238  C 28.8190476190476 27.1190476190476  28.5761904761904 26.1476190476191  27.9285714285715 25.0952380952381  L 26.9571428571428 23.3952380952381  Z M 29.7095238095238 26.3095238095238  L 30.5999999999999 25.7428571428571  L 27.847619047619 21.047619047619  L 26.0666666666667 22.1  C 25.9857142857143 21.7761904761905  25.8238095238095 21.4523809523809  25.7428571428571 21.1285714285714  L 27.6047619047619 20.0761904761905  L 27.1190476190476 19.1857142857143  L 22.3428571428572 21.8571428571429  L 22.8285714285715 22.7476190476191  L 24.7714285714286 21.6142857142857  C 24.9333333333333 21.9380952380952  25.0142857142857 22.2619047619047  25.0952380952381 22.5857142857143  L 23.7190476190476 23.3952380952381  L 26.5523809523809 28.2523809523809  L 27.4428571428571 27.6857142857143  L 25.1761904761905 23.7190476190476  L 27.4428571428571 22.4238095238095  L 29.7095238095238 26.3095238095238  Z M 20.7238095238096 34  C 21.1285714285714 33.7571428571428  21.3714285714286 33.5142857142857  21.4523809523809 33.1095238095238  C 21.5333333333334 32.7857142857143  21.2904761904762 31.8952380952381  20.6428571428571 30.6  L 19.5904761904763 30.8428571428571  C 20.1571428571429 31.8952380952381  20.4000000000001 32.5428571428572  20.3190476190476 32.7857142857143  C 20.2380952380952 32.947619047619  20.1571428571429 33.1095238095238  19.9142857142857 33.2714285714286  L 14.9761904761905 36.1047619047619  C 14.5714285714286 36.347619047619  14.3285714285715 36.2666666666667  14.0857142857143 35.8619047619048  L 12.6285714285715 33.1904761904762  L 18.7 29.7095238095238  L 16.352380952381 25.5809523809524  L 8.90476190476191 29.7904761904762  L 9.3904761904762 30.6809523809524  L 15.8666666666667 26.9571428571429  L 17.2428571428571 29.3047619047619  L 12.1428571428572 32.3  L 11.3333333333333 30.9238095238095  L 10.3619047619047 31.4904761904762  L 13.2761904761905 36.5904761904762  C 13.7619047619048 37.4809523809524  14.4095238095238 37.6428571428572  15.3 37.1571428571428  L 20.7238095238096 34  Z M 18.6190476190476 14.7333333333333  C 15.1380952380953 16.7571428571429  12.8714285714285 20.1571428571429  12.3047619047619 24.2047619047619  L 13.1142857142857 24.2857142857143  C 13.6 20.5619047619047  15.7857142857143 17.3238095238095  19.0238095238095 15.4619047619048  C 22.2619047619047 13.6  26.147619047619 13.2761904761905  29.6285714285714 14.7333333333333  L 29.952380952381 14.0047619047619  C 26.2285714285714 12.4666666666667  22.1 12.7904761904762  18.6190476190476 14.7333333333333  Z M 31.5714285714286 37.0761904761905  C 35.0523809523809 35.052380952381  37.3190476190477 31.5714285714286  37.8857142857143 27.6047619047619  L 37.0761904761905 27.5238095238095  C 36.5904761904762 31.2476190476191  34.4047619047619 34.4857142857143  31.1666666666667 36.347619047619  C 27.9285714285715 38.2095238095238  24.0428571428572 38.452380952381  20.5619047619047 37.0761904761905  L 20.2380952380952 37.8047619047619  C 21.8571428571429 38.452380952381  23.4761904761905 38.7761904761905  25.1761904761905 38.7761904761905  C 27.3619047619047 38.7761904761905  29.6285714285714 38.2095238095238  31.5714285714286 37.0761904761905  Z M 35.7 44.2809523809524  C 45.8190476190476 38.452380952381  49.3 25.4190476190476  43.4714285714286 15.3  C 37.6428571428572 5.18095238095236  24.6095238095238 1.70000000000002  14.4904761904762 7.52857142857146  C 4.37142857142856 13.3571428571428  0.89047619047622 26.3904761904762  6.7190476190476 36.5095238095239  C 10.6857142857143 43.3095238095238  17.8095238095238 47.1142857142857  25.0952380952381 47.1142857142857  C 28.6571428571428 47.1142857142857  32.3 46.2238095238096  35.7 44.2809523809524  Z M 42.8238095238095 15.7047619047619  C 48.4095238095238 25.4190476190476  45.0904761904763 37.9666666666667  35.2952380952381 43.552380952381  C 25.5809523809524 49.2190476190476  13.0333333333333 45.8190476190476  7.44761904761909 36.1047619047619  C 1.78095238095244 26.3904761904762  5.18095238095236 13.8428571428572  14.8952380952381 8.25714285714283  C 18.1333333333333 6.39523809523809  21.6142857142857 5.50476190476193  25.0952380952381 5.50476190476193  C 32.1380952380953 5.50476190476193  39.0190476190477 9.14761904761905  42.8238095238095 15.7047619047619  Z M 37.6428571428572 47.6809523809524  C 49.6238095238095 40.7190476190476  53.7523809523809 25.3380952380953  46.8714285714286 13.3571428571428  C 39.9095238095238 1.37619047619045  24.5285714285714 -2.75238095238091  12.547619047619 4.12857142857148  C 6.7190476190476 7.52857142857146  2.59047619047624 12.952380952381  0.89047619047622 19.4285714285714  C -0.809523809523799 25.9047619047619  0.0809523809524205 32.7047619047619  3.40000000000004 38.452380952381  C 8.01428571428569 46.4666666666667  16.4333333333333 51  25.1761904761905 51  C 29.4666666666666 51  33.7571428571429 49.9476190476191  37.6428571428572 47.6809523809524  Z M 45.4952380952381 14.1666666666667  C 51.8904761904762 25.3380952380953  48.0857142857143 39.7476190476191  36.8333333333333 46.2238095238096  C 25.6619047619048 52.7  11.2523809523809 48.8142857142857  4.77619047619043 37.6428571428572  C 1.6190476190476 32.2190476190476  0.809523809523799 25.9047619047619  2.42857142857146 19.8333333333333  C 4.04761904761906 13.7619047619048  7.93333333333327 8.74285714285713  13.3571428571428 5.58571428571429  C 17.0809523809524 3.39999999999998  21.047619047619 2.42857142857146  25.0952380952381 2.42857142857146  C 33.1904761904762 2.42857142857146  41.1238095238095 6.63809523809524  45.4952380952381 14.1666666666667  Z M 42.9047619047619 30.3571428571429  L 41.6095238095238 29.8714285714286  L 41.2047619047619 28.5761904761905  L 40.3952380952381 29.7095238095238  L 39.0190476190477 29.6285714285714  L 39.8285714285715 30.7619047619048  L 39.3428571428572 32.0571428571429  L 40.6380952380953 31.6523809523809  L 41.7714285714286 32.4619047619048  L 41.7714285714286 31.0857142857143  L 42.9047619047619 30.3571428571429  Z M 28.0095238095238 10.3619047619048  L 27.5238095238095 11.6571428571428  L 28.8190476190476 11.2523809523809  L 29.952380952381 12.0619047619047  L 29.952380952381 10.6857142857143  L 31.0857142857143 9.87619047619049  L 29.7904761904761 9.47142857142856  L 29.3857142857143 8.17619047619047  L 28.5761904761904 9.22857142857142  L 27.2 9.22857142857142  L 28.0095238095238 10.3619047619048  Z M 39.8285714285715 34.9714285714286  L 38.452380952381 35.052380952381  L 37.6428571428572 33.9190476190476  L 37.2380952380952 35.2142857142857  L 35.9428571428571 35.7  L 37.0761904761905 36.4285714285714  L 37.0761904761905 37.8047619047619  L 38.2095238095238 36.9952380952381  L 39.5047619047619 37.4  L 39.0190476190477 36.1047619047619  L 39.8285714285715 34.9714285714286  Z M 22.1809523809524 10.6047619047619  L 22.1809523809524 11.9809523809524  L 23.2333333333334 11.1714285714286  L 24.6095238095238 11.5761904761905  L 24.1238095238095 10.2809523809524  L 24.9333333333333 9.14761904761905  L 23.5571428571429 9.14761904761905  L 22.7476190476191 8.09523809523811  L 22.3428571428572 9.3904761904762  L 21.047619047619 9.79523809523813  L 22.1809523809524 10.6047619047619  Z M 8.49999999999998 22.9095238095238  L 9.79523809523813 22.3428571428572  L 11.0095238095239 22.9904761904762  L 10.7666666666667 21.6142857142857  L 11.8190476190477 20.7238095238096  L 10.4428571428571 20.4809523809524  L 9.87619047619049 19.1857142857143  L 9.22857142857142 20.4  L 7.85238095238096 20.5619047619047  L 8.82380952380949 21.6142857142857  L 8.49999999999998 22.9095238095238  Z M 28.6571428571428 41.2857142857143  L 28.5761904761904 39.9095238095238  L 27.5238095238095 40.8809523809524  L 26.2285714285714 40.5571428571429  L 26.7142857142857 41.7714285714286  L 25.9857142857143 42.9857142857143  L 27.3619047619047 42.8238095238095  L 28.2523809523809 43.8761904761905  L 28.5761904761904 42.5  L 29.8714285714286 42.0142857142857  L 28.6571428571428 41.2857142857143  Z M 11.0904761904762 17.0809523809524  L 12.4666666666667 17  L 13.3571428571428 18.052380952381  L 13.6809523809523 16.6761904761905  L 14.9761904761905 16.1904761904762  L 13.7619047619048 15.4619047619048  L 13.6809523809523 14.0857142857143  L 12.6285714285715 14.9761904761905  L 11.2523809523809 14.652380952381  L 11.8190476190477 15.947619047619  L 11.0904761904762 17.0809523809524  Z M 34.4857142857143 40.0714285714286  L 34.8095238095238 38.7761904761905  L 33.5142857142857 39.2619047619048  L 32.3809523809524 38.5333333333333  L 32.4619047619048 39.9095238095238  L 31.4095238095237 40.7190476190476  L 32.7047619047619 41.1238095238095  L 33.1904761904762 42.4190476190476  L 33.9190476190476 41.2047619047619  L 35.2952380952381 41.2047619047619  L 34.4857142857143 40.0714285714286  Z M 15.0571428571429 12.547619047619  L 16.4333333333333 12.8714285714285  L 16.9190476190476 14.1666666666667  L 17.647619047619 12.952380952381  L 19.0238095238095 12.952380952381  L 18.1333333333333 11.9  L 18.5380952380952 10.5238095238095  L 17.2428571428571 11.0095238095239  L 16.1095238095238 10.2809523809524  L 16.1904761904762 11.6571428571428  L 15.0571428571429 12.547619047619  Z " fill-rule="nonzero" fill="#bbbbbb" stroke="none" transform="matrix(1 0 0 1 74 477 )" />
  </g>
</svg>