<?xml version="1.0" encoding="utf-8"?>
<svg version="1.1" xmlns:xlink="http://www.w3.org/1999/xlink" width="355px" height="60px" xmlns="http://www.w3.org/2000/svg">
  <g transform="matrix(1 0 0 1 -10 -344 )">
    <path d="M 294.408375266964 56.25  C 292.308375266964 56.25  290.658375266964 57.9  290.658507985224 60  L 0.75 60  L 0.749993462399203 56.1777862578329  C 2.47983618311039 55.8385890942976  3.75 54.3424987039974  3.75 52.5  C 3.75 50.6574968291629  2.47983002449007 49.1614036516468  0.749980881202021 48.8222112754426  L 0.749974220076524 44.9277900309229  C 2.47982676378649 44.5886001890301  3.75 43.0925055358169  3.75 41.25  C 3.75 39.4074919725159  2.47982332840886 37.9113957645566  0.749961638924106 37.572236965381  L 0.749954977759046 33.677793803909  C 2.47981734444886 33.3386112837282  3.75 31.8425123676211  3.75 30  C 3.75 28.1574848184426  2.47981346472915 26.6613841465046  0.749942396587443 26.3222283858967  L 0.749935735442932 22.427797576792  C 2.47980792509554 22.0886223783941  3.75 20.5925191994113  3.75 18.75  C 3.75 16.9074460563128  2.47976002076979 15.4113211978703  0.750001944158498 15.0713463286095  L 0.750002112641198 11.177784561635  C 2.4798404174916 10.8385841067335  3.75 9.34249563279968  3.75 7.5  C 3.75 5.65748139571389  2.47980874562771 4.16137858807474  0.75 3.82188353763434  L 0.75 0  L 290.730594726265 2.2618124944529E-05  C 291.069802983325 1.72985045512053  292.565886914479 3  294.408375266964 3  C 296.250681988899 3  297.746652582498 1.7301008627702  298.083333333334 0  L 355 0  L 355 60  L 298.083333333334 60  C 298.083333333334 57.9  296.508375266964 56.25  294.408375266964 56.25  Z " fill-rule="nonzero" fill="#ffffff" stroke="none" transform="matrix(1 0 0 1 10 344 )" />
  </g>
</svg>