<?xml version="1.0" encoding="utf-8"?>
<svg version="1.1" xmlns:xlink="http://www.w3.org/1999/xlink" width="177px" height="60px" xmlns="http://www.w3.org/2000/svg">
  <g transform="matrix(1 0 0 1 -189 -408 )">
    <path d="M 140.588571428571 56.25  C 138.464571428571 56.25  136.795714285714 57.9  136.795848520754 60  L 0.758571428571429 60  L 0.758564816255194 56.1777862578329  C 2.50817716806023 55.8385890942976  3.79285714285714 54.3424987039974  3.79285714285714 52.5  C 3.79285714285714 50.6574968291629  2.50817093905567 49.1614036516469  0.758552091272901 48.8222112754426  L 0.758545354020256 44.9277900309229  C 2.50816764108691 44.5886001890301  3.79285714285714 43.0925055358169  3.79285714285714 41.25  C 3.79285714285714 39.4074919725158  2.50816416644781 37.9113957645566  0.758532629083238 37.5722369653811  L 0.758525891790578 33.677793803909  C 2.50815811409971 33.3386112837281  3.79285714285714 31.8425123676211  3.79285714285714 30  C 3.79285714285714 28.1574848184426  2.50815419004034 26.6613841465046  0.758513166834156 26.3222283858967  L 0.75850642956228 22.427797576792  C 2.50814858709663 22.0886223783941  3.79285714285714 20.5925191994113  3.79285714285714 18.75  C 3.79285714285714 16.9074460563128  2.50810013529287 15.4113211978703  0.758573394948881 15.0713463286095  L 0.758573565357097 11.177784561635  C 2.50818145083436 10.8385841067335  3.79285714285714 9.34249563279968  3.79285714285714 7.5  C 3.79285714285714 5.65748139571389  2.50814941700631 4.16137858807474  0.758571428571429 3.82188353763434  L 0.758571428571429 0  L 136.795848520754 0  C 137.138933443609 1.72982783699558  138.725026066344 3  140.588571428571 3  C 142.451933084471 3  143.965000484855 1.7301008627702  144.3055290157 0  L 176 0  L 176 60  L 144.381428571429 60  C 144.381428571429 57.9  142.712571428571 56.25  140.588571428571 56.25  Z " fill-rule="nonzero" fill="#ffffff" stroke="none" transform="matrix(1 0 0 1 189 408 )" />
  </g>
</svg>