<?xml version="1.0" encoding="utf-8"?>
<svg version="1.1" xmlns:xlink="http://www.w3.org/1999/xlink" width="116px" height="100px" xmlns="http://www.w3.org/2000/svg">
  <g transform="matrix(1 0 0 1 -10 -471 )">
    <path d="M 100.746974172019 1.01010101010101  L 104.018242526925 1.01012732006526  C 104.456305081101 2.76995131327694  106.020367412665 4.04040404040404  107.930434782609 4.04040404040404  C 109.840488015168 4.04040404040404  111.40454133125 2.76997011974615  111.842355434831 1.01010101010101  L 116 1.01066034983674  L 116 63.6369229760994  C 113.74052173913 63.6369229760994  111.965217391304 65.4147007538771  111.965217391304 67.6773270165034  C 111.965217391304 69.9399532791297  113.74052173913 71.7177310569074  116 71.7178294314245  L 116 99  L 0 99  L 0 71.7177310569074  C 2.25947826086957 71.7177310569074  4.03478260869565 69.939393939394  4.03478260869565 67.6767676767677  C 4.03478260869565 65.4141414141414  2.25947826086957 63.6363636363636  0 63.6369229760994  L 0 1.01010101010101  L 4.15697630969114 1.00853248201999  C 4.59449067393051 2.76918369780816  6.15892089726916 4.04040404040404  8.0695652173913 4.04040404040404  C 9.97964056298404 4.04040404040404  11.5437079806444 2.76994070348772  11.9817458584683 1.01010101010101  L 15.253027524654 1.01013691745286  C 15.6910933763205 2.76995593230793  17.2551534936143 4.04040404040404  19.1652173913043 4.04040404040404  C 21.0752964420475 4.04040404040404  22.6393662224897 2.76993577461153  23.0774416246554 1.01010101010101  L 26.3486726099125 1.01010844013478  C 26.7867286772318 2.76994222673259  28.3507953646846 4.04040404040404  30.2608695652174 4.04040404040404  C 32.1710459590134 4.04040404040404  33.7351778143796 2.76980627797033  34.1742390698243 1.01010101010101  L 37.4443241221895 1.0101057820931  C 37.8823792762409 2.76994094746749  39.4464465769432 4.04040404040404  41.3565217391304 4.04040404040404  C 43.2666609282788 4.04040404040404  44.8307690587364 2.76985577254247  45.2694534134943 1.01010101010101  L 48.539981087956 1.01012503260208  C 48.9780428561973 2.76995021236605  50.5421057155154 4.04040404040404  52.4521739130435 4.04040404040404  C 54.3625353303718 4.04040404040404  55.9267851688819 2.76956012073306  56.3677219681141 1.01010101010101  L 59.6356274654271 1.01010174626813  C 60.0736812328203 2.76993900510093  61.6377494646463 4.04040404040404  63.5478260869565 4.04040404040404  C 65.4579022568856 4.04040404040404  67.0219702002271 2.76993960689291  67.460016597886 1.01010101010101  L 70.731279092491 1.01009954935399  C 71.1693321050512 2.76993794776718  72.733400843737 4.04040404040404  74.6434782608696 4.04040404040404  C 76.5535921181834 4.04040404040404  78.1176840947172 2.76988947176727  78.5561122053904 1.01010101010101  L 81.8269846468246 1.01031397556202  C 82.2651113295024 2.77004114617133  83.8291305958496 4.04040404040404  85.7391304347826 4.04040404040404  C 87.6492058474164 4.04040404040404  89.2132733078291 2.76994061430453  89.6513118795657 1.01010101010101  L 92.922584253216 1.01010281509597  C 93.3606383878452 2.76993951950769  94.9247063730771 4.04040404040404  96.8347826086956 4.04040404040404  C 98.7448588816601 4.04040404040404  100.308926890707 2.76993946982741  100.746974172019 1.01010101010101  Z " fill-rule="nonzero" fill="#ffffff" stroke="none" transform="matrix(1 0 0 1 10 471 )" />
  </g>
</svg>