<?xml version="1.0" encoding="utf-8"?>
<svg version="1.1" xmlns:xlink="http://www.w3.org/1999/xlink" width="315px" height="74px" xmlns="http://www.w3.org/2000/svg">
  <defs>
    <linearGradient gradientUnits="userSpaceOnUse" x1="157.5" y1="0" x2="157.5" y2="74" id="LinearGradient4">
      <stop id="Stop5" stop-color="#ffffff" offset="0" />
      <stop id="Stop6" stop-color="#c0fff1" offset="1" />
    </linearGradient>
  </defs>
  <g transform="matrix(1 0 0 1 -346 -34 )">
    <path d="M 30.859375 56.015625  C 30.859375 56.015625  29.296875 49.765625  29.296875 49.765625  C 27.9427015625001 49.5052070312499  26.6406312500001 49.29687578125  25.390625 49.140625  C 25.6510429687501 51.8489718750002  25.9374984374999 54.5312367187498  26.25 57.1875  C 28.5416781250001 57.6041687500001  30.8854046875001 58.0208312499999  33.28125 58.4375  C 43.3333835937501 60.0000078124999  53.046828125 60.8333328125  62.421875 60.9375  C 62.421875 60.9375  61.484375 71.5625  61.484375 71.5625  C 50.7551546875 71.4583328125  40.2604679687499 70.5989664062499  30 68.984375  C 22.44787890625 67.6302015625001  15.859403125 66.1718828124999  10.234375 64.609375  C 10.026040625 66.32813359375  9.84375078125004 68.04686640625  9.6875 69.765625  C 9.6875 69.765625  0 67.5  0 67.5  C 0.833337499999971 58.1770367187501  2.18749062500001 49.3229585937502  4.0625 40.9375  C 4.0625 40.9375  13.359375 43.125  13.359375 43.125  C 13.151040625 40.9895726562499  12.96875078125 38.984384375  12.8125 37.109375  C 9.58331718750014 37.3697929687501  6.45834843750004 37.7083312499999  3.4375 38.125  C 3.4375 38.125  2.109375 26.875  2.109375 26.875  C 5.39064140624987 26.4062476562499  8.67185859375013 26.0416679687501  11.953125 25.78125  C 11.744790625 23.85415703125  11.56250078125 22.0052171875  11.40625 20.234375  C 8.64581953125003 19.9739570312499  5.98959609374992 19.7135429687501  3.4375 19.453125  C 3.4375 19.453125  5.234375 8.515625  5.234375 8.515625  C 6.95313359374995 8.61979218750002  8.64582500000006 8.72395781249998  10.3125 8.828125  C 10.104165625 6.64061406249994  9.89583437500005 4.55730156250002  9.6875 2.578125  C 9.6875 2.578125  20.859375 1.25  20.859375 1.25  C 21.1197929687501 4.11459765625023  21.4062484374999 6.97915234374977  21.71875 9.84375  C 23.593759375 10.052084375  25.4166578125 10.2604156249999  27.1875 10.46875  C 27.1875 10.46875  28.359375 2.265625  28.359375 2.265625  C 40.0781835937501 2.6822937500001  51.3280710937499 3.28124609374981  62.109375 4.0625  C 62.109375 4.0625  61.171875 14.6875  61.171875 14.6875  C 58.9322804687499 14.53124921875  56.77084375 14.4010421875  54.6875 14.296875  C 54.84375078125 17.1614726562502  55 20.0260273437498  55.15625 22.890625  C 58.6458507812499 21.6406187500002  61.7187367187501 20.98958359375  64.375 20.9375  C 66.8750125000001 20.9375  69.062490625 21.874990625  70.9375 23.75  C 72.812509375 25.8854273437501  73.75 28.9843546874999  73.75 33.046875  C 73.75 34.5572992187499  73.4635445312501 36.5364460937499  72.890625 38.984375  C 73.5677117187499 39.2968765625001  74.2447882812501 39.6354148437499  74.921875 40  C 74.921875 40  72.109375 49.453125  72.109375 49.453125  C 71.32812109375 49.1406234374999  70.5729203124999 48.8281265625001  69.84375 48.515625  C 68.74999453125 51.4323062499998  67.4479242187499 54.6353992187501  65.9375 58.125  C 65.9375 58.125  57.5 52.890625  57.5 52.890625  C 57.9687523437501 51.5364515625001  58.4114562499999 50.3125054687498  58.828125 49.21875  C 58.1510382812501 49.5312515625001  57.4739617187499 49.791665625  56.796875 50  C 56.9010421875 52.6562632812502  57.03124921875 55.3645695312498  57.1875 58.125  C 57.1875 58.125  47.1875 59.140625  47.1875 59.140625  C 47.0833328125 57.0051976562499  46.9791671875 54.9479265625  46.875 52.96875  C 41.8749749999999 54.2187562499998  36.53648671875 55.2343710937498  30.859375 56.015625  Z M 178.59375 41.484375  C 178.43749921875 39.2447804687499  178.28125078125 37.1354265625  178.125 35.15625  C 174.94790078125 36.9270921875  171.588559375 38.749990625  168.046875 40.625  C 168.046875 40.625  164.609375 33.203125  164.609375 33.203125  C 167.2135546875 31.5885335937501  169.73957109375 30.1041734374999  172.1875 28.75  C 169.27081875 28.8541671875  166.458346875 28.98437421875  163.75 29.140625  C 163.75 29.140625  162.8125 19.765625  162.8125 19.765625  C 162.8125 19.765625  169.84375 19.453125  169.84375 19.453125  C 168.12499140625 17.2656140624999  166.09376171875 14.9739703125001  163.75 12.578125  C 163.75 12.578125  170.3125 6.328125  170.3125 6.328125  C 172.03125859375 7.99479999999994  174.036446875 10.1301953124998  176.328125 12.734375  C 176.06770703125 9.55727578125016  175.80729296875 6.56251406250021  175.546875 3.75  C 175.546875 3.75  186.25 2.890625  186.25 2.890625  C 186.458334375 5.18230312500009  186.64062421875 7.52602968749989  186.796875 9.921875  C 188.88021875 7.63019687499991  190.88540703125 5.57292578124998  192.8125 3.75  C 192.8125 3.75  199.6875 10  199.6875 10  C 197.0833203125 12.6041796875002  194.45313828125 15.3124859374998  191.796875 18.125  C 191.796875 18.125  187.109375 13.828125  187.109375 13.828125  C 187.26562578125 15.54688359375  187.3958328125 17.2395750000001  187.5 18.90625  C 191.51043671875 18.85416640625  195.46873046875 18.828125  199.375 18.828125  C 199.375 18.828125  200.15625 26.640625  200.15625 26.640625  C 201.614590625 19.0364203125  203.6458203125 11.8489921874998  206.25 5.078125  C 206.25 5.078125  217.1875 7.5  217.1875 7.5  C 216.4583296875 9.53126015625003  215.7291703125 11.6145726562499  215 13.75  C 220.208359375 14.0625015625001  225.416640625 14.8177023437502  230.625 16.015625  C 230.625 16.015625  228.671875 26.328125  228.671875 26.328125  C 222.57809453125 25.2864531250002  217.05731640625 24.5572937500001  212.109375 24.140625  C 211.2760375 27.5781421874999  210.57291953125 31.0937320312501  210 34.6875  C 210 34.6875  200.234375 32.5  200.234375 32.5  C 200.234375 32.5  198.671875 40.3125  198.671875 40.3125  C 195.18227421875 39.3749953124998  191.97918125 38.6458359375001  189.0625 38.125  C 189.1666671875 38.7500031250001  189.21875 39.3229140624999  189.21875 39.84375  C 189.21875 39.84375  198.984375 42.890625  198.984375 42.890625  C 198.984375 42.890625  197.578125 45.859375  197.578125 45.859375  C 198.9322984375 45.91145859375  200.23436875 45.96354140625  201.484375 46.015625  C 201.484375 46.015625  200.625 55.703125  200.625 55.703125  C 198.0208203125 55.5989578125  195.49480390625 55.52083359375  193.046875 55.46875  C 192.47395546875 56.6145890624998  191.95312734375 57.7604109375002  191.484375 58.90625  C 193.359384375 59.0104171875  195.36457265625 59.08854140625  197.5 59.140625  C 197.5 59.140625  196.5625 69.765625  196.5625 69.765625  C 193.90623671875 69.60937421875  190.78126796875 69.3229187500001  187.1875 68.90625  C 186.6666640625 70.2083398437499  186.11979453125 71.5364515625001  185.546875 72.890625  C 185.546875 72.890625  175.546875 69.453125  175.546875 69.453125  C 175.91146015625 68.5677039062498  176.2499984375 67.7343789062502  176.5625 66.953125  C 172.44789609375 65.9114531250002  169.453134375 64.6093828124999  167.578125 63.046875  C 165.23436328125 60.9114476562499  164.0625 58.5677210937502  164.0625 56.015625  C 164.0625 55.4947890624999  164.08854140625 54.9739609375001  164.140625 54.453125  C 163.46353828125 54.40104140625  162.78646171875 54.375  162.109375 54.375  C 162.109375 54.375  163.75 44.6875  163.75 44.6875  C 164.94792265625 44.6875  166.1197859375 44.71354140625  167.265625 44.765625  C 168.04687890625 43.2031171875001  168.958328125 41.5364671875  170 39.765625  C 170 39.765625  178.59375 41.484375  178.59375 41.484375  Z M 82.109375 41.5625  C 82.109375 31.7707843749999  83.48956953125 22.3177539062499  86.25 13.203125  C 86.25 13.203125  93.4375 14.765625  93.4375 14.765625  C 94.2187539062499 14.5052070312499  95.05207890625 14.270834375  95.9375 14.0625  C 99.4271007812499 14.0625  101.71874453125 14.4791624999998  102.8125 15.3125  C 104.479175 16.0937539062502  105.85936953125 17.8645695312498  106.953125 20.625  C 108.25521484375 23.2812632812502  108.93229140625 28.6197515624999  108.984375 36.640625  C 108.984375 44.4531640625  108.3072984375 50.0781078125001  106.953125 53.515625  C 104.7656140625 58.6719007812499  101.40627265625 61.25  96.875 61.25  C 91.6666406250001 61.25  87.8645953124999 59.6354328124999  85.46875 56.40625  C 83.2291554687499 52.9687328125001  82.109375 48.0208656250002  82.109375 41.5625  Z M 257.578125 40.15625  C 257.578125 40.15625  247.1875 43.4375  247.1875 43.4375  C 244.1666515625 36.3541312500001  241.9791734375 28.958371875  240.625 21.25  C 240.625 21.25  252.109375 17.8125  252.109375 17.8125  C 252.2135421875 18.6458375000002  252.369790625 19.4531210937498  252.578125 20.234375  C 253.77604765625 19.8697898437499  254.99999375 19.5312515625001  256.25 19.21875  C 254.32290703125 15.9374835937501  252.73438125 12.4739765625  251.484375 8.828125  C 251.484375 8.828125  263.75 3.75  263.75 3.75  C 265.208340625 8.28127265625017  267.2395703125 12.4739390625  269.84375 16.328125  C 271.35417421875 16.0677070312499  272.91665859375 15.833334375  274.53125 15.625  C 272.7604078125 12.1874828125001  271.354171875 8.54168593750001  270.3125 4.6875  C 270.3125 4.6875  282.109375 0  282.109375 0  C 283.567715625 5.10419218749985  285.651028125 9.81768671874988  288.359375 14.140625  C 289.34896328125 14.08854140625  290.2604125 14.03645859375  291.09375 13.984375  C 293.54167890625 8.98435000000018  295.7551984375 4.53126953125002  297.734375 0.625  C 297.734375 0.625  310.3125 5.078125  310.3125 5.078125  C 308.48957421875 8.25522421874985  306.7968828125 11.3801929687502  305.234375 14.453125  C 306.74479921875 14.7656265625001  308.020828125 15.1822890624999  309.0625 15.703125  C 312.23959921875 17.3697999999999  313.90624921875 19.9478992187501  314.0625 23.4375  C 313.9583328125 26.3020976562502  313.09896640625 30.2864328125002  311.484375 35.390625  C 311.484375 35.390625  300.46875 33.90625  300.46875 33.90625  C 300.72916796875 34.7395875000002  300.859375 35.5729124999998  300.859375 36.40625  C 300.859375 38.8020953125001  299.94792578125 40.8072835937501  298.125 42.421875  C 296.3541578125 43.8281320312499  294.40105234375 45.1302023437502  292.265625 46.328125  C 292.9947953125 47.1093789062502  293.54166484375 47.9427039062498  293.90625 48.828125  C 300.15628125 48.619790625  306.4583015625 48.515625  312.8125 48.515625  C 312.8125 48.515625  314.0625 60.3125  314.0625 60.3125  C 307.76038515625 60.3125  301.48440625 60.416665625  295.234375 60.625  C 294.192703125 66.0416937499999  290.36461640625 70.3124843750002  283.75 73.4375  C 283.75 73.4375  273.75 66.328125  273.75 66.328125  C 277.44793515625 64.9218679687501  279.99999296875 63.2291765625  281.40625 61.25  C 269.79160859375 61.9791703125002  258.17714140625 63.0208265625001  246.5625 64.375  C 246.5625 64.375  245.234375 52.578125  245.234375 52.578125  C 255.5469265625 51.2239515625001  266.14577890625 50.2343781250002  277.03125 49.609375  C 275.41665859375 48.9843718749999  273.56771875 48.4895851562501  271.484375 48.125  C 271.484375 48.125  278.359375 39.765625  278.359375 39.765625  C 279.76563203125 39.81770859375  281.01561953125 40  282.109375 40.3125  C 283.61979921875 39.8437476562499  284.99999375 39.3750023437501  286.25 38.90625  C 286.66666875 38.74999921875  286.875 38.6197921875  286.875 38.515625  C 286.875 38.0468726562499  286.38021328125 37.8125  285.390625 37.8125  C 277.3697515625 38.1770851562501  268.359425 40.0520664062501  258.359375 43.4375  C 258.359375 43.4375  257.578125 40.15625  257.578125 40.15625  Z M 209.84375 54.21875  C 207.49998828125 53.4895796874998  205.15626171875 52.8385445312501  202.8125 52.265625  C 202.8125 52.265625  205.9375 41.953125  205.9375 41.953125  C 208.48959609375 42.5781281250001  210.98957109375 43.2812460937498  213.4375 44.0625  C 215.729178125 37.9687195312499  218.020821875 32.2396101562499  220.3125 26.875  C 220.3125 26.875  231.484375 29.453125  231.484375 29.453125  C 228.9843625 35.5469054687501  226.61459453125 41.6666359374999  224.375 47.8125  C 227.44793203125 49.0104226562498  230.46873515625 50.2604101562501  233.4375 51.5625  C 233.4375 51.5625  230.3125 62.265625  230.3125 62.265625  C 227.03123359375 60.7552007812501  223.828140625 59.375  220.703125 58.125  C 219.45311875 61.6666843749999  218.28125546875 65.2343570312501  217.1875 68.828125  C 217.1875 68.828125  205.9375 66.328125  205.9375 66.328125  C 207.18750625 62.1614374999999  208.4895765625 58.12501953125  209.84375 54.21875  Z M 139.375 66.09375  C 139.4791671875 67.8645921875  139.5833328125 69.5833250000001  139.6875 71.25  C 139.6875 71.25  127.1875 72.578125  127.1875 72.578125  C 126.82291484375 67.6822671875002  126.4843765625 62.8906484375002  126.171875 58.203125  C 122.3176890625 61.90106015625  118.4635609375 65.65102265625  114.609375 69.453125  C 114.609375 69.453125  105.9375 61.5625  105.9375 61.5625  C 111.51044453125 55.8333046875  116.901015625 50.5729406250002  122.109375 45.78125  C 118.35935625 46.0416679687501  114.713559375 46.4062476562499  111.171875 46.875  C 111.171875 46.875  110 34.375  110 34.375  C 114.84377421875 33.8020804687499  119.63539296875 33.3593765625001  124.375 33.046875  C 124.11458203125 29.7135250000001  123.880209375 26.5104320312498  123.671875 23.4375  C 119.4010203125 23.0208312499999  115.2343953125 22.6302101562501  111.171875 22.265625  C 111.171875 22.265625  113.4375 9.453125  113.4375 9.453125  C 116.562515625 9.66145937500005  119.66144296875 9.86979062499995  122.734375 10.078125  C 122.47395703125 7.26561093749979  122.26562578125 4.55730468750016  122.109375 1.953125  C 122.109375 1.953125  134.609375 0.625  134.609375 0.625  C 134.86979296875 4.11460078124992  135.13020703125 7.63019062500007  135.390625 11.171875  C 140.39065 11.6927109375001  145.26039296875 12.2656218749999  150 12.890625  C 150 12.890625  148.671875 26.015625  148.671875 26.015625  C 144.5051875 25.5989562499999  140.41668671875 25.1562523437501  136.40625 24.6875  C 136.56250078125 27.2395960937502  136.744790625 29.7656124999999  136.953125 32.265625  C 141.79689921875 32.057290625  146.64060078125 31.953125  151.484375 31.953125  C 151.484375 31.953125  152.8125 44.375  152.8125 44.375  C 147.604140625 44.375  142.604190625 44.479165625  137.8125 44.6875  C 138.020834375 47.2916796875002  138.20312421875 49.8697789062498  138.359375 52.421875  C 143.30731640625 54.34896796875  148.4374734375 55.4427070312499  153.75 55.703125  C 153.75 55.703125  150.859375 67.5  150.859375 67.5  C 146.74477109375 67.44791640625  142.916684375 66.9791710937502  139.375 66.09375  Z M 93.828125 47.578125  C 94.1406265625001 49.0364656249999  94.7135375 49.765625  95.546875 49.765625  C 96.43229609375 49.765625  97.0312484374999 48.85417578125  97.34375 47.03125  C 97.6041679687501 45.20832421875  97.734375 42.4739765625  97.734375 38.828125  C 97.734375 31.5885054687501  97.5520851562501 27.7083359375001  97.1875 27.1875  C 96.9270820312499 26.4062460937498  96.6145851562501 25.9635421875  96.25 25.859375  C 95.8333312499999 25.7552078125  95.4947929687501 25.703125  95.234375 25.703125  C 95.234375 25.703125  94.765625 25.859375  94.765625 25.859375  C 93.88020390625 30.8073164062498  93.4375 35.6249765624998  93.4375 40.3125  C 93.4375 43.9062679687499  93.5677070312499 46.3281187500002  93.828125 47.578125  Z M 187.96875 41.796875  C 187.96875 41.796875  180.3125 42.421875  180.3125 42.421875  C 179.73958046875 43.3593796875002  179.21875234375 44.2708289062498  178.75 45.15625  C 181.19792890625 45.20833359375  183.6718625 45.2864578125  186.171875 45.390625  C 186.74479453125 44.0885351562501  187.343746875 42.8906304687498  187.96875 41.796875  Z M 174.609375 55.390625  C 174.609375 56.3802132812498  175.62498984375 57.0572898437499  177.65625 57.421875  C 178.43750390625 57.57812578125  179.32291171875 57.7083328125  180.3125 57.8125  C 180.72916875 56.8749953124998  181.11978984375 55.9635460937502  181.484375 55.078125  C 179.192696875 54.9739578125  176.9531359375 54.8697921875  174.765625 54.765625  C 174.71354140625 55.0260429687501  174.66145859375 55.23437421875  174.609375 55.390625  Z M 199.0625 31.875  C 199.32291796875 30.5729101562501  199.58333203125 29.3229226562498  199.84375 28.125  C 195.885396875 28.125  192.03126875 28.15104140625  188.28125 28.203125  C 188.33333359375 28.6718773437501  188.359375 29.0885398437499  188.359375 29.453125  C 191.901059375 29.8177101562501  195.46873203125 30.625  199.0625 31.875  Z M 176.5625 15.703125  C 176.5625 15.703125  173.046875 19.375  173.046875 19.375  C 174.29688125 19.32291640625  175.546875 19.27083359375  176.796875 19.21875  C 176.6927078125 17.9687437500002  176.61458359375 16.7968804687498  176.5625 15.703125  Z M 45.46875 29.609375  C 45.41666640625 28.6718703124998  45.36458359375 27.7604210937502  45.3125 26.875  C 43.9062429687501 26.71874921875  42.5000070312501 26.61458359375  41.09375 26.5625  C 41.14583359375 27.4479210937502  41.19791640625 28.3593703124998  41.25 29.296875  C 42.7083406249999 29.34895859375  44.1145765625001 29.45312421875  45.46875 29.609375  Z M 13.515625 44.296875  C 12.7864546875001 47.4218906249998  12.1614609374999 50.6249835937501  11.640625 53.90625  C 12.63021328125 54.1666679687501  13.5937453125 54.4270820312499  14.53125 54.6875  C 14.1666648437499 51.0937320312501  13.8281265625001 47.6302249999999  13.515625 44.296875  Z M 58.515625 44.0625  C 58.515625 44.0625  59.53125 47.265625  59.53125 47.265625  C 59.8437515625001 46.3802039062498  60.1302070312499 45.5468789062502  60.390625 44.765625  C 59.7135382812501 44.5052070312499  59.0885445312499 44.270834375  58.515625 44.0625  Z M 42.03125 43.4375  C 43.4895906250001 43.1249984374999  44.8958265625001 42.7864601562501  46.25 42.421875  C 46.19791640625 41.3802031250002  46.14583359375 40.3906296875002  46.09375 39.453125  C 44.6354093750001 39.29687421875  43.2031320312501 39.1666671875  41.796875 39.0625  C 41.9010421875 40.5208406249999  41.97916640625 41.9791593750001  42.03125 43.4375  Z M 29.375 25.078125  C 29.375 25.078125  30.625 36.328125  30.625 36.328125  C 28.4374890624999 36.328125  26.2760523437501 36.35416640625  24.140625 36.40625  C 24.2447921875 37.2395875000002  24.32291640625 38.0468710937498  24.375 38.828125  C 26.6666781250001 39.0885429687501  28.9322804687499 39.4791640624999  31.171875 40  C 31.171875 40  30.703125 45.9375  30.703125 45.9375  C 31.2239609375001 45.8333328125  31.6927062499999 45.7291671875  32.109375 45.625  C 31.3802046875001 33.5936898437499  30.7552109375001 22.6302578125001  30.234375 12.734375  C 29.6614554687499 12.734375  29.0885445312501 12.70833359375  28.515625 12.65625  C 28.515625 12.65625  27.734375 21.953125  27.734375 21.953125  C 26.0677000000001 21.79687421875  24.4791742187501 21.6145843750001  22.96875 21.40625  C 23.0729171875 22.65625  23.20312421875 23.9062437500002  23.359375 25.15625  C 25.3385515625 25.10416640625  27.34373984375 25.078125  29.375 25.078125  Z M 56.171875 39.765625  C 56.5364601562499 39.6614578125  56.8749984374999 39.5572921875  57.1875 39.453125  C 57.1875 39.453125  58.125 42.578125  58.125 42.578125  C 58.125 42.578125  60.625 34.375  60.625 34.375  C 61.5625046875 34.6354179687501  62.47395390625 34.9479148437499  63.359375 35.3125  C 63.41145859375 35.15624921875  63.4375 35.00000078125  63.4375 34.84375  C 63.4375 31.8229015625002  62.7083406249999 30.3125  61.25 30.3125  C 60.5729132812501 30.3125  58.7239734375 31.1197835937501  55.703125 32.734375  C 55.911459375 35.0781367187501  56.0677078125 37.4218632812499  56.171875 39.765625  Z M 44.609375 13.59375  C 43.1510343750001 13.54166640625  41.7187570312501 13.4635421875  40.3125 13.359375  C 40.36458359375 14.5572976562498  40.4427078125 15.7031195312502  40.546875 16.796875  C 42.0572992187499 16.84895859375  43.4635351562499 16.95312421875  44.765625 17.109375  C 44.71354140625 15.9114523437502  44.66145859375 14.7395890624998  44.609375 13.59375  Z M 293.671875 24.375  C 279.66138828125 25.3125046874998  266.90109921875 27.5260242187501  255.390625 31.015625  C 255.65104296875 31.8489625000002  255.9374984375 32.6302046874998  256.25 33.359375  C 267.96880859375 29.66143984375  278.098915625 27.8125  286.640625 27.8125  C 291.015646875 27.8125  294.348946875 28.4635351562501  296.640625 29.765625  C 297.94271484375 30.3385445312501  298.93228828125 31.1458281250002  299.609375 32.1875  C 300.4427125 29.8958218749999  300.963540625 27.9166749999999  301.171875 26.25  C 301.171875 24.9999937500002  298.6719 24.375  293.671875 24.375  Z " fill-rule="nonzero" fill="url(#LinearGradient4)" stroke="none" transform="matrix(1 0 0 1 346 34 )" />
  </g>
</svg>