<?xml version="1.0" encoding="utf-8"?>
<svg version="1.1" xmlns:xlink="http://www.w3.org/1999/xlink" width="48px" height="48px" xmlns="http://www.w3.org/2000/svg">
  <g transform="matrix(1 0 0 1 -54 -452 )">
    <path d="M 2.91168824543153 31.0294372515228  C 2.91168824543153 31.0294372515228  9.94112549695429 24  9.94112549695429 24  C 9.94112549695429 24  2.91168824543141 16.9705627484772  2.91168824543141 16.9705627484772  C -0.970562748477148 13.0883117545686  -0.970562748477148 6.79393923934001  2.91168824543141 2.91168824543148  C 6.79393923933995 -0.97056274847712  13.0883117545685 -0.97056274847712  16.9705627484771 2.91168824543148  C 16.9705627484771 2.91168824543148  24 9.94112549695433  24 9.94112549695433  C 24 9.94112549695433  31.0294372515229 2.91168824543142  31.0294372515229 2.91168824543142  C 34.9116882454314 -0.97056274847712  41.20606076066 -0.97056274847712  45.0883117545686 2.91168824543142  C 48.9705627484771 6.79393923933996  48.9705627484771 13.0883117545686  45.0883117545686 16.9705627484771  C 45.0883117545686 16.9705627484771  38.0588745030457 24  38.0588745030457 24  C 38.0588745030457 24  45.0883117545685 31.0294372515229  45.0883117545685 31.0294372515229  C 48.970562748477 34.9116882454314  48.970562748477 41.20606076066  45.0883117545685 45.0883117545686  C 41.2060607606599 48.9705627484771  34.9116882454313 48.9705627484771  31.0294372515228 45.0883117545686  C 31.0294372515228 45.0883117545686  24 38.0588745030457  24 38.0588745030457  C 24 38.0588745030457  16.9705627484772 45.0883117545685  16.9705627484772 45.0883117545685  C 13.0883117545687 48.9705627484771  6.79393923934006 48.9705627484771  2.91168824543153 45.0883117545685  C -0.970562748477035 41.20606076066  -0.970562748477035 34.9116882454314  2.91168824543153 31.0294372515228  Z " fill-rule="nonzero" fill="#ffffff" stroke="none" transform="matrix(1 0 0 1 54 452 )" />
  </g>
</svg>