<?xml version="1.0" encoding="utf-8"?>
<svg version="1.1" xmlns:xlink="http://www.w3.org/1999/xlink" width="79px" height="104px" xmlns="http://www.w3.org/2000/svg">
  <defs>
    <mask fill="white" id="clip1913">
      <path d="M 10 0  C 10 0  69 0  69 0  C 74.5228474983078 0  79 4.49878125773881  79 10.048309178744  C 79 10.048309178744  79 47.1025210587267  79 47.1025210587267  C 79 49.0698622042713  78.0447341318095 50.9134623691233  76.44077406618 52.0416584346097  C 76.44077406618 52.0416584346097  66.55922593382 58.9921579905111  66.55922593382 58.9921579905111  C 64.9552658681905 60.1203540559975  64 61.9639542208495  64 63.9312953663941  C 64 63.9312953663941  64 98.975845410628  64 98.975845410628  C 64 101.75060937113  61.7614237491539 104  59 104  C 59 104  20 104  20 104  C 17.2385762508461 104  15 101.75060937113  15 98.975845410628  C 15 98.975845410628  15 63.9312953663941  15 63.9312953663941  C 15 61.9639542208495  14.0447341318095 60.1203540559975  12.44077406618 58.9921579905111  C 12.44077406618 58.9921579905111  2.55922593382002 52.0416584346097  2.55922593382002 52.0416584346097  C 0.955265868190509 50.9134623691233  0 49.0698622042713  0 47.1025210587267  C 0 47.1025210587267  0 10.048309178744  0 10.048309178744  C 0 4.49878125773881  4.47715250169222 0  10 0  Z " fill-rule="evenodd" />
    </mask>
  </defs>
  <g transform="matrix(1 0 0 1 215 -53 )">
    <path d="M 10 0  C 10 0  69 0  69 0  C 74.5228474983078 0  79 4.49878125773881  79 10.048309178744  C 79 10.048309178744  79 47.1025210587267  79 47.1025210587267  C 79 49.0698622042713  78.0447341318095 50.9134623691233  76.44077406618 52.0416584346097  C 76.44077406618 52.0416584346097  66.55922593382 58.9921579905111  66.55922593382 58.9921579905111  C 64.9552658681905 60.1203540559975  64 61.9639542208495  64 63.9312953663941  C 64 63.9312953663941  64 98.975845410628  64 98.975845410628  C 64 101.75060937113  61.7614237491539 104  59 104  C 59 104  20 104  20 104  C 17.2385762508461 104  15 101.75060937113  15 98.975845410628  C 15 98.975845410628  15 63.9312953663941  15 63.9312953663941  C 15 61.9639542208495  14.0447341318095 60.1203540559975  12.44077406618 58.9921579905111  C 12.44077406618 58.9921579905111  2.55922593382002 52.0416584346097  2.55922593382002 52.0416584346097  C 0.955265868190509 50.9134623691233  0 49.0698622042713  0 47.1025210587267  C 0 47.1025210587267  0 10.048309178744  0 10.048309178744  C 0 4.49878125773881  4.47715250169222 0  10 0  Z " fill-rule="nonzero" fill="#ffffff" stroke="none" transform="matrix(1 0 0 1 -215 53 )" />
    <path d="M 10 0  C 10 0  69 0  69 0  C 74.5228474983078 0  79 4.49878125773881  79 10.048309178744  C 79 10.048309178744  79 47.1025210587267  79 47.1025210587267  C 79 49.0698622042713  78.0447341318095 50.9134623691233  76.44077406618 52.0416584346097  C 76.44077406618 52.0416584346097  66.55922593382 58.9921579905111  66.55922593382 58.9921579905111  C 64.9552658681905 60.1203540559975  64 61.9639542208495  64 63.9312953663941  C 64 63.9312953663941  64 98.975845410628  64 98.975845410628  C 64 101.75060937113  61.7614237491539 104  59 104  C 59 104  20 104  20 104  C 17.2385762508461 104  15 101.75060937113  15 98.975845410628  C 15 98.975845410628  15 63.9312953663941  15 63.9312953663941  C 15 61.9639542208495  14.0447341318095 60.1203540559975  12.44077406618 58.9921579905111  C 12.44077406618 58.9921579905111  2.55922593382002 52.0416584346097  2.55922593382002 52.0416584346097  C 0.955265868190509 50.9134623691233  0 49.0698622042713  0 47.1025210587267  C 0 47.1025210587267  0 10.048309178744  0 10.048309178744  C 0 4.49878125773881  4.47715250169222 0  10 0  Z " stroke-width="2" stroke="#b3b3b3" fill="none" transform="matrix(1 0 0 1 -215 53 )" mask="url(#clip1913)" />
  </g>
</svg>