<?xml version="1.0" encoding="utf-8"?>
<svg version="1.1" xmlns:xlink="http://www.w3.org/1999/xlink" width="22px" height="20px" xmlns="http://www.w3.org/2000/svg">
  <g transform="matrix(1 0 0 1 -11 -9 )">
    <path d="M 6.18003570507778 16.8302040848214  C 6.18003570507778 18.0930612276786  6.87067856835972 18.8775510267858  8.15964286328165 18.8775510267858  C 8.15964286328165 18.8775510267858  13.8403571367184 18.8775510267858  13.8403571367184 18.8775510267858  C 15.1297142734371 18.8775510267858  15.8203571367191 18.0930612276786  15.8203571367191 16.8302040848214  C 15.8203571367191 16.8302040848214  15.8203571367191 12.5444897991071  15.8203571367191 12.5444897991071  C 15.8203571367191 12.5444897991071  19.5678214316404 12.5444897991071  19.5678214316404 12.5444897991071  C 20.3134642949223 12.5444897991071  20.9027500000003 12.0661224553571  20.9027500000003 11.3391836830358  C 20.9027500000003 10.8897959375002  20.6906071367196 10.5546938839286  20.3503928632816 10.2106122544644  C 20.3503928632816 10.2106122544644  12.137321431641 1.70612245535722  12.137321431641 1.70612245535722  C 11.7872857265629 1.33306122767863  11.4097499999997 1.12244899553584  11.0047142949217 1.12244897321424  C 10.5902500000003 1.12244897321424  10.2221428632816 1.33306122767863  9.862678568359 1.70612245535722  C 9.862678568359 1.70612245535722  1.64999999999975 10.2106122544644  1.64999999999975 10.2106122544644  C 1.3003571367185 10.5738775669644  1.09764286328107 10.8897959375002  1.09764286328107 11.3391836830358  C 1.09764286328107 12.0665306250001  1.68692856835912 12.5444897991071  2.44199999999978 12.5444897991071  C 2.44199999999978 12.5444897991071  6.18003570507778 12.5444897991071  6.18003570507778 12.5444897991071  C 6.18003570507778 12.5444897991071  6.18003570507778 16.8302040848214  6.18003570507778 16.8302040848214  Z M 14.2831071367185 16.7922448883928  C 14.2831071367185 17.136326517857  14.0344285683585 17.394693861607  13.6938214316405 17.3946938839286  C 13.6938214316405 17.3946938839286  8.30696429492104 17.3946938839286  8.30696429492104 17.3946938839286  C 7.95692858984296 17.3946938839286  7.71767858984299 17.1457142857142  7.7176785683597 16.7922448883928  C 7.7176785683597 16.7922448883928  7.7176785683597 11.4253061160714  7.7176785683597 11.4253061160714  C 7.7176785683597 11.1861224330356  7.63478570507777 11.1  7.41360713671838 11.1  C 7.41360713671838 11.1  3.16917856835971 11.1  3.16917856835971 11.1  C 3.10435713671836 11.1  3.06782143164037 11.0714285714286  3.06782143164037 11.0236734598214  C 3.06782143164037 10.9853061160714  3.07685713671901 10.9567346875  3.12282143164032 10.9089795982144  C 3.12282143164032 10.9089795982144  10.8110357050783 2.96897959821438  10.8110357050783 2.96897959821438  C 10.8574438012612 2.90708880849901  10.9292149476329 2.87154450069985  11.0047142949217 2.87306122767859  C 11.0691428632804 2.87306122767859  11.1245357265617 2.89224491071439  11.1980000000003 2.96897959821438  C 11.1980000000003 2.96897959821438  18.8862142949216 10.9089795982144  18.8862142949216 10.9089795982144  C 18.923142863281 10.9567347098216  18.9416071582029 10.985306138393  18.9416071367184 11.0232653125  C 18.9416071367184 11.0714285714286  18.904678568359 11.1  18.8402499999991 11.1  C 18.8402499999991 11.1  14.5867857050772 11.1  14.5867857050772 11.1  C 14.3656071367178 11.1  14.2831071367185 11.1861224553572  14.2831071367185 11.4253061160714  C 14.2831071367185 11.4253061160714  14.2831071367185 16.7922448883928  14.2831071367185 16.7922448883928  Z " fill-rule="nonzero" fill="#000000" stroke="none" transform="matrix(1 0 0 1 11 9 )" />
  </g>
</svg>