<?xml version="1.0" encoding="utf-8"?>
<svg version="1.1" xmlns:xlink="http://www.w3.org/1999/xlink" width="28px" height="16px" xmlns="http://www.w3.org/2000/svg">
  <g transform="matrix(1 0 0 1 -334 -193 )">
    <path d="M 0.203285046690326 7.50666667665428  C 0.203285046690326 7.50666667665428  6.65063206175364 0.39555557248741  6.65063206175364 0.39555557248741  C 6.87492258938255 0.148382484151171  7.25235398899167 0  7.65648107258494 0  C 7.65648107258494 0  26.7910468638902 0  26.7910468638902 0  C 27.4587332442243 0  28 0.397969124358042  28 0.88888890582075  C 28 0.88888890582075  28 15.1111111141531  28 15.1111111141531  C 28 15.6020308956158  27.4587332442243 16  26.7910468638902 16  C 26.7910468638902 16  7.65648107258494 16  7.65648107258494 16  C 7.25235398899167 16  6.87492258938255 15.8516175358241  6.65063206175364 15.6044444474874  C 6.65063206175364 15.6044444474874  0.203285046690326 8.49333334332096  0.203285046690326 8.49333334332096  C -0.0677616822304117 8.19463390279589  -0.0677616822304117 7.80536611717889  0.203285046690326 7.50666667665428  Z M 1.78099999999995 8  L 7.67399999999998 14.5  L 26 14.5  L 26 1.5  L 7.67500000000018 1.5  L 1.78099999999995 8  Z M 16.0000000110476 6.66698092217621  L 18.6660381866695 4.00000000998716  L 20 5.33396184541289  L 17.3330190878114 8.00000002103479  L 20 10.6660381966567  L 18.6660381866695 12.0000000320824  L 16.0000000110476 9.33301911989338  L 13.3339618133305 12.0000000320824  L 12 10.6660381966567  L 14.6669809121886 8.00000002103479  L 12 5.33396184541289  L 13.3339618133305 4.00000000998716  L 16.0000000110476 6.66698092217621  Z " fill-rule="nonzero" fill="#000000" stroke="none" transform="matrix(1 0 0 1 334 193 )" />
  </g>
</svg>